<?xml version="1.0" encoding="utf-8"?>
<!-- Generator: Adobe Illustrator 20.1.0, SVG Export Plug-In . SVG Version: 6.00 Build 0)  -->
<svg version="1.1" id="Слой_1" xmlns="http://www.w3.org/2000/svg" xmlns:xlink="http://www.w3.org/1999/xlink" x="0px" y="0px"
	 viewBox="0 0 76.8 89.4" style="enable-background:new 0 0 76.8 89.4;" xml:space="preserve">
<style type="text/css">
	.st0{fill:#FFD034;}
	.st1{fill:#FFFFFF;}
</style>
<path class="st0" d="M8.9,52.7c-2.5,0-4.6,0-6.8,0c-1.8,0-2.1-1.2-2.1-2.7c0-5.3,0-10.5,0-15.8c0-3.5-0.1-7.1,0.1-10.6
	c0-1,0.5-2.1,1.2-2.9c1.5-1.6,3-3.3,4.8-4.4c1.3-0.8,3.2-0.9,4.8-0.9c2.2,0.1,2.9-0.6,2.8-2.9C13.6,8.4,13.7,4.3,13.7,0
	c1.5,0,2.9,0,4.5,0c0,8.2,0,16.5,0,24.9c1.1,0.1,2,0.1,2.8,0.1c5.3,0,10.5,0,15.8,0c3.1,0,3.2,0,3.3-3.1C40,15.2,40,8.3,40,1.4
	C40,1,40.1,0.6,40.1,0c1.4,0,2.7,0,4.2,0c0,4.3,0.1,8.6,0,13c-0.1,2,0.7,2.8,2.6,2.5c4-0.8,6.3,1.7,8.9,4c1.7,1.5,2.2,3.4,2.1,5.7
	c-0.2,6.4-0.1,12.9-0.1,19.7c-0.9,0-1.8,0-2.6,0c-14.6,0-29.1,0.1-43.7,0c-2.1,0-2.7,0.7-2.6,2.7C9,49.1,8.9,50.8,8.9,52.7z
	 M48.4,29.5c-0.1-0.2-0.1-0.4-0.2-0.6c-1.7,0-3.5,0.1-5.2,0c-1.7-0.1-3.1,0.3-4.4,1.5c-3.4,3.1-6.9,6-10.3,9.1
	c-0.3,0.3-0.5,0.7-0.9,1.5c1.9,0,3.3-0.1,4.8,0c2.1,0.1,3.9-0.2,5.5-2c1.5-1.8,3.7-3,5.4-4.6C44.9,32.8,46.6,31.1,48.4,29.5z
	 M32.6,29.5c-0.1-0.2-0.2-0.4-0.2-0.6c-2.2,0-4.4-0.1-6.6,0c-0.7,0-1.6,0.4-2.1,0.8c-3.3,2.7-6.5,5.5-9.6,8.3
	c-0.8,0.7-1.3,1.5-2.4,2.8c2.4,0,4.1,0,5.9,0c1.6,0,2.8-0.2,4.1-1.6c1.6-1.8,3.8-3.1,5.6-4.7C29,33,30.8,31.3,32.6,29.5z M51.3,33.9
	c-1.6-0.1-7.2,4.8-8,7.1c2.3,0,4.5,0.1,6.6-0.1c0.5,0,1.3-1,1.3-1.5C51.4,37.5,51.3,35.7,51.3,33.9z M9.3,36.4
	c2.8-2.3,5.5-4.4,8.1-7.3c-9.9-0.4-8.6-1.3-8.4,6.7C8.9,35.9,9,36,9.3,36.4z"/>
<path class="st1" d="M14.2,49.6c16.4,0,32.7,0,49.3,0c0-4.9,0-9.6,0-14.6c2,0,3.7,0,5.5,0c1.4,0,7.7,5.6,7.8,7c0.1,0.7,0,1.3,0,2
	c0,14.4,0,28.8,0,43.3c0,0.5-0.1,1-0.1,1.9c-4.7,0-9.5,0.2-14.1-0.1c-1.1-0.1-2.1-1.6-3.2-2.3c-1.1-0.7-2.4-1.6-3.6-1.6
	C48.9,85,42.1,85,35.3,85.2c-1.1,0-2.4,0.8-3.4,1.6c-1.8,1.4-3.4,2.8-6,2.6c-3.3-0.2-6.7-0.1-10,0c-1.2,0-2.1-0.2-2.1-1.8
	c0-12.4,0-24.8,0.1-37.3C13.9,50.1,14,50,14.2,49.6z M72.2,53.8c-0.6-0.1-1.1-0.2-1.6-0.2c-16.5,0-32.9,0.1-49.4,0
	c-1.8,0-2.1,0.7-2.1,2.3c0.1,7.5,0.1,15.1,0,22.6c0,2,0.5,2.5,2.5,2.5c16.1-0.1,32.2,0,48.3,0c0.8,0,1.6-0.1,2.3-0.1
	C72.2,71.7,72.2,62.8,72.2,53.8z"/>
<path class="st0" d="M33.6,15.8c0.5,0,0.9,0.5,0.9,1v4.6c-3.5,0-7,0-10.5,0c-0.2-6.5,3.7,0,0,0c0-1.4-0.2-2.8-0.1-4.1
	c0.1-0.7,0.2-1.2,0.9-1.4"/>
<path class="st1" d="M63.4,70.8c0-3.5,0-7,0-10.5c-11.9,0-23.5,0-35.1,0c0,4.8,0,9.5,0,14.3c1.2,0,2.1,0,3,0
	c9.5-0.1,18.9-0.1,28.4-0.2C64.2,74.4,63.4,74.8,63.4,70.8z M38.5,70.5h-6.2v-6h6.2V70.5z M48.4,70.3h-6.2v-6h6.2V70.3z M58.9,70.3
	h-6.2v-6h6.2V70.3z"/>
</svg>
