<?xml version="1.0" encoding="utf-8"?>
<!-- Generator: Adobe Illustrator 20.1.0, SVG Export Plug-In . SVG Version: 6.00 Build 0)  -->
<svg version="1.1" id="Слой_1" xmlns="http://www.w3.org/2000/svg" xmlns:xlink="http://www.w3.org/1999/xlink" x="0px" y="0px"
	 viewBox="0 0 87.7 87.8" style="enable-background:new 0 0 87.7 87.8;" xml:space="preserve">
<style type="text/css">
	.st0{fill:#434343;}
	.st1{fill:none;}
	.st2{fill:#FFFFFF;}
	.st3{fill:#FFD034;}
</style>
<path class="st0" d="M14.8,33.7"/>
<path class="st1" d="M41.5,3.6l-0.2,0.2l0,0L41.5,3.6c0,0.1,0.1,0.2,0.5,0.5C41.7,3.8,41.5,3.6,41.5,3.6z M41.5,3.6l-0.2,0.2l0,0
	L41.5,3.6c0,0.1,0.1,0.2,0.5,0.5C41.7,3.8,41.5,3.6,41.5,3.6z M41.5,3.6l-0.2,0.2l0,0L41.5,3.6c0,0.1,0.1,0.2,0.5,0.5
	C41.7,3.8,41.5,3.6,41.5,3.6z M72.9,33.7c0.2,0.3,0.3,0.4,0.3,0.5v-0.5C73.1,33.7,73,33.7,72.9,33.7z M41.5,3.6l-0.2,0.2l0,0
	L41.5,3.6c0,0.1,0.1,0.2,0.5,0.5C41.7,3.8,41.5,3.6,41.5,3.6z M41.5,3.6l-0.2,0.2l0,0L41.5,3.6c0,0.1,0.1,0.2,0.5,0.5
	C41.7,3.8,41.5,3.6,41.5,3.6z M41.4,3.8L41.4,3.8 M42,4.2C42,4.2,42,4.2,42,4.2c-0.3-0.3-0.5-0.4-0.5-0.4l-0.1,0 M73.2,34.3
	c0-0.1-0.1-0.3-0.3-0.5 M41.5,3.6c-0.3,0-0.5,0-0.5,0 M41.5,3.6l-0.1,0.1L41.5,3.6c0,0.1,0.1,0.2,0.5,0.5
	C41.7,3.8,41.5,3.6,41.5,3.6z M72.9,33.7c0.2,0.3,0.3,0.4,0.3,0.5v-0.5C73.1,33.7,73,33.7,72.9,33.7z M41.4,3.8L41.4,3.8l0.2-0.2
	L41.4,3.8z"/>
<path class="st2" d="M77.1,25.6C77.1,20.7,72,0,43.8,0C9.7-0.6,10.3,27.2,10.3,30.9c0,14.9,0,29.7,0,44.6c0,0.8,0.1,1.7,0.1,2.6
	h66.7c0.1-0.4,0.2-0.6,0.2-0.8C77.3,60,77.2,42.8,77.1,25.6z M73.2,34.3c-0.1,12.6-0.1,25.3,0,37.9c0,1.5-0.6,1.9-2,1.9
	c-18.1,0-38,0.1-56.1,0.1c-0.2-3.9-0.2-37.4-0.2-40.4v-4.1c0.2-2.2-1.9-26,26.7-26h4.5c26.5,0.3,27,20.3,27,26.1L73.2,34.3z"/>
<path class="st2" d="M87.6,87.8c-29.2,0-58.2,0-87.3,0C-0.6,84.5,0.5,83,3.7,83c26.7,0,53.4,0,80.1,0C86.9,83,88.2,84.6,87.6,87.8z"
	/>
<rect x="41.4" y="3.6" class="st3" width="4.6" height="70.5"/>
<rect x="14.8" y="51.9" class="st3" width="58.3" height="4"/>
<rect x="14.6" y="29.7" class="st3" width="59.1" height="4"/>
</svg>
