<?xml version="1.0" encoding="utf-8"?>
<!-- Generator: Adobe Illustrator 20.1.0, SVG Export Plug-In . SVG Version: 6.00 Build 0)  -->
<svg version="1.1" id="Слой_1" xmlns="http://www.w3.org/2000/svg" xmlns:xlink="http://www.w3.org/1999/xlink" x="0px" y="0px"
	 viewBox="0 0 89.3 81.6" style="enable-background:new 0 0 89.3 81.6;" xml:space="preserve">
<style type="text/css">
	.st0{fill:#FFFFFF;}
	.st1{fill:#FFD034;}
</style>
<path class="st0" d="M13.4,45.4c0,1.5,0,3,0,4.5c0,6,0,6,6.1,6c13.5,0,27,0,40.6,0c0.8,0,1.6,0,2.5,0c0,8.7,0,17.1,0,25.7
	c-20.8,0-41.6,0-62.5,0c0-1.3,0-2.4,0-3.6c0-8.3,0-16.7,0-25c0-1.1,0-2.2,1.4-2.6C2,50.1,2.5,49.4,3,48.9C5.6,45.4,9,44.4,13.4,45.4
	z M29.7,59.6c-1.3,0-2.3,0.1-3.3,0c-3.5-0.2-6.4,0.2-9.1,3.2C13.5,66.8,8.9,70.1,5,73.9c-0.6,0.6-0.3,2.3-0.3,3.5c2,0,4.6,0.7,6-0.2
	c4-2.9,7.5-6.4,11.2-9.7c2.4-2.1,4.8-4.2,7.2-6.3C29.2,60.8,29.3,60.3,29.7,59.6z M45.9,60.3c-0.1-0.2-0.2-0.5-0.4-0.7
	c-2.7,0-5.3,0-7.9,0c-0.6,0-1.2,0.4-1.7,0.8c-4.6,4.1-9.2,8.2-13.8,12.3c-1.6,1.5-3.2,3-4.9,4.5c2.9,0.5,5.6,0.5,8.2,0.4
	c0.6,0,1.2-0.4,1.7-0.8c5.6-5,11.1-10,16.7-15C44.5,61.2,45.2,60.8,45.9,60.3z M33.3,77.3c5.9,1.1,10.6,0.4,14.3-4.1
	c1.4-1.7,3.4-2.8,5.1-4.3c1.8-1.6,3.6-3.3,5.3-5.1c1.1-1.2,0.8-4.1-0.4-4.1c-1.9,0-4.3-0.1-5.6,1c-4.8,3.8-9.2,8.1-13.7,12.2
	C36.7,74.2,35.1,75.6,33.3,77.3z M13.9,59.7c-1.5-0.1-2.6-0.2-3.7-0.2c-7.1-0.1-5.9-0.3-6,6.4c0,0.5,0.3,0.9,0.4,1.4
	c0.5-0.2,1.2-0.2,1.5-0.5C8.7,64.6,11.1,62.4,13.9,59.7z M58.4,70.1c-0.2-0.1-0.4-0.2-0.6-0.3c-2.7,2.4-5.5,4.9-8.6,7.7
	c3.5,0,6.4,0,9.2,0C58.4,74.9,58.4,72.5,58.4,70.1z"/>
<path class="st0" d="M21.5,0.1c1.5,0,2.9,0,4.5,0c0,3.1,0,6.1,0,9.2c0,11.7,0,23.4-0.1,35.1c0,2.2,0.6,2.8,2.8,2.7
	c3.3-0.2,6.7,0,10,0c3,0,3,0,3-2.9c0-13.7-0.1-27.4-0.1-41c0-0.9,0-1.9,0-2.9c1.6,0,2.9,0,4.3,0c0,16.9,0,33.8,0,50.8
	c-8,0-16.1,0-24.2,0C21.5,34.1,21.5,17.2,21.5,0.1z"/>
<path class="st0" d="M48.9,51.1c0-4.6,0-8.9,0-13.3c0.8,0,1.5-0.1,2.2-0.1c10.7,0,21.4,0,32.1,0c3.5,0,6,2.4,6,5.9
	c0,3.9,0,7.8,0,11.8c-1.5,0-2.8,0-4.4,0c0-1.3,0-2.7,0-4.3C72.8,51.1,61,51.1,48.9,51.1z M72.8,41.8c-1.8,0-3.3,0.1-4.7,0
	c-2.3-0.3-3.1,0.6-2.8,2.8c0.2,0.9-0.5,2.3,1.2,2.4c2,0.1,4.1,0,6.3,0c0-0.9,0-1.6,0-2.3C72.8,43.8,72.8,42.9,72.8,41.8z M60.8,41.8
	c-1.6,0-2.9,0-4.2,0c-3.1,0-4.1,1.2-3.2,4.2c0.1,0.4,0.6,0.9,1,0.9c2.1,0.1,4.2,0,6.4,0C60.8,45.1,60.8,43.6,60.8,41.8z M84.6,47
	c0.7-5.2,0.7-5.2-4.1-5.2c-0.5,0-1,0-1.5,0c-2.1,0-1.4,1.7-1.5,2.8C77.3,45.6,77,47,78.9,47C80.8,46.9,82.6,47,84.6,47z"/>
<path class="st0" d="M36.3,41.9c-1.4,0-2.7,0-4.3,0c-0.2-1.7-0.6-3.4-0.6-5.1c-0.1-11.2-0.1-22.5-0.1-33.7c0-3.2,0-3.2,3.1-3.1
	c0.6,0,1.2,0.1,1.9,0.1C36.3,14,36.3,27.9,36.3,41.9z"/>
<polyline class="st1" points="13.4,49.3 13.4,45.9 20.1,47 20.1,52.4 13.4,54.6 13.4,49.3 "/>
</svg>
