<?xml version="1.0" encoding="utf-8"?>
<!-- Generator: Adobe Illustrator 20.1.0, SVG Export Plug-In . SVG Version: 6.00 Build 0)  -->
<svg version="1.1" id="Слой_1" xmlns="http://www.w3.org/2000/svg" xmlns:xlink="http://www.w3.org/1999/xlink" x="0px" y="0px"
	 viewBox="0 0 75 69.6" style="enable-background:new 0 0 75 69.6;" xml:space="preserve">
<style type="text/css">
	.st0{fill:#FFFFFF;}
	.st1{fill:#FFD034;}
</style>
<path class="st0" d="M60,13.4c0,18.8,0,37.4,0,56.3c-20,0-39.9,0-60,0c0-18.7,0-37.4,0-56.3C19.9,13.4,39.8,13.4,60,13.4z
	 M47.5,65.9c0.1-0.2,0.2-0.4,0.3-0.5c-0.3-0.4-0.7-0.9-1.1-1.2c-5.5-4.9-11-9.8-16.4-14.7c-2.8-2.5-5.5-5-8.3-7.4
	C17,37.5,11.9,32.9,6.7,28.4c-0.5-0.4-1.1-0.6-1.6-0.9c-0.2,0.6-0.5,1.2-0.5,1.8c0,11.4,0,22.8,0,34.1c0,1.8,0.5,2.4,2.4,2.4
	c10.8-0.1,21.6,0,32.4,0C42.1,65.9,44.8,65.9,47.5,65.9z M55.2,45.2c0-9.6,0-18.7,0-27.8c-10.4,0-20.6,0-31.4,0
	C34.5,26.9,44.7,35.9,55.2,45.2z M55.3,57.8c0-1.7-0.1-2.8,0-3.8c0.2-1.8-0.3-3.2-1.8-4.4c-3.3-2.8-6.6-5.6-9.9-8.4
	c-2.2-1.9-4.2-4-6.4-6c-5.6-4.9-11.5-9.6-16.7-14.8c-3.1-3.1-6.2-3.4-10.2-2.9c0.3,0.5,0.5,0.9,0.8,1.2c4,3.6,8.1,7.1,12.1,10.7
	c3.3,2.9,6.5,5.9,9.7,8.8c4.5,4,9,7.9,13.6,11.9C49.3,52.5,52.1,54.9,55.3,57.8z"/>
<path class="st1" d="M75,56.4c-3,0-5.9,0-9.2,0c0-0.9,0-1.7,0-2.6c0-14.4-0.1-28.8,0-43.2c0-2.3-1.2-2.1-2.7-2.1
	c-15.3,0-30.6,0-45.9-0.1c-0.7,0-1.3,0-2.2,0c0-2.8,0-5.5,0-8.4C35,0,54.9,0,75,0C75,18.8,75,37.5,75,56.4z"/>
</svg>
