<?xml version="1.0" encoding="utf-8"?>
<!-- Generator: Adobe Illustrator 20.1.0, SVG Export Plug-In . SVG Version: 6.00 Build 0)  -->
<svg version="1.1" id="Слой_1" xmlns="http://www.w3.org/2000/svg" xmlns:xlink="http://www.w3.org/1999/xlink" x="0px" y="0px"
	 viewBox="0 0 62.2 77.1" style="enable-background:new 0 0 62.2 77.1;" xml:space="preserve">
<style type="text/css">
	.st0{fill:#FFCF44;}
	.st1{fill:#FFFFFF;}
</style>
<path class="st0" d="M17.9,58.8c0-16.7,0-33.3,0-50.1c8.7,0,17.4,0,26.3,0c0,16.8,0,33.4,0,50.1C35.4,58.8,26.8,58.8,17.9,58.8z
	 M22.3,23.7c0,4.7,0,9,0,13.3c0,0.4,0.3,1,0.7,1.3c1,1,2.2,1.8,3.2,2.7c3.7,3.2,7.4,6.4,11.2,9.5c0.5,0.4,1.1,0.7,1.7,1.1
	c0.3-0.7,0.7-1.4,0.7-2.1c0.1-3.2,0.1-6.4,0-9.5c0-0.8-0.4-1.7-0.9-2.3c-1.6-1.7-3.4-3.4-5.2-5c-3.2-2.9-6.4-5.7-9.6-8.6
	C23.8,24,23.1,23.9,22.3,23.7z M23.1,12.6c-0.1,2.5-1,4.2,1,5.9c4.7,4,9.2,8.2,13.9,12.3c0.4,0.3,1.3,0,1.9-0.1
	c-0.3-1.8,0.1-4.2-0.9-5.3c-3.3-3.7-7-7-10.8-10.2C26.9,14.1,25,13.6,23.1,12.6z"/>
<path class="st1" d="M8.2,0c29.1,0,17.2,0,46.4,0c0,22.6,0,45.2,0,67.7c-29.2,0-17.2,0-46.3,0c0-0.7-0.1-1.3-0.1-1.9 M12.7,33.6
	C12.7,33.6,12.7,33.6,12.7,33.6c0,9.3,0,18.6,0,27.9c0,1.1-0.2,2.2,1.6,2.2c11.3-0.1,22.6-0.1,33.9,0c1.3,0,1.8-0.5,1.8-1.9
	c0-18.7,0-37.4,0.1-56.1c0-1.3-0.5-1.9-1.8-1.9c-11.4,0-22.8,0-34.1,0c-1.1,0-1.6,0.4-1.6,1.6C12.7,14.8,12.7,24.2,12.7,33.6z"/>
<path class="st1" d="M0.1,77.1c-0.5-4,1.6-6.6,5.4-6.6c31.3,0,20.9,0,52.2,0c3.4,0,4.8,3.2,4.5,6.6C28.1,77.1,34.2,77.1,0.1,77.1z"
	/>
</svg>
