<?xml version="1.0" encoding="utf-8"?>
<!-- Generator: Adobe Illustrator 20.1.0, SVG Export Plug-In . SVG Version: 6.00 Build 0)  -->
<svg version="1.1" id="Слой_1" xmlns="http://www.w3.org/2000/svg" xmlns:xlink="http://www.w3.org/1999/xlink" x="0px" y="0px"
	 viewBox="0 0 113 79.4" style="enable-background:new 0 0 113 79.4;" xml:space="preserve">
<style type="text/css">
	.st0{fill:#FFFFFF;}
	.st1{fill:#FFD034;}
</style>
<path class="st0" d="M12.7,2.1c29.1,0,58.2,0,87.4,0c0,22.6,0,45.2,0,67.7c-29.2,0-58.1,0-87.3,0c0-0.7-0.1-1.3-0.1-1.9 M58.2,35.7
	C58.2,35.7,58.2,35.7,58.2,35.7c0,9.3,0,18.6,0,27.9c0,1.1-0.2,2.2,1.6,2.2c11.3-0.1,22.6-0.1,33.9,0c1.3,0,1.8-0.5,1.8-1.9
	c0-18.7,0-37.4,0.1-56.1c0-1.3-0.5-1.9-1.8-1.9C82.5,6,71.1,6,59.7,6c-1.1,0-1.6,0.4-1.6,1.6C58.2,16.9,58.2,26.3,58.2,35.7z
	 M53.6,65.7c0.1-0.6,0.1-1,0.1-1.4c0-18.9,0-37.8,0.1-56.7c0-1.8-0.9-1.7-2.1-1.6C40.9,6,30.2,6,19.5,5.9c-2.2,0-2.7,0.6-2.7,2.7
	C17,18.3,17,28,17,37.6c0,8.6,0,17.3-0.1,25.9c0,0.7,0.1,1.4,0.2,2.1C29.3,65.7,41.4,65.7,53.6,65.7z"/>
<path class="st0" d="M5.4,79.4c-0.5-4,0.1-4.7,3.9-4.7c31.3,0,62.5,0,93.8-0.1c3.4,0,4.7,1.4,4.5,4.8C73.6,79.4,39.5,79.4,5.4,79.4z
	"/>
<path class="st0" d="M63.9,20.8c3.7,3.3,7.1,6.3,10.5,9.3c4.5,4,9.2,7.9,13.6,11.9c0.9,0.8,1.6,2.3,1.7,3.5
	c0.2,3.7,0.1,7.5,0.1,11.8c-1.4-1.2-2.5-2-3.6-2.9c-5.2-4.6-10.5-9.2-15.7-13.8c-2-1.8-4-3.6-5.9-5.5c-0.5-0.5-0.7-1.5-0.7-2.2
	C63.9,29,63.9,25.1,63.9,20.8z"/>
<path class="st0" d="M64.1,11.1c2.2-0.6,3.6,0.3,5,1.6c4.8,4.4,9.8,8.6,14.7,12.9c1.7,1.5,3.7,2.8,4.8,4.6c1,1.7,1,4,1.5,6
	c-0.3,0.1-0.5,0.2-0.8,0.3c-2.2-1.9-4.5-3.8-6.7-5.7c-5.8-5.2-11.5-10.4-17.3-15.6C64,14.1,63.7,12.8,64.1,11.1z"/>
<path class="st0" d="M22.2,60.8c0-16.7,0-33.3,0-50.1c8.7,0,17.4,0,26.3,0c0,16.8,0,33.4,0,50.1C39.7,60.8,31.1,60.8,22.2,60.8z
	 M26.6,25.7c0,4.7,0,9,0,13.3c0,0.4,0.3,1,0.7,1.3c1,1,2.2,1.8,3.2,2.7c3.7,3.2,7.4,6.4,11.2,9.5c0.5,0.4,1.1,0.7,1.7,1.1
	c0.3-0.7,0.7-1.4,0.7-2.1c0.1-3.2,0.1-6.4,0-9.5c0-0.8-0.4-1.7-0.9-2.3c-1.6-1.7-3.4-3.4-5.2-5c-3.2-2.9-6.4-5.7-9.6-8.6
	C28.1,26,27.4,26,26.6,25.7z M27.4,14.7c-0.1,2.5-1,4.2,1,5.9c4.7,4,9.2,8.2,13.9,12.3c0.4,0.3,1.3,0,1.9-0.1
	c-0.3-1.8,0.1-4.2-0.9-5.3c-3.3-3.7-7-7-10.8-10.2C31.2,16.1,29.3,15.6,27.4,14.7z"/>
<polygon class="st1" points="0,71.3 11.7,69.8 11.7,2.1 0,0 "/>
<polygon class="st1" points="113,0.5 101.4,2.1 101.4,69.8 113,71.9 "/>
</svg>
