<?xml version="1.0" encoding="utf-8"?>
<!-- Generator: Adobe Illustrator 20.1.0, SVG Export Plug-In . SVG Version: 6.00 Build 0)  -->
<svg version="1.1" id="Слой_1" xmlns="http://www.w3.org/2000/svg" xmlns:xlink="http://www.w3.org/1999/xlink" x="0px" y="0px"
	 viewBox="0 0 83.9 89.4" style="enable-background:new 0 0 83.9 89.4;" xml:space="preserve">
<style type="text/css">
	.st0{fill:#FFFFFF;}
	.st1{fill:#FFD034;}
</style>
<path class="st0" d="M0,14.9c2.1,0,4-0.1,5.9,0c0.6,0,1.3,0.5,1.6,1c1.3,1.7,2.6,2.8,4.9,2.5c2.1-0.3,4.3-0.2,6.4,0
	c2.1,0.2,3.4-0.9,4.7-2.3c0.5-0.6,1.4-1.1,2.2-1.2c1.7-0.2,3.5-0.1,5.5-0.1c0,24.8,0,49.5,0,74.4c-2.3,0-4.7,0-7,0
	c-1-2.5-2.5-3.5-5.1-3.5c-2.5,0-5,0.2-7.5,0c-2-0.2-2.9,1-4,2.3c-0.5,0.6-1.3,1.2-2.1,1.3c-1.7,0.2-3.5,0.1-5.5,0.1
	C0,64.6,0,39.9,0,14.9z M23.2,80.1c0-18.8,0-37.3,0-55.7c-2,0-3.7,0-5.5,0c0,18.7,0,37.1,0,55.7C19.6,80.1,21.4,80.1,23.2,80.1z
	 M13,80c0-18.7,0-37.2,0-55.7c-1.8,0-3.3,0-5.1,0c0,18.7,0,37.1,0,55.7C9.7,80,11.3,80,13,80z"/>
<path class="st1" d="M36.7,32.7c0-1.3,0-2.3,0-3.6c4.1,0,8.1-0.1,12.2,0c1.9,0.1,2.8-0.6,3.3-2.3c1-3.2,1.4-3.2,4.4-1.9
	c1.9,0.8,4,1.5,5.9,2.1c-8.5,16.3-17,32.6-25.5,49c-0.1,0-0.3-0.1-0.4-0.1c0-6.1-0.2-12.2,0.1-18.3c0.1-1.8,1.4-3.5,2.3-5.2
	c1.8-3.7,3.7-7.3,5.6-11c1.1-2.2,2.2-4.4,3.3-6.5c1-1.9,0.9-2.1-1.3-2.1C43.4,32.7,40.2,32.7,36.7,32.7z"/>
<path class="st0" d="M52,0c-0.5,2.4-0.9,4.4-1.2,6.1c5.3,2.1,10.5,3.7,15.4,6c3.4,1.6,6.5,3.9,9.5,6.2c2.6,2,4.8,4.6,7.1,6.9
	c1.6,1.5,1.5,2.6-0.7,3.4c-0.5,0.2-0.9,0.6-1.3,0.9c-8.1-10.4-18.7-16.4-31.4-18.9c-0.6,2.3-1,4.1-1.5,6.2
	c-3.1-3.4-6.2-6.6-9.7-10.4C43,4.2,47.4,2.2,52,0z"/>
</svg>
