<?xml version="1.0" encoding="utf-8"?>
<!-- Generator: Adobe Illustrator 20.1.0, SVG Export Plug-In . SVG Version: 6.00 Build 0)  -->
<svg version="1.1" id="Слой_1" xmlns="http://www.w3.org/2000/svg" xmlns:xlink="http://www.w3.org/1999/xlink" x="0px" y="0px"
	 viewBox="0 0 85.3 87.6" style="enable-background:new 0 0 85.3 87.6;" xml:space="preserve">
<style type="text/css">
	.st0{fill:#FFFFFF;}
	.st1{fill:#FFD034;}
</style>
<path class="st0" d="M85.2,87.6c-3.1,0-5.9,0-8.6,0c-1.1-1.8-2.2-3.6-3.4-5.2c-0.3-0.5-1.2-0.8-1.8-0.8c-2.7-0.1-5.4-0.3-8,0.1
	c-1.7,0.3-3.2,1.6-4.7,2.4c-0.7,0.3-1.4,0.9-2,0.9c-9.1,0.1-18.2,0.1-27.3,0c-1.2,0-2.6-0.8-3.6-1.7c-1.6-1.4-3.3-1.9-5.4-1.7
	c-1.2,0.1-2.4,0.2-3.5,0c-3.8-0.8-5.5,1.5-6.8,4.5c-0.5,1.2-1.2,1.8-2.6,1.8c-2.3-0.1-4.6,0-7.1,0c0-2.8,0-5.3,0-7.9
	c-0.1-8.8,0-17.6-0.2-26.4c-0.1-2.5,1.1-4,2.6-5.5c1.7-1.6,3.7-2.7,5.2-4.4c1.3-1.5,2.7-1.8,4.5-1.7c1.8,0.1,3.5,0,5.5,0
	c0,4.1,0,8.2,0,12.4c16.5,0,32.8,0,49.3,0c0-4,0-8,0-12.4c2.9,0,5.6-0.2,8.3,0.1c1.1,0.1,2.1,1.4,3.1,2.2c1.4,1.2,2.7,2.4,4.1,3.6
	c1.8,1.6,2.7,3.4,2.7,6.1c-0.2,10.3-0.1,20.6-0.2,30.8C85.2,85.6,85.2,86.4,85.2,87.6z M17.9,72.8c16.5,0,32.8,0,49.3,0
	c0-2.4-0.1-4.7,0-6.9c0.2-2.1-0.6-2.7-2.7-2.7c-14.4,0.1-28.8,0-43.2,0c-0.6,0-1.2,0-1.8,0c-1.1,0.1-1.7,0.5-1.7,1.8
	C18,67.5,17.9,70,17.9,72.8z"/>
<path class="st0" d="M57.5-0.1c0.7,0,1.3,0,1.9,0c2.8,0,2.9,0.1,2.9,2.8c0,14.7,0,29.4,0,44.1c0,3.1,0,3.1-3.1,3.1c-0.5,0-1,0-1.8,0
	C57.5,33.3,57.5,16.7,57.5-0.1z"/>
<path class="st0" d="M27.9,49.9c-1.4,0-2.7,0-4.2,0c0-16.6,0-33.2,0-49.9c1.4,0,2.7,0,4.2,0C27.9,16.6,27.9,33.2,27.9,49.9z"/>
<path class="st0" d="M52.1,50c-6,0-11.6,0-17.2-0.1c-0.5,0-1.5-1-1.5-1.5c0-6.7-1.1-6.5,5.8-6.4c3.5,0,6.9,0,10.4,0
	c1.7,0,2.6,0.5,2.5,2.4C52,46.1,52.1,47.9,52.1,50z"/>
<path class="st1" d="M48.3,16.4c1.9,0,3.5,1.3,3.5,2.9c0,1.5-1.8,3.1-3.5,3.1c-1.7,0-3.7-1.7-3.7-3.1C44.7,17.6,46.4,16.3,48.3,16.4
	z"/>
<path class="st1" d="M48.2,5.5c1.8,0,3.5,1.3,3.6,2.8c0.1,1.4-1.8,3.3-3.5,3.3c-1.6,0-3.6-1.7-3.6-3.2C44.7,6.9,46.5,5.5,48.2,5.5z"
	/>
<path class="st1" d="M48.2,26.3c1.8,0,3.5,1.3,3.6,2.9c0.1,1.6-1.7,3.1-3.6,3.1c-1.8,0-3.5-1.4-3.5-2.9
	C44.7,27.8,46.4,26.4,48.2,26.3z"/>
<path class="st1" d="M37.2,7.8c-2.2,0-3.5-1.1-3.4-3c0-1.6,1.7-3,3.6-2.9c1.8,0.1,3.1,1.3,3.1,3C40.5,6.8,39.3,7.8,37.2,7.8z"/>
<path class="st1" d="M37.2,23.8c-2.2,0-3.5-1.1-3.4-3c0-1.5,1.6-2.9,3.4-2.9c1.9,0,3.3,1.3,3.3,3C40.5,22.8,39.3,23.9,37.2,23.8z"/>
<path class="st1" d="M38.5,37c-2.1,0-3.2-1.1-3.2-3c0-1.8,1.2-2.9,3.1-2.9c1.9,0,3.1,1.1,3.1,2.9C41.7,36,40.6,37,38.5,37z"/>
</svg>
