<?xml version="1.0" encoding="utf-8"?>
<!-- Generator: Adobe Illustrator 20.1.0, SVG Export Plug-In . SVG Version: 6.00 Build 0)  -->
<svg version="1.1" id="Слой_1" xmlns="http://www.w3.org/2000/svg" xmlns:xlink="http://www.w3.org/1999/xlink" x="0px" y="0px"
	 viewBox="-319.4 305.6 90.9 99.7" style="enable-background:new -319.4 305.6 90.9 99.7;" xml:space="preserve">
<style type="text/css">
	.st0{fill:#FFFFFF;}
	.st1{fill:#FFD034;}
</style>
<g>
	<g>
		<path class="st0" d="M-280.1,367.7h-13.4c-2.4,0-4.4-2-4.4-4.4c0-2.4,2-4.4,4.4-4.4h13.4c2.4,0,4.4,2,4.4,4.4
			C-275.7,365.7-277.7,367.7-280.1,367.7L-280.1,367.7z"/>
		<path class="st0" d="M-280.1,378.4h-15.4c-2.4,0-4.4-2-4.4-4.4c0-2.4,2-4.4,4.4-4.4h15.4c2.4,0,4.4,2,4.4,4.4
			C-275.7,376.4-277.7,378.4-280.1,378.4L-280.1,378.4z"/>
		<path class="st0" d="M-280.1,389.1h-9.4c-2.4,0-4.4-2-4.4-4.4c0-2.4,2-4.4,4.4-4.4h9.4c2.4,0,4.4,2,4.4,4.4
			C-275.7,387.2-277.7,389.1-280.1,389.1L-280.1,389.1z"/>
		<path class="st0" d="M-250.8,358l-9.4-10.6c-0.5-0.5-1-0.9-1.6-1.1c-13.6-5.3-13.6-5.3-15.4-4.1l-11.2,7.2c-2,1.3-2.6,3.9-1.3,5.9
			c1.3,2,3.9,2.6,5.9,1.3l6.8-4.4c1.2,6.7,4.2,17.4,11.1,21.1c8.5,4.6,13.7,2.4,13.7,2.4v2.4c0,0-5.5,1.1-10.6-0.6
			c-6.3-2.2-10.9-7.1-10.9-7.1v18.7h12.3c0,0,3.6-0.2,6.3-1.7c2.4-1.3,3.8-4.3,3.8-4.3h22.7V358L-250.8,358L-250.8,358z"/>
	</g>
	<g>
		<path class="st0" d="M-241.5,326.8l1.6-0.3l-9.8,10.8l4.6,4.4l16.3-18l-16.3-18l-4.6,4.4l9.8,10.8l-1.6-0.3h-26.9v6.3
			L-241.5,326.8L-241.5,326.8z"/>
	</g>
	<path class="st1" d="M-280.1,338.2c-0.3-8.1-6.9-14.5-15.1-14.5h-15.5v-16h-8.7v97.1h8.7v-72.4h15.5c3.4,0,6.1,2.6,6.3,6v8.4
		l8.8-5.7L-280.1,338.2L-280.1,338.2L-280.1,338.2z"/>
	<path class="st1" d="M-288.8,391.2v9.8c0,2.4,2,4.4,4.4,4.4c2.4,0,4.4-2,4.4-4.4v-9.8H-288.8z"/>
</g>
</svg>
