<?xml version="1.0" encoding="utf-8"?>
<!-- Generator: Adobe Illustrator 20.1.0, SVG Export Plug-In . SVG Version: 6.00 Build 0)  -->
<svg version="1.1" id="Слой_1" xmlns="http://www.w3.org/2000/svg" xmlns:xlink="http://www.w3.org/1999/xlink" x="0px" y="0px"
	 viewBox="0 0 62.2 77.1" style="enable-background:new 0 0 62.2 77.1;" xml:space="preserve">
<style type="text/css">
	.st0{fill:#FFFFFF;}
	.st1{fill:none;stroke:#FFD034;stroke-width:0.2;}
</style>
<path class="st0" d="M8.2,0c29.1,0,17.2,0,46.4,0c0,22.6,0,45.2,0,67.7c-29.2,0-17.2,0-46.3,0c0-0.7-0.1-1.3-0.1-1.9 M12.7,33.6
	C12.7,33.6,12.7,33.6,12.7,33.6c0,9.3,0,18.6,0,27.9c0,1.1-0.2,2.2,1.6,2.2c11.3-0.1,22.6-0.1,33.9,0c1.3,0,1.8-0.5,1.8-1.9
	c0-18.7,0-37.4,0.1-56.1c0-1.3-0.5-1.9-1.8-1.9c-11.4,0-22.8,0-34.1,0c-1.1,0-1.6,0.4-1.6,1.6C12.7,14.8,12.7,24.2,12.7,33.6z"/>
<path class="st0" d="M0.1,77.1c-0.5-4,1.6-6.6,5.4-6.6c31.3,0,20.9,0,52.2,0c3.4,0,4.8,3.2,4.5,6.6C28.1,77.1,34.2,77.1,0.1,77.1z"
	/>
<line class="st1" x1="50.1" y1="6.8" x2="12.7" y2="6.8"/>
<line class="st1" x1="50.1" y1="9.1" x2="12.7" y2="9.1"/>
<line class="st1" x1="47.6" y1="3.7" x2="47.6" y2="63.8"/>
<line class="st1" x1="44.7" y1="3.7" x2="44.7" y2="63.8"/>
<line class="st1" x1="50.1" y1="11.5" x2="12.7" y2="11.5"/>
<line class="st1" x1="50.1" y1="13.9" x2="12.7" y2="13.9"/>
<line class="st1" x1="50.1" y1="16.2" x2="12.7" y2="16.2"/>
<line class="st1" x1="50.1" y1="18.6" x2="12.7" y2="18.6"/>
<line class="st1" x1="50.1" y1="20.9" x2="12.7" y2="20.9"/>
<line class="st1" x1="50.1" y1="23.3" x2="12.7" y2="23.3"/>
<line class="st1" x1="50.1" y1="25.7" x2="12.7" y2="25.7"/>
<line class="st1" x1="50.1" y1="28" x2="12.7" y2="28"/>
<line class="st1" x1="50.1" y1="30.4" x2="12.7" y2="30.4"/>
<line class="st1" x1="50.1" y1="32.8" x2="12.7" y2="32.8"/>
<line class="st1" x1="50.1" y1="35.1" x2="12.7" y2="35.1"/>
<line class="st1" x1="50.1" y1="37.5" x2="12.7" y2="37.5"/>
<line class="st1" x1="50.1" y1="39.8" x2="12.7" y2="39.8"/>
<line class="st1" x1="50.1" y1="42.2" x2="12.7" y2="42.2"/>
<line class="st1" x1="50.1" y1="44.6" x2="12.7" y2="44.6"/>
<line class="st1" x1="50.1" y1="46.9" x2="12.7" y2="46.9"/>
<line class="st1" x1="50.1" y1="49.3" x2="12.7" y2="49.3"/>
<line class="st1" x1="50.1" y1="51.7" x2="12.7" y2="51.7"/>
<line class="st1" x1="50.1" y1="54" x2="12.7" y2="54"/>
<line class="st1" x1="50.1" y1="56.4" x2="12.7" y2="56.4"/>
<line class="st1" x1="50.1" y1="58.7" x2="12.7" y2="58.7"/>
<line class="st1" x1="50.1" y1="61.1" x2="12.7" y2="61.1"/>
<line class="st1" x1="41.9" y1="3.7" x2="41.9" y2="63.8"/>
<line class="st1" x1="39" y1="3.7" x2="39" y2="63.8"/>
<line class="st1" x1="36.1" y1="3.7" x2="36.1" y2="63.8"/>
<line class="st1" x1="33.2" y1="3.7" x2="33.2" y2="63.8"/>
<line class="st1" x1="30.4" y1="3.7" x2="30.4" y2="63.8"/>
<line class="st1" x1="27.5" y1="3.7" x2="27.5" y2="63.8"/>
<line class="st1" x1="24.6" y1="3.7" x2="24.6" y2="63.8"/>
<line class="st1" x1="21.7" y1="3.7" x2="21.7" y2="63.8"/>
<line class="st1" x1="18.8" y1="3.7" x2="18.8" y2="63.8"/>
<line class="st1" x1="16" y1="3.7" x2="16" y2="63.8"/>
</svg>
