<?xml version="1.0" encoding="utf-8"?>
<!-- Generator: Adobe Illustrator 18.0.0, SVG Export Plug-In . SVG Version: 6.00 Build 0)  -->
<!DOCTYPE svg PUBLIC "-//W3C//DTD SVG 1.1//EN" "http://www.w3.org/Graphics/SVG/1.1/DTD/svg11.dtd">
<svg version="1.1" id="Layer_1" xmlns="http://www.w3.org/2000/svg" xmlns:xlink="http://www.w3.org/1999/xlink" x="0px" y="0px"
	 viewBox="0 0 111.2 73.3" enable-background="new 0 0 111.2 73.3" xml:space="preserve">
<g>
	<defs>
		<rect id="SVGID_1_" y="0" width="111.2" height="73.3"/>
	</defs>
	<clipPath id="SVGID_2_">
		<use xlink:href="#SVGID_1_"  overflow="visible"/>
	</clipPath>
	<path clip-path="url(#SVGID_2_)" fill="#FFD034" d="M78.8,5.9c-0.5,2.4-0.9,4.4-1.2,6.1c5.3,2.1,10.5,3.7,15.4,6
		c3.4,1.6,6.5,3.9,9.5,6.2c2.6,2,4.8,4.6,7.1,6.9c1.6,1.5,1.5,2.6-0.7,3.4c-0.5,0.2-0.9,0.6-1.3,0.9C99.5,25.1,89,19.1,76.3,16.5
		c-0.6,2.3-1,4.1-1.5,6.2c-3.1-3.4-6.2-6.6-9.7-10.4C69.8,10.2,74.2,8.1,78.8,5.9"/>
	<path clip-path="url(#SVGID_2_)" fill="none" stroke="#FFD034" stroke-miterlimit="10" d="M78.8,5.9c-0.5,2.4-0.9,4.4-1.2,6.1
		c5.3,2.1,10.5,3.7,15.4,6c3.4,1.6,6.5,3.9,9.5,6.2c2.6,2,4.8,4.6,7.1,6.9c1.6,1.5,1.5,2.6-0.7,3.4c-0.5,0.2-0.9,0.6-1.3,0.9
		C99.5,25.1,89,19.1,76.3,16.5c-0.6,2.3-1,4.1-1.5,6.2c-3.1-3.4-6.2-6.6-9.7-10.4C69.8,10.2,74.2,8.1,78.8,5.9z"/>
	<path clip-path="url(#SVGID_2_)" fill="#FFFFFF" d="M37.6,0h23.1c0,1.8,0.3,3.5-0.1,5.1c-0.3,1.2-1.2,2.4-2.2,3.1
		c-1.8,1.2-2.2,2.6-2.2,4.7c0.2,15.8,0.3,31.6,0.3,47.5c0,1.7,0.3,3.1,1.9,4.1c3.1,2,4.4,4.8,3.2,8.8h-24c0-1.9-0.2-4,0.1-5.9
		c0.1-0.8,1.4-1.6,2.3-2.2c2-1.3,2.6-3,2.6-5.5c-0.1-15.5-0.1-31.1-0.1-46.6c0-1.4,0.8-3.1-1.4-4.1c-1.1-0.6-1.6-2.4-2.4-3.6
		 M52.1,36.6L52.1,36.6c0-8.1-0.1-16.3,0.1-24.4c0-2.4-1.1-2.5-2.9-2.5c-2-0.1-2.5,0.7-2.5,2.6c0.1,16.2,0.1,32.5,0,48.7
		c0,2.3,1.1,2.3,2.7,2.3c1.7,0,2.7-0.1,2.7-2.3C52,52.8,52.1,44.7,52.1,36.6"/>
	<path clip-path="url(#SVGID_2_)" fill="#FFD034" d="M72.2,67.6l10.4-26.5l8.8,3.8l1.6-3.6l-5-6.4l-13.1-5.6l-3.1,7.2l6.9,2.9
		L66.8,65.3c-0.7,1.5,0,3.3,1.5,3.9C69.8,69.9,71.6,69.2,72.2,67.6"/>
	<path clip-path="url(#SVGID_2_)" fill="none" stroke="#FFD034" stroke-miterlimit="10" d="M72.2,67.6l10.4-26.5l8.8,3.8l1.6-3.6
		l-5-6.4l-13.1-5.6l-3.1,7.2l6.9,2.9L66.8,65.3c-0.7,1.5,0,3.3,1.5,3.9C69.8,69.9,71.6,69.2,72.2,67.6z"/>
	<path clip-path="url(#SVGID_2_)" fill="#FFD034" d="M17.3,49.4c-0.3,0-0.6-0.1-0.8-0.2c-0.7-0.4-16-9-16-20.6V17.8
		c0-0.7,0.4-1.3,1.1-1.6l15.1-5.4c0.4-0.1,0.8-0.1,1.1,0L33,16.2c0.7,0.2,1.1,0.9,1.1,1.6v10.8c0,11.6-15.3,20.2-16,20.6
		C17.8,49.3,17.6,49.4,17.3,49.4 M3.9,19v9.6c0,8.3,10.4,15.3,13.4,17.2c3-1.9,13.4-8.9,13.4-17.2V19l-13.4-4.8L3.9,19z"/>
	<path clip-path="url(#SVGID_2_)" fill="none" stroke="#FFD034" stroke-miterlimit="10" d="M17.3,49.4c-0.3,0-0.6-0.1-0.8-0.2
		c-0.7-0.4-16-9-16-20.6V17.8c0-0.7,0.4-1.3,1.1-1.6l15.1-5.4c0.4-0.1,0.8-0.1,1.1,0L33,16.2c0.7,0.2,1.1,0.9,1.1,1.6v10.8
		c0,11.6-15.3,20.2-16,20.6C17.8,49.3,17.6,49.4,17.3,49.4z M3.9,19v9.6c0,8.3,10.4,15.3,13.4,17.2c3-1.9,13.4-8.9,13.4-17.2V19
		l-13.4-4.8L3.9,19z"/>
</g>
</svg>
