<?xml version="1.0" encoding="utf-8"?>
<!-- Generator: Adobe Illustrator 18.0.0, SVG Export Plug-In . SVG Version: 6.00 Build 0)  -->
<!DOCTYPE svg PUBLIC "-//W3C//DTD SVG 1.1//EN" "http://www.w3.org/Graphics/SVG/1.1/DTD/svg11.dtd">
<svg version="1.1" id="Layer_1" xmlns="http://www.w3.org/2000/svg" xmlns:xlink="http://www.w3.org/1999/xlink" x="0px" y="0px"
	 viewBox="0 0 75 69.6" enable-background="new 0 0 75 69.6" xml:space="preserve">
<g>
	<defs>
		<rect id="SVGID_1_" y="0" width="75" height="69.6"/>
	</defs>
	<clipPath id="SVGID_2_">
		<use xlink:href="#SVGID_1_"  overflow="visible"/>
	</clipPath>
	<path clip-path="url(#SVGID_2_)" fill="#FFFFFF" d="M60,69.6H0V13.4h60V69.6z M47.5,65.9c0.1-0.2,0.2-0.4,0.3-0.5
		c-0.3-0.4-0.7-0.9-1.1-1.2c-5.5-4.9-11-9.8-16.4-14.7c-2.8-2.5-5.5-5-8.3-7.4C17,37.5,11.9,32.9,6.7,28.4c-0.5-0.4-1.1-0.6-1.6-0.9
		c-0.2,0.6-0.5,1.2-0.5,1.8c0,11.4,0,22.8,0,34.1c0,1.8,0.5,2.4,2.4,2.4c10.8-0.1,21.6,0,32.4,0C42.1,65.9,44.8,65.9,47.5,65.9
		 M55.2,45.2V17.5H23.8C34.5,26.9,44.7,35.9,55.2,45.2 M55.3,57.8c0-1.7-0.1-2.8,0-3.8c0.2-1.8-0.4-3.2-1.8-4.4
		c-3.3-2.8-6.6-5.6-9.9-8.4c-2.2-1.9-4.2-4-6.4-6c-5.6-4.9-11.5-9.6-16.7-14.8c-3.1-3.1-6.2-3.4-10.2-2.9c0.3,0.5,0.5,0.9,0.8,1.2
		c4,3.6,8.1,7.1,12.1,10.7c3.3,2.9,6.5,5.9,9.7,8.8c4.5,4,9,7.9,13.6,11.9C49.3,52.5,52.1,54.9,55.3,57.8"/>
	<path clip-path="url(#SVGID_2_)" fill="#FFD034" d="M75,56.4h-9.2c0-0.9,0-1.7,0-2.6c0-14.4-0.1-28.8,0-43.2c0-2.3-1.2-2.1-2.7-2.1
		c-15.3,0-30.6,0-45.9-0.1c-0.7,0-1.3,0-2.2,0V0H75V56.4z"/>
</g>
</svg>
