<?xml version="1.0" encoding="utf-8"?>
<!-- Generator: Adobe Illustrator 18.0.0, SVG Export Plug-In . SVG Version: 6.00 Build 0)  -->
<!DOCTYPE svg PUBLIC "-//W3C//DTD SVG 1.1//EN" "http://www.w3.org/Graphics/SVG/1.1/DTD/svg11.dtd">
<svg version="1.1" id="Layer_1" xmlns="http://www.w3.org/2000/svg" xmlns:xlink="http://www.w3.org/1999/xlink" x="0px" y="0px"
	 viewBox="0 0 92 73.3" enable-background="new 0 0 92 73.3" xml:space="preserve">
<g>
	<defs>
		<rect id="SVGID_1_" y="0" width="92" height="73.3"/>
	</defs>
	<clipPath id="SVGID_2_">
		<use xlink:href="#SVGID_1_"  overflow="visible"/>
	</clipPath>
	<path clip-path="url(#SVGID_2_)" fill="#FFFFFF" d="M37.6,0h23.1c0,1.8,0.3,3.5-0.1,5.1c-0.3,1.2-1.2,2.4-2.2,3.1
		c-1.8,1.2-2.2,2.6-2.2,4.7c0.2,15.8,0.3,31.6,0.3,47.5c0,1.7,0.3,3.1,1.9,4.1c3.1,2,4.4,4.8,3.2,8.8h-24c0-1.9-0.2-4,0.1-5.9
		c0.1-0.8,1.4-1.6,2.3-2.2c2-1.3,2.6-3,2.6-5.5c-0.1-15.5-0.1-31.1-0.1-46.6c0-1.4,0.8-3.1-1.4-4.1c-1.1-0.6-1.6-2.4-2.4-3.6
		 M52.1,36.6L52.1,36.6c0-8.1-0.1-16.3,0.1-24.4c0-2.4-1.1-2.5-2.9-2.5c-2-0.1-2.5,0.7-2.5,2.6c0.1,16.2,0.1,32.5,0,48.7
		c0,2.3,1.1,2.3,2.7,2.3c1.7,0,2.7-0.1,2.7-2.3C52.1,52.8,52.1,44.7,52.1,36.6"/>
	<path clip-path="url(#SVGID_2_)" fill="#FFD034" d="M75,58.3c1.5-1.3,2.6-2.2,3.7-3.1c1.2-0.9,1.3-1.8,0.1-2.8
		c-3.2-2.7-6.4-5.5-9.6-8.3c-0.6-0.5-1.3-1.3-1.4-2.1c-0.1-3.7-0.1-7.5-0.1-11.7c6.7,5.8,13.1,11.4,19.5,17.1c1.6-1.3,3-2.5,4.7-3.9
		v14.8H75z"/>
	<path clip-path="url(#SVGID_2_)" fill="#FFD034" d="M88.5,11.4c0,4,0.3,7.5-0.1,11c-0.2,1.4-1.7,2.8-2.8,3.9c-1.8,1.7-4,3-5.8,4.8
		c-1.3,1.4-2.2,1-3.3,0c-1.3-1.2-2.6-2.3-4-3.4c-1-0.9-1-1.8,0-2.7c3.9-3.4,7.7-6.8,11.6-10.2C85.4,13.8,86.9,12.7,88.5,11.4"/>
	<path clip-path="url(#SVGID_2_)" fill="#FFD034" d="M16.8,30.5c-1.7,0-3.3-1.5-3.3-3c0-1.4,1.8-2.8,3.4-2.7c1.8,0.1,2.8,1,2.8,2.9
		C19.8,29.3,18.6,30.5,16.8,30.5"/>
	<path clip-path="url(#SVGID_2_)" fill="#FFD034" d="M3.1,50.5c1.8,0,2.9,1.1,2.9,3c0,1.8-1.3,2.8-3.2,2.7c-1.7-0.1-2.9-1.3-2.9-3
		C0.1,51.5,1.2,50.4,3.1,50.5"/>
	<path clip-path="url(#SVGID_2_)" fill="#FFD034" d="M8.2,18.9c0,1.7-1.3,2.7-3.1,2.7c-1.2,0-3.9-2.2-3.4-2.7c1-1.2,2.3-2.4,3.7-2.9
		C6.8,15.5,8.3,17.2,8.2,18.9"/>
	<path clip-path="url(#SVGID_2_)" fill="#FFD034" d="M8.2,36.1c0,2.2-1.4,3.8-3.1,3.3c-1.3-0.4-2.6-1.6-3.4-2.8
		C1.1,35.7,3.6,34,5.2,34C7,34,8.2,34.6,8.2,36.1"/>
	<path clip-path="url(#SVGID_2_)" fill="#FFD034" d="M35.4,37.1c0.5,2.3-1.7,2-3,2.3c-1.5,0.4-2.9-1.2-3-2.8c-0.1-2.2,1.3-2.5,3-2.5
		C34.6,34,35.4,34.7,35.4,37.1"/>
	<path clip-path="url(#SVGID_2_)" fill="#FFD034" d="M25.7,13.2c-1.9,0-3.3-1.2-3.2-2.9c0.1-1.7,1.2-2.5,2.9-2.5
		c1.8,0,3.3,1.2,3.3,2.6C28.6,11.8,27.2,13.2,25.7,13.2"/>
	<path clip-path="url(#SVGID_2_)" fill="#FFD034" d="M24.8,61.7c0,2.1-1,3.1-2.9,3c-1.8-0.1-2.9-1.2-2.9-2.9c0.1-1.9,1-2.7,3-2.6
		C23.9,59.3,24.9,60,24.8,61.7"/>
	<path clip-path="url(#SVGID_2_)" fill="#FFD034" d="M24.7,45.4c0.1,2-0.9,2.9-2.8,2.9c-1.8,0-2.8-1-2.8-2.9c0-1.7,1.2-3,2.9-2.8
		C23.7,42.6,24.8,43.5,24.7,45.4"/>
</g>
</svg>
