<?xml version="1.0" encoding="utf-8"?>
<!-- Generator: Adobe Illustrator 18.0.0, SVG Export Plug-In . SVG Version: 6.00 Build 0)  -->
<!DOCTYPE svg PUBLIC "-//W3C//DTD SVG 1.1//EN" "http://www.w3.org/Graphics/SVG/1.1/DTD/svg11.dtd">
<svg version="1.1" id="Layer_1" xmlns="http://www.w3.org/2000/svg" xmlns:xlink="http://www.w3.org/1999/xlink" x="0px" y="0px"
	 viewBox="0 0 84.3 73.3" enable-background="new 0 0 84.3 73.3" xml:space="preserve">
<g>
	<defs>
		<rect id="SVGID_1_" y="0" width="84.3" height="73.3"/>
	</defs>
	<clipPath id="SVGID_2_">
		<use xlink:href="#SVGID_1_"  overflow="visible"/>
	</clipPath>
	<path clip-path="url(#SVGID_2_)" fill="#FFFFFF" d="M60,0h23.1c0,1.8,0.3,3.5-0.1,5.1c-0.3,1.2-1.2,2.4-2.2,3.1
		c-1.8,1.2-2.2,2.6-2.2,4.7c0.2,15.8,0.3,31.6,0.3,47.5c0,1.7,0.3,3.1,1.9,4.1c3.1,2,4.4,4.8,3.2,8.8h-24c0-1.9-0.2-4,0.1-5.9
		c0.1-0.8,1.4-1.6,2.3-2.2c2-1.3,2.6-3,2.6-5.5c-0.1-15.5-0.1-31.1-0.1-46.6c0-1.4,0.8-3.1-1.4-4.1c-1.1-0.6-1.6-2.4-2.4-3.6
		 M74.5,36.6L74.5,36.6c0-8.1-0.1-16.3,0.1-24.4c0-2.4-1.1-2.5-2.9-2.5c-2-0.1-2.5,0.7-2.5,2.6c0.1,16.2,0.1,32.5,0,48.7
		c0,2.3,1.1,2.3,2.7,2.3c1.7,0,2.7-0.1,2.7-2.3C74.5,52.8,74.5,44.7,74.5,36.6"/>
	<path clip-path="url(#SVGID_2_)" fill="#FFD034" d="M46.9,35.7l7.3-7.3c0.4-0.4,0.4-1,0-1.4c-0.4-0.4-1-0.4-1.4,0l-7.3,7.3L38.2,27
		c-0.4-0.4-1-0.4-1.4,0c-0.4,0.4-0.4,1,0,1.4l7.3,7.3L36.8,43c-0.4,0.4-0.4,1,0,1.4c0.2,0.2,0.4,0.3,0.7,0.3s0.5-0.1,0.7-0.3
		l7.3-7.3l7.3,7.3c0.2,0.2,0.5,0.3,0.7,0.3s0.5-0.1,0.7-0.3c0.4-0.4,0.4-1,0-1.4L46.9,35.7z"/>
	<path clip-path="url(#SVGID_2_)" fill="none" stroke="#FFD034" stroke-miterlimit="10" d="M46.9,35.7l7.3-7.3c0.4-0.4,0.4-1,0-1.4
		c-0.4-0.4-1-0.4-1.4,0l-7.3,7.3L38.2,27c-0.4-0.4-1-0.4-1.4,0c-0.4,0.4-0.4,1,0,1.4l7.3,7.3L36.8,43c-0.4,0.4-0.4,1,0,1.4
		c0.2,0.2,0.4,0.3,0.7,0.3s0.5-0.1,0.7-0.3l7.3-7.3l7.3,7.3c0.2,0.2,0.5,0.3,0.7,0.3s0.5-0.1,0.7-0.3c0.4-0.4,0.4-1,0-1.4L46.9,35.7
		z"/>
	<path clip-path="url(#SVGID_2_)" fill="#FFD034" d="M27.4,13.7c-0.5,0-1.1,0.1-1.6,0.4l-0.1,0.1L12.1,25.7H1.5c-0.5,0-1,0.5-1,1v19
		c0,0.3,0.1,0.5,0.3,0.7c0.2,0.2,0.4,0.3,0.7,0.3h10.6l13.5,12.4c0,0,0.1,0.1,0.2,0.1c0.5,0.3,1,0.4,1.6,0.4c1.7,0,3.1-1.4,3.1-3.2
		V16.7C30.5,15.1,29.1,13.7,27.4,13.7 M28.5,56.5c0,0.9-0.9,1.4-1.6,1L13.5,45.3v-4.6c0-0.5-0.5-1-1-1s-1,0.5-1,1v4h-9v-17h9v4
		c0,0.5,0.5,1,1,1s1-0.5,1-1v-4.5l13.4-11.3c0.6-0.3,1.6,0.1,1.6,1V56.5z"/>
	<path clip-path="url(#SVGID_2_)" fill="none" stroke="#FFD034" stroke-miterlimit="10" d="M27.4,13.7c-0.5,0-1.1,0.1-1.6,0.4
		l-0.1,0.1L12.1,25.7H1.5c-0.5,0-1,0.5-1,1v19c0,0.3,0.1,0.5,0.3,0.7c0.2,0.2,0.4,0.3,0.7,0.3h10.6l13.5,12.4c0,0,0.1,0.1,0.2,0.1
		c0.5,0.3,1,0.4,1.6,0.4c1.7,0,3.1-1.4,3.1-3.2V16.7C30.5,15.1,29.1,13.7,27.4,13.7z M28.5,56.5c0,0.9-0.9,1.4-1.6,1L13.5,45.3v-4.6
		c0-0.5-0.5-1-1-1s-1,0.5-1,1v4h-9v-17h9v4c0,0.5,0.5,1,1,1s1-0.5,1-1v-4.5l13.4-11.3c0.6-0.3,1.6,0.1,1.6,1V56.5z"/>
</g>
</svg>
