<?xml version="1.0" encoding="utf-8"?>
<!-- Generator: Adobe Illustrator 18.0.0, SVG Export Plug-In . SVG Version: 6.00 Build 0)  -->
<!DOCTYPE svg PUBLIC "-//W3C//DTD SVG 1.1//EN" "http://www.w3.org/Graphics/SVG/1.1/DTD/svg11.dtd">
<svg version="1.1" id="Layer_1" xmlns="http://www.w3.org/2000/svg" xmlns:xlink="http://www.w3.org/1999/xlink" x="0px" y="0px"
	 viewBox="0 0 85.3 87.8" enable-background="new 0 0 85.3 87.8" xml:space="preserve">
<g>
	<defs>
		<rect id="SVGID_1_" y="0" width="85.3" height="87.8"/>
	</defs>
	<clipPath id="SVGID_2_">
		<use xlink:href="#SVGID_1_"  overflow="visible"/>
	</clipPath>
	<path clip-path="url(#SVGID_2_)" fill="#FFFFFF" d="M85.2,87.7h-8.6c-1.1-1.8-2.2-3.6-3.4-5.2c-0.3-0.5-1.2-0.8-1.8-0.8
		c-2.7-0.1-5.4-0.3-8,0.1c-1.7,0.3-3.2,1.6-4.7,2.4c-0.7,0.3-1.4,0.9-2,0.9c-9.1,0.1-18.2,0.1-27.3,0c-1.2,0-2.6-0.8-3.6-1.7
		c-1.6-1.4-3.3-1.9-5.4-1.7c-1.2,0.1-2.4,0.2-3.5,0c-3.8-0.8-5.5,1.5-6.8,4.5c-0.5,1.2-1.2,1.8-2.6,1.8c-2.3-0.1-4.6,0-7.1,0
		c0-2.8,0-5.3,0-7.9c0-8.8,0-17.6-0.2-26.4c-0.1-2.5,1.1-4,2.6-5.5c1.7-1.6,3.7-2.7,5.2-4.4c1.3-1.5,2.7-1.8,4.5-1.7
		c1.8,0.1,3.5,0,5.5,0v12.4h49.3V41.9c2.9,0,5.6-0.2,8.3,0.1c1.1,0.1,2.1,1.4,3.1,2.2c1.4,1.2,2.7,2.4,4.1,3.6
		c1.8,1.6,2.7,3.4,2.7,6.1c-0.2,10.3-0.1,20.6-0.2,30.8C85.2,85.7,85.2,86.6,85.2,87.7 M17.9,72.9h49.3c0-2.4-0.1-4.7,0-6.9
		c0.2-2.1-0.6-2.7-2.7-2.7c-14.4,0.1-28.8,0-43.2,0c-0.6,0-1.2,0-1.8,0c-1.1,0.1-1.7,0.5-1.7,1.8C18,67.6,17.9,70.1,17.9,72.9"/>
	<path clip-path="url(#SVGID_2_)" fill="#FFD034" d="M57.5,0c0.7,0,1.3,0,1.9,0c2.8,0,2.9,0.1,2.9,2.8c0,14.7,0,29.4,0,44.1
		c0,3.1,0,3.1-3.1,3.1c-0.5,0-1,0-1.8,0V0z"/>
	<rect x="23.8" y="0.1" clip-path="url(#SVGID_2_)" fill="#FFD034" width="4.2" height="49.9"/>
	<path clip-path="url(#SVGID_2_)" fill="#FFD034" d="M52.1,50.1c-6,0-11.6,0-17.2-0.1c-0.5,0-1.5-1-1.5-1.5c0-6.7-1.1-6.5,5.8-6.4
		c3.5,0,6.9,0,10.4,0c1.7,0,2.6,0.5,2.5,2.4C52,46.3,52.1,48,52.1,50.1"/>
	<path clip-path="url(#SVGID_2_)" fill="#FFD034" d="M48.3,16.5c1.9,0,3.5,1.3,3.5,2.9c0,1.5-1.8,3.1-3.5,3.1
		c-1.7,0-3.7-1.7-3.7-3.1C44.7,17.8,46.4,16.5,48.3,16.5"/>
	<path clip-path="url(#SVGID_2_)" fill="#FFD034" d="M48.2,5.6c1.8,0,3.5,1.3,3.6,2.8c0.1,1.4-1.8,3.3-3.5,3.3
		c-1.6,0-3.6-1.7-3.6-3.2C44.7,7.1,46.5,5.6,48.2,5.6"/>
	<path clip-path="url(#SVGID_2_)" fill="#FFD034" d="M48.2,26.5c1.8,0,3.5,1.3,3.6,2.9c0.1,1.6-1.7,3.1-3.6,3.1
		c-1.8,0-3.5-1.4-3.5-2.9C44.7,27.9,46.4,26.5,48.2,26.5"/>
	<path clip-path="url(#SVGID_2_)" fill="#FFD034" d="M37.2,7.9c-2.2,0-3.5-1.1-3.4-3c0-1.6,1.7-3,3.6-2.9c1.8,0.1,3.1,1.3,3.1,3
		C40.5,6.9,39.3,7.9,37.2,7.9"/>
	<path clip-path="url(#SVGID_2_)" fill="#FFD034" d="M37.2,23.9c-2.2,0-3.5-1.1-3.4-3c0-1.5,1.6-2.9,3.4-2.9c1.9,0,3.3,1.3,3.3,3
		C40.5,22.9,39.3,24,37.2,23.9"/>
	<path clip-path="url(#SVGID_2_)" fill="#FFD034" d="M38.5,37.2c-2.1,0-3.2-1.1-3.2-3c0-1.8,1.2-2.9,3.1-2.9c1.9,0,3.1,1.1,3.1,2.9
		C41.7,36.1,40.6,37.2,38.5,37.2"/>
</g>
</svg>
