<?xml version="1.0" encoding="utf-8"?>
<!-- Generator: Adobe Illustrator 18.0.0, SVG Export Plug-In . SVG Version: 6.00 Build 0)  -->
<!DOCTYPE svg PUBLIC "-//W3C//DTD SVG 1.1//EN" "http://www.w3.org/Graphics/SVG/1.1/DTD/svg11.dtd">
<svg version="1.1" id="Layer_1" xmlns="http://www.w3.org/2000/svg" xmlns:xlink="http://www.w3.org/1999/xlink" x="0px" y="0px"
	 viewBox="0 0 102.4 77.1" enable-background="new 0 0 102.4 77.1" xml:space="preserve">
<g>
	<defs>
		<rect id="SVGID_1_" y="0" width="102.4" height="77.1"/>
	</defs>
	<clipPath id="SVGID_2_">
		<use xlink:href="#SVGID_1_"  overflow="visible"/>
	</clipPath>
	<path clip-path="url(#SVGID_2_)" fill="#FFFFFF" d="M7.4,0h87.4v67.7H7.5c0-0.7-0.1-1.3-0.1-1.9 M52.8,33.6L52.8,33.6
		c0,9.3,0,18.6,0,27.9c0,1.1-0.2,2.2,1.6,2.2c11.3-0.1,22.6-0.1,33.9,0c1.3,0,1.8-0.5,1.8-1.8c0-18.7,0-37.4,0.1-56.1
		c0-1.3-0.5-1.9-1.8-1.9c-11.4,0-22.8,0-34.1,0c-1.1,0-1.6,0.4-1.6,1.6C52.9,14.8,52.8,24.2,52.8,33.6 M48.2,63.6
		c0.1-0.6,0.1-1,0.1-1.4c0-18.9,0-37.8,0.1-56.7c0-1.8-0.9-1.7-2.1-1.6c-10.7,0-21.4,0.1-32.1,0c-2.2,0-2.7,0.6-2.7,2.7
		c0.1,9.7,0.1,19.3,0.1,29c0,8.6,0,17.3-0.1,25.9c0,0.7,0.1,1.4,0.2,2.1H48.2z"/>
	<path clip-path="url(#SVGID_2_)" fill="#FFFFFF" d="M0.1,77.1c-0.5-4,1.6-6.6,5.4-6.6c31.3,0,61,0,92.3,0c3.4,0,4.8,3.2,4.5,6.6
		H0.1z"/>
	<path clip-path="url(#SVGID_2_)" fill="#FFD034" d="M16.9,8.7h26.3v50.1H16.9V8.7z M21.3,23.7c0,4.7,0,9,0,13.3
		c0,0.4,0.3,1,0.7,1.3c1,1,2.2,1.8,3.2,2.7c3.7,3.2,7.4,6.4,11.2,9.5c0.5,0.4,1.1,0.7,1.7,1.1c0.3-0.7,0.7-1.4,0.7-2.1
		c0.1-3.2,0.1-6.4,0-9.5c0-0.8-0.4-1.7-0.9-2.3c-1.6-1.7-3.4-3.4-5.2-5c-3.2-2.9-6.4-5.7-9.6-8.6C22.7,23.9,22.1,23.9,21.3,23.7
		 M22.1,12.6c-0.1,2.5-1,4.2,1,5.9c4.7,4,9.2,8.2,13.9,12.3c0.4,0.3,1.3,0,1.9-0.1c-0.3-1.8,0.1-4.2-0.9-5.3c-3.3-3.7-7-7-10.8-10.2
		C25.9,14.1,24,13.6,22.1,12.6"/>
	<path clip-path="url(#SVGID_2_)" fill="#FFD034" d="M59.3,8.8h26.3v50.1H59.3V8.8z M79.4,24.4c-3.2,2.8-6.5,5.7-9.6,8.6
		c-1.8,1.6-3.5,3.2-5.2,5c-0.5,0.6-0.9,1.5-0.9,2.3c-0.1,3.2-0.1,6.4,0,9.5c0,0.7,0.5,1.4,0.7,2.1c0.6-0.4,1.2-0.7,1.7-1.1
		c3.7-3.2,7.4-6.4,11.2-9.5c1.1-0.9,2.2-1.8,3.2-2.7c0.3-0.3,0.7-0.9,0.7-1.3c0.1-4.3,0-8.7,0-13.3C80.4,24.1,79.8,24.1,79.4,24.4
		 M75.4,15.4c-3.7,3.2-7.5,6.5-10.8,10.2c-1,1.1-0.7,3.5-0.9,5.3c0.7,0,1.6,0.4,1.9,0.1c4.7-4.1,9.1-8.3,13.9-12.3
		c2-1.7,1.1-3.4,1-5.9C78.5,13.7,76.7,14.2,75.4,15.4"/>
</g>
</svg>
