<?xml version="1.0" encoding="utf-8"?>
<!-- Generator: Adobe Illustrator 20.1.0, SVG Export Plug-In . SVG Version: 6.00 Build 0)  -->
<svg version="1.1" id="Слой_1" xmlns="http://www.w3.org/2000/svg" xmlns:xlink="http://www.w3.org/1999/xlink" x="0px" y="0px"
	 viewBox="0 0 48 33.7" style="enable-background:new 0 0 48 33.7;" xml:space="preserve">
<style type="text/css">
	.st0{fill:#FFD034;}
	.st1{fill:#FFFFFF;}
</style>
<path class="st0" d="M5.4,0.9c12.4,0,24.7,0,37.1,0c0,9.6,0,19.2,0,28.8c-12.4,0-24.7,0-37.1,0c0-0.3,0-0.5,0-0.8 M24.7,15.1
	C24.7,15.1,24.7,15.1,24.7,15.1c0,4,0,7.9,0,11.9c0,0.5-0.1,0.9,0.7,0.9c4.8,0,9.6,0,14.4,0c0.6,0,0.8-0.2,0.8-0.8
	c0-7.9,0-15.9,0-23.8c0-0.6-0.2-0.8-0.8-0.8c-4.8,0-9.7,0-14.5,0c-0.5,0-0.7,0.2-0.7,0.7C24.7,7.2,24.7,11.2,24.7,15.1z M22.7,27.9
	c0-0.3,0.1-0.4,0.1-0.6c0-8,0-16.1,0-24.1c0-0.7-0.4-0.7-0.9-0.7c-4.5,0-9.1,0-13.6,0c-0.9,0-1.2,0.3-1.1,1.2
	C7.2,7.8,7.2,11.9,7.2,16c0,3.7,0,7.3,0,11c0,0.3,0,0.6,0.1,0.9C12.5,27.9,17.6,27.9,22.7,27.9z"/>
<path class="st0" d="M2.3,33.7c-0.2-1.7,0-2,1.7-2c13.3,0,26.6,0,39.8,0c1.4,0,2,0.6,1.9,2C31.2,33.7,16.8,33.7,2.3,33.7z"/>
<path class="st1" d="M27.1,8.9c1.6,1.4,3,2.7,4.5,3.9c1.9,1.7,3.9,3.3,5.8,5.1c0.4,0.3,0.7,1,0.7,1.5c0.1,1.6,0,3.2,0,5
	c-0.6-0.5-1.1-0.9-1.5-1.2c-2.2-2-4.4-3.9-6.7-5.9c-0.9-0.8-1.7-1.5-2.5-2.3c-0.2-0.2-0.3-0.6-0.3-0.9C27.1,12.3,27.1,10.7,27.1,8.9
	z"/>
<path class="st1" d="M27.2,4.7c0.9-0.3,1.5,0.1,2.1,0.7c2.1,1.9,4.2,3.7,6.2,5.5c0.7,0.6,1.6,1.2,2.1,2c0.4,0.7,0.4,1.7,0.6,2.5
	c-0.1,0-0.2,0.1-0.3,0.1c-1-0.8-1.9-1.6-2.9-2.4c-2.5-2.2-4.9-4.4-7.3-6.6C27.2,6,27,5.5,27.2,4.7z"/>
<path class="st1" d="M9.4,25.8c0-7.1,0-14.1,0-21.3c3.7,0,7.4,0,11.2,0c0,7.1,0,14.2,0,21.3C16.8,25.8,13.2,25.8,9.4,25.8z
	 M11.3,10.9c0,2,0,3.8,0,5.7c0,0.2,0.1,0.4,0.3,0.6c0.4,0.4,0.9,0.8,1.4,1.2c1.6,1.4,3.2,2.7,4.7,4.1c0.2,0.2,0.5,0.3,0.7,0.5
	c0.1-0.3,0.3-0.6,0.3-0.9c0-1.3,0-2.7,0-4c0-0.3-0.2-0.7-0.4-1c-0.7-0.7-1.4-1.4-2.2-2.1c-1.4-1.2-2.7-2.4-4.1-3.6
	C11.9,11,11.6,11,11.3,10.9z M11.6,6.2c0,1.1-0.4,1.8,0.4,2.5c2,1.7,3.9,3.5,5.9,5.2c0.2,0.1,0.5,0,0.8,0c-0.1-0.8,0-1.8-0.4-2.3
	c-1.4-1.6-3-3-4.6-4.3C13.2,6.9,12.5,6.6,11.6,6.2z"/>
<polygon class="st0" points="0,30.3 5,29.6 5,0.9 0,0 "/>
<polygon class="st0" points="48,0.2 43,0.9 43,29.6 48,30.5 "/>
</svg>
