<?xml version="1.0" encoding="utf-8"?>
<!-- Generator: Adobe Illustrator 20.1.0, SVG Export Plug-In . SVG Version: 6.00 Build 0)  -->
<svg version="1.1" id="Слой_1" xmlns="http://www.w3.org/2000/svg" xmlns:xlink="http://www.w3.org/1999/xlink" x="0px" y="0px"
	 viewBox="0 0 143.7 77.2" style="enable-background:new 0 0 143.7 77.2;" xml:space="preserve">
<style type="text/css">
	.st0{fill:#FFFFFF;}
	.st1{fill:#FFCF44;}
</style>
<path class="st0" d="M5.5,0l0,65.8c0,0.6,0.1,1.3,0.1,1.9h32.6V0H5.5z M36.2,62.3c0,0.4,0,0.7-0.1,1.4H8.8c0-0.7-0.1-1.4-0.1-2.1
	c0-8.6,0-17.3,0-25.9c0-9.7,0-19.3-0.1-29c0-2.1,0.4-2.8,2-2.7c8,0.1,16,0.1,24,0c0.9,0,1.6-0.1,1.6,1.7
	C36.2,24.5,36.2,43.4,36.2,62.3z"/>
<path class="st0" d="M0.1,77.2c-0.4-4,1.2-6.6,4.1-6.6c23.4,0,112.8,0,136.2,0c2.5,0,3.6,3.2,3.4,6.6C118.2,77.2,25.6,77.2,0.1,77.2
	z"/>
<path class="st0" d="M43.9,18.8c2.8,3.3,5.3,6.3,7.9,9.3c3.4,4,6.8,7.9,10.2,11.9c0.7,0.8,1.2,2.3,1.3,3.5c0.2,3.7,0.1,7.5,0.1,11.8
	c-1.1-1.2-1.9-2-2.7-2.9c-3.9-4.6-7.8-9.2-11.7-13.8c-1.5-1.8-3-3.6-4.4-5.5c-0.4-0.5-0.5-1.5-0.5-2.2C43.8,27,43.9,23,43.9,18.8z"
	/>
<path class="st0" d="M44,9c1.6-0.6,2.7,0.3,3.8,1.6c3.6,4.4,7.3,8.6,11,12.9c1.3,1.5,2.8,2.8,3.6,4.6c0.8,1.7,0.8,4,1.1,6
	c-0.2,0.1-0.4,0.2-0.6,0.3c-1.7-1.9-3.4-3.8-5-5.7c-4.3-5.2-8.6-10.4-12.9-15.6C43.9,12.1,43.7,10.8,44,9z"/>
<path class="st0" d="M127.2,18.8c-2.8,3.3-5.3,6.3-7.9,9.3c-3.4,4-6.8,7.9-10.2,11.9c-0.7,0.8-1.2,2.3-1.3,3.5
	c-0.2,3.7-0.1,7.5-0.1,11.8c1.1-1.2,1.9-2,2.7-2.9c3.9-4.6,7.8-9.2,11.7-13.8c1.5-1.8,3-3.6,4.4-5.5c0.4-0.5,0.5-1.5,0.5-2.2
	C127.2,27,127.2,23,127.2,18.8z"/>
<path class="st0" d="M127.1,9c-1.6-0.6-2.7,0.3-3.8,1.6c-3.6,4.4-7.3,8.6-11,12.9c-1.3,1.5-2.8,2.8-3.6,4.6c-0.8,1.7-0.8,4-1.1,6
	c0.2,0.1,0.4,0.2,0.6,0.3c1.7-1.9,3.4-3.8,5-5.7c4.3-5.2,8.6-10.4,12.9-15.6C127.2,12.1,127.4,10.8,127.1,9z"/>
<path class="st1" d="M12.7,58.8c0-16.7,0-33.3,0-50.1c6.5,0,13,0,19.7,0c0,16.8,0,33.4,0,50.1C25.7,58.8,19.3,58.8,12.7,58.8z
	 M15.9,23.7c0,4.7,0,9,0,13.3c0,0.4,0.3,1,0.5,1.3c0.8,1,1.6,1.8,2.4,2.7c2.8,3.2,5.6,6.4,8.4,9.5c0.4,0.4,0.8,0.7,1.3,1.1
	c0.2-0.7,0.5-1.4,0.5-2.1c0.1-3.2,0.1-6.4,0-9.5c0-0.8-0.3-1.7-0.7-2.3c-1.2-1.7-2.5-3.4-3.9-5c-2.4-2.9-4.8-5.7-7.2-8.6
	C17,23.9,16.5,23.9,15.9,23.7z M16.5,12.6c-0.1,2.5-0.7,4.2,0.7,5.9c3.5,4,6.9,8.2,10.4,12.3c0.3,0.3,0.9,0,1.4-0.1
	c-0.2-1.8,0.1-4.2-0.7-5.3c-2.5-3.7-5.3-7-8-10.2C19.3,14.1,18,13.6,16.5,12.6z"/>
<path class="st1" d="M75.1,58.8c0-16.7,0-33.3,0-50.1c6.7,0,13.2,0,19.7,0c0,16.8,0,33.4,0,50.1C88.2,58.8,81.8,58.8,75.1,58.8z
	 M90.2,24.3c-2.4,2.8-4.8,5.7-7.2,8.6c-1.3,1.6-2.6,3.2-3.9,5c-0.4,0.6-0.7,1.5-0.7,2.3c-0.1,3.2-0.1,6.4,0,9.5
	c0,0.7,0.4,1.4,0.5,2.1c0.4-0.4,0.9-0.7,1.3-1.1c2.8-3.2,5.6-6.4,8.4-9.5c0.8-0.9,1.7-1.8,2.4-2.7c0.3-0.3,0.5-0.9,0.5-1.3
	c0-4.3,0-8.7,0-13.3C90.9,23.9,90.5,23.9,90.2,24.3z M87.2,15.2c-2.8,3.2-5.6,6.5-8,10.2c-0.8,1.1-0.5,3.5-0.7,5.3
	c0.5,0,1.2,0.4,1.4,0.1c3.5-4.1,6.8-8.3,10.4-12.3c1.5-1.7,0.8-3.4,0.7-5.9C89.5,13.6,88.1,14.1,87.2,15.2z"/>
<path class="st0" d="M38.2,0v67.8h32.7V0H38.2z M67.5,61.9c0,1.3-0.4,1.9-1.4,1.9c-8.5,0-16.9,0-25.4,0c-1.3,0-1.2-1.1-1.2-2.2
	c0-9.3,0-18.6,0-27.9c0,0,0,0,0,0c0-9.4,0-18.8,0-28.2c0-1.2,0.4-1.6,1.2-1.5c8.5,0,17,0,25.5,0c1,0,1.3,0.5,1.3,1.8
	C67.5,24.5,67.5,43.2,67.5,61.9z"/>
<path class="st0" d="M69.6,0v67.8h32.7V0H69.6z M98.9,61.9c0,1.3-0.4,1.9-1.4,1.9c-8.5,0-16.9,0-25.4,0c-1.3,0-1.2-1.1-1.2-2.2
	c0-9.3,0-18.6,0-27.9c0,0,0,0,0,0c0-9.4,0-18.8,0-28.2c0-1.2,0.4-1.6,1.2-1.5c8.5,0,17,0,25.5,0c1,0,1.3,0.5,1.3,1.8
	C98.9,24.5,98.9,43.2,98.9,61.9z"/>
<path class="st0" d="M101.1,0v67.8h32.7V0H101.1z M130.4,61.9c0,1.3-0.4,1.9-1.4,1.9c-8.5,0-16.9,0-25.4,0c-1.3,0-1.2-1.1-1.2-2.2
	c0-9.3,0-18.6,0-27.9c0,0,0,0,0,0c0-9.4,0-18.8,0-28.2c0-1.2,0.4-1.6,1.2-1.5c8.5,0,17,0,25.5,0c1,0,1.3,0.5,1.3,1.8
	C130.4,24.5,130.4,43.2,130.4,61.9z"/>
</svg>
