<?xml version="1.0" encoding="utf-8"?>
<!-- Generator: Adobe Illustrator 20.1.0, SVG Export Plug-In . SVG Version: 6.00 Build 0)  -->
<svg version="1.1" id="Слой_1" xmlns="http://www.w3.org/2000/svg" xmlns:xlink="http://www.w3.org/1999/xlink" x="0px" y="0px"
	 viewBox="-262.8 243.9 48.1 48.1" style="enable-background:new -262.8 243.9 48.1 48.1;" xml:space="preserve">
<style type="text/css">
	.st0{fill:#FFD034;}
	.st1{fill:#FFFFFF;}
	.st2{fill:none;}
	.st3{fill:none;stroke:#000000;stroke-miterlimit:10;}
</style>
<g transform="translate(0.000000,575.000000) scale(0.100000,-0.100000)">
	<path class="st0" d="M-2304.6,3160.1c-3.7,2.2-9.1,2.5-12.6,0.5c-1.4-0.8-24.2-23.2-24.2-23.2l-4.1,4.1c-4.7,4.7-6.9,5.8-10.9,5
		c-7.3-1.4-10.4-9.9-5.8-15.6l1.5-1.9l-106.7-106.6l-0.1-4.3c-0.1-12.3-4.1-25.6-10.1-33.1l-2-2.5l2.8-2.8l2.9-2.9l3.3,2.5
		c4.1,3,6.9,4.5,12.7,6.4c5.6,1.9,12.9,3,19.2,3.2l4.9,0.1l106.6,106.6l1.9-1.5c5.7-4.5,14.1-1.4,15.6,5.8c0.8,3.8-0.3,6.2-4.6,10.5
		l-3.6,3.6l23.2,23.2l0.9,3.1c1.1,3.6,0.5,7.4-1.3,10.3C-2296.6,3152.9-2302.5,3158.9-2304.6,3160.1z"/>
</g>
<path class="st0" d="M-250.9,278c0,0-0.1-0.1-0.1-0.1c-0.2-0.3-0.4-0.6-0.6-0.8c0,0-0.1-0.1-0.1-0.1c-0.2-0.3-0.4-0.6-0.6-0.9
	c0,0,0-0.1-0.1-0.1c-0.2-0.3-0.3-0.6-0.5-1c0,0,0-0.1-0.1-0.1c-0.2-0.3-0.3-0.6-0.4-1c0,0,0-0.1,0-0.1c-0.1-0.3-0.2-0.6-0.3-1
	c0,0,0-0.1,0-0.1c-0.1-0.3-0.2-0.7-0.3-1c0,0,0-0.1,0-0.1c-0.1-0.3-0.1-0.7-0.2-1c0,0,0-0.1,0-0.1c-0.1-0.3-0.1-0.7-0.1-1
	c0-0.1,0-0.1,0-0.2c0-0.3,0-0.7,0-1V268c0-0.3,0-0.7,0-1c0-0.1,0-0.1,0-0.2c0-0.4,0.1-0.7,0.1-1c0-0.1,0-0.1,0-0.2
	c0.1-0.4,0.1-0.7,0.2-1.1c0-0.1,0-0.2,0-0.2c0.1-0.4,0.2-0.8,0.3-1.1c0-0.1,0.1-0.2,0.1-0.3c0.1-0.4,0.3-0.8,0.5-1.2
	c0.1-0.1,0.1-0.3,0.2-0.4c0.2-0.4,0.4-0.8,0.7-1.3c0.1-0.2,0.2-0.4,0.3-0.5c0.3-0.4,0.6-0.9,0.9-1.3c0.1-0.1,0.2-0.3,0.3-0.4
	l-0.1-0.1l-0.5-0.5l-0.3-0.3l-0.1-0.1l-0.4-0.4l-0.7-0.7l-0.3-0.3l-0.4-0.4l-0.3-0.3l-0.4-0.4l-0.3-0.3l-0.4-0.4l0,0l-0.8-0.8
	l-0.2-0.2l-0.3-0.3l0,0l-0.3-0.3c-0.5,0.6-1,1.2-1.4,1.8c-0.2,0.3-0.4,0.6-0.6,0.9c-0.2,0.3-0.4,0.6-0.6,0.9
	c-0.1,0.2-0.2,0.4-0.3,0.6c-0.2,0.3-0.3,0.5-0.4,0.8c-0.1,0.1-0.2,0.3-0.2,0.4c-0.1,0.2-0.2,0.5-0.3,0.7c-0.1,0.1-0.1,0.3-0.2,0.4
	c-0.1,0.2-0.2,0.4-0.3,0.7c0,0.1-0.1,0.2-0.1,0.3c-0.1,0.2-0.2,0.4-0.2,0.7c0,0.1-0.1,0.2-0.1,0.3c-0.1,0.2-0.2,0.4-0.2,0.7
	c0,0.1-0.1,0.2-0.1,0.3c-0.1,0.2-0.1,0.4-0.2,0.7c0,0.1,0,0.2-0.1,0.2c-0.1,0.2-0.1,0.4-0.2,0.7c0,0.1,0,0.1,0,0.2
	c-0.1,0.2-0.1,0.4-0.1,0.7c0,0.1,0,0.1,0,0.2c0,0.2-0.1,0.4-0.1,0.7c0,0.1,0,0.1,0,0.2c0,0.2-0.1,0.4-0.1,0.7c0,0.1,0,0.2,0,0.2
	c0,0.2,0,0.4,0,0.7c0,0.1,0,0.1,0,0.2c0,0.2,0,0.5,0,0.7c0,0.1,0,0.1,0,0.2c0,0.2,0,0.4,0,0.6v0.1c0,0.1,0,0.2,0,0.2
	c0,0.2,0,0.5,0,0.7c0,0.1,0,0.2,0,0.2c0,0.2,0,0.5,0,0.7c0,0.1,0,0.2,0,0.3c0,0.3,0,0.5,0.1,0.7c0,0.1,0,0.2,0,0.3
	c0,0.2,0.1,0.5,0.1,0.7c0,0.1,0,0.2,0,0.3c0,0.2,0.1,0.5,0.1,0.7c0,0.1,0,0.2,0.1,0.3c0,0.3,0.1,0.5,0.2,0.7c0,0.1,0,0.2,0.1,0.3
	c0.1,0.2,0.1,0.5,0.2,0.7c0,0.1,0.1,0.2,0.1,0.3h0c0.1,0.3,0.2,0.5,0.3,0.8c0,0.1,0.1,0.2,0.1,0.4c0.1,0.3,0.2,0.5,0.3,0.8
	c0,0.1,0.1,0.3,0.2,0.4c0.1,0.3,0.2,0.5,0.4,0.8c0.1,0.1,0.1,0.3,0.2,0.4c0.1,0.3,0.3,0.6,0.5,0.8c0.1,0.2,0.2,0.3,0.3,0.5
	c0.2,0.3,0.4,0.6,0.6,1c0.1,0.2,0.2,0.4,0.4,0.6h0c0.6,0.9,1.3,1.8,2.1,2.6l0,0l0.3-0.3l1.1-1.1l1.4-1.4l0.3-0.3l2.7-2.7
	C-250.6,278.4-250.8,278.2-250.9,278z M-256.5,255C-256.5,255-256.5,255-256.5,255l0.1,0C-256.5,255-256.5,255.1-256.5,255
	C-256.6,255.1-256.5,255-256.5,255z M-257.4,256.3c0.1-0.1,0.1-0.3,0.2-0.4c0,0,0,0,0,0h0c0.4-0.2,0.7-0.4,1.1-0.6l0.4,0.4
	c-0.7,0.4-1.3,0.8-2.1,1.2C-257.6,256.7-257.5,256.5-257.4,256.3z M-258.4,258c0.1-0.2,0.2-0.4,0.3-0.6c0.1-0.1,0.3-0.1,0.4-0.2
	c0.8-0.4,1.6-0.8,2.3-1.2l0.4,0.4c-1,0.6-2,1.2-3.1,1.7c-0.1,0.1-0.3,0.1-0.4,0.2C-258.5,258.2-258.4,258.1-258.4,258z M-259,259.5
	c0.1-0.1,0.1-0.3,0.2-0.4c0-0.1,0.1-0.2,0.2-0.4c0.3-0.1,0.6-0.2,0.9-0.3c1.2-0.5,2.2-1.1,3.1-1.6l0.4,0.4c-0.4,0.2-0.8,0.5-1.1,0.7
	c-0.6,0.3-1.1,0.6-1.7,0.9c-0.2,0.1-0.3,0.1-0.5,0.2c-0.1,0-0.2,0.1-0.2,0.1c-0.1,0-0.2,0.1-0.3,0.1c-0.2,0.1-0.3,0.1-0.5,0.2
	C-258.7,259.4-258.9,259.5-259,259.5C-259,259.5-259,259.5-259,259.5z M-259.5,260.6c0-0.1,0.1-0.3,0.1-0.4c0-0.1,0.1-0.2,0.1-0.3v0
	c0,0,0,0,0,0c0,0,0,0,0,0c0,0,0,0,0,0c0,0,0.1,0,0.1,0c0.8-0.2,1.5-0.5,2.1-0.8c0.7-0.3,1.3-0.6,1.8-0.9c0.3-0.2,0.7-0.4,1-0.6
	l0.5,0.4l0,0c-0.7,0.4-1.4,0.8-2.1,1.2c-0.6,0.3-1.2,0.6-1.9,0.9c-0.2,0.1-0.4,0.1-0.5,0.2c-0.2,0.1-0.4,0.1-0.5,0.2
	c-0.1,0-0.2,0.1-0.3,0.1c-0.1,0-0.2,0-0.3,0.1C-259.2,260.5-259.4,260.6-259.5,260.6L-259.5,260.6z M-259.7,261.3
	c0-0.1,0.1-0.3,0.1-0.4c0.2,0,0.4-0.1,0.6-0.1c0.1,0,0.2,0,0.3-0.1c0.1,0,0.2,0,0.3-0.1c0.2,0,0.4-0.1,0.6-0.2s0.4-0.1,0.6-0.2
	c0.7-0.3,1.4-0.6,2-0.9c0.5-0.3,1-0.6,1.5-0.9c-0.3,0.4-0.5,0.8-0.7,1.2c-0.3,0.2-0.6,0.4-1,0.5c-0.6,0.3-1.3,0.6-2,0.8
	c-0.2,0.1-0.4,0.1-0.5,0.2c-0.1,0-0.2,0.1-0.3,0.1c0,0-0.1,0-0.1,0c0,0-0.1,0-0.1,0c-0.2,0-0.4,0.1-0.6,0.1c-0.2,0-0.4,0.1-0.6,0.1
	l-0.2,0C-259.8,261.5-259.8,261.4-259.7,261.3z M-260.1,262.5c0-0.2,0.1-0.4,0.2-0.6c0.1,0,0.2,0,0.3,0c0.2,0,0.4-0.1,0.6-0.1
	c0.2,0,0.4-0.1,0.6-0.1c0.1,0,0.1,0,0.2,0c0.1,0,0.1,0,0.2,0c0.1,0,0.2-0.1,0.3-0.1c0.2-0.1,0.4-0.1,0.6-0.2
	c0.8-0.2,1.5-0.5,2.1-0.9c0.1-0.1,0.3-0.2,0.4-0.2c-0.2,0.4-0.3,0.7-0.5,1.1c-0.6,0.3-1.2,0.6-1.9,0.8c-0.2,0.1-0.4,0.1-0.6,0.2
	c0,0-0.1,0-0.1,0c0,0-0.1,0-0.1,0c0,0,0,0-0.1,0c-0.1,0-0.2,0-0.3,0.1c-0.4,0.1-0.8,0.1-1.2,0.2c-0.2,0-0.5,0.1-0.7,0.1
	C-260.1,262.6-260.1,262.5-260.1,262.5z M-260.2,263.1C-260.2,263.1-260.2,263-260.2,263.1c0-0.2,0.1-0.2,0.1-0.3
	c0.3,0,0.5-0.1,0.7-0.1c0.4-0.1,0.8-0.1,1.2-0.2c0.1,0,0.2,0,0.3-0.1c0,0,0,0,0.1,0c0,0,0,0,0.1,0c0.1,0,0.1,0,0.2,0
	c0.2,0,0.4-0.1,0.6-0.2c0.6-0.2,1.1-0.4,1.7-0.6c-0.1,0.3-0.3,0.7-0.4,1c0,0,0,0,0,0c-0.3,0.1-0.7,0.3-1.1,0.4
	c-0.8,0.2-1.6,0.4-2.4,0.5c-0.4,0.1-0.8,0.1-1.2,0.1C-260.3,263.4-260.3,263.3-260.2,263.1z M-260.4,264.2c0-0.1,0-0.3,0.1-0.4
	c0.4,0,0.8-0.1,1.3-0.1c0.9-0.1,1.7-0.3,2.5-0.5c0.3-0.1,0.6-0.2,0.9-0.3c-0.1,0.3-0.2,0.7-0.3,1c-0.1,0-0.2,0.1-0.3,0.1
	c-0.8,0.2-1.6,0.4-2.4,0.5c-0.6,0.1-1.2,0.1-1.8,0.1C-260.5,264.4-260.5,264.3-260.4,264.2z M-260.5,264.7c0.6,0,1.2,0,1.8-0.1
	c0.9-0.1,1.7-0.3,2.5-0.5c0,0,0.1,0,0.1,0c-0.1,0.3-0.1,0.6-0.2,0.9c-0.2,0.1-0.4,0.1-0.6,0.1c-0.2,0-0.4,0.1-0.6,0.1
	c-0.2,0-0.4,0-0.6,0.1c-0.8,0.1-1.7,0.1-2.5,0.1h0C-260.6,265.2-260.5,264.9-260.5,264.7z M-260.7,265.9c0-0.1,0-0.2,0-0.3
	c0.9,0,1.7,0,2.6-0.1c0.2,0,0.4-0.1,0.7-0.1c0.2,0,0.4-0.1,0.6-0.1c0.2,0,0.3-0.1,0.5-0.1c0,0.3-0.1,0.6-0.1,0.9
	c-0.1,0-0.3,0.1-0.4,0.1c-0.8,0.1-1.7,0.2-2.6,0.2c-0.5,0-0.9,0-1.3,0C-260.7,266.2-260.7,266-260.7,265.9z M-260.7,266.6
	c0.4,0,0.9,0,1.3,0c0.9,0,1.8,0,2.7-0.2c0.1,0,0.2,0,0.4-0.1c0,0.3,0,0.6-0.1,0.9c-0.2,0-0.4,0-0.5,0.1c-0.2,0-0.4,0-0.7,0
	c-0.2,0-0.5,0-0.7,0c-0.8,0-1.6-0.1-2.4-0.1C-260.7,267-260.7,266.8-260.7,266.6z M-260.8,268c0-0.2,0-0.3,0-0.5
	c0.8,0.1,1.6,0.1,2.4,0.1c0.5,0,0.9,0,1.4-0.1c0.2,0,0.3,0,0.5-0.1c0,0.2,0,0.4,0,0.5c0,0.1,0,0.3,0,0.4c0,0-0.1,0-0.1,0
	c-0.4,0-0.9,0-1.3,0c-0.9,0-1.8-0.1-2.7-0.2c0,0-0.1,0-0.2,0V268z M-260.8,268.4L-260.8,268.4c1,0.1,1.9,0.2,2.8,0.2
	c0.5,0,0.9,0,1.4-0.1c0,0,0.1,0,0.1,0c0,0.3,0,0.6,0,0.9c-0.1,0-0.1,0-0.2,0c-0.9,0-1.8,0-2.6-0.1c-0.5,0-1-0.1-1.5-0.2
	C-260.7,268.9-260.8,268.7-260.8,268.4z M-260.7,269.4c0.5,0,0.9,0.1,1.4,0.1c0.9,0.1,1.8,0.1,2.7,0.1c0.1,0,0.1,0,0.2,0
	c0,0.3,0.1,0.6,0.1,1c-0.1,0-0.2,0-0.3,0c-0.9,0-1.7-0.1-2.5-0.2c-0.5-0.1-1-0.1-1.6-0.2C-260.7,269.9-260.7,269.7-260.7,269.4z
	 M-259.2,270.6c0.8,0.1,1.7,0.2,2.6,0.2c0.1,0,0.2,0,0.3,0c0,0.3,0.1,0.6,0.2,0.9c-0.1,0-0.2,0-0.3,0c-0.8,0-1.6-0.1-2.4-0.2
	c-0.6-0.1-1.2-0.2-1.8-0.3c0-0.3-0.1-0.5-0.1-0.8C-260.1,270.4-259.7,270.5-259.2,270.6z M-260.5,271.4c0.5,0.1,1.1,0.2,1.6,0.2
	c0.8,0.1,1.7,0.2,2.5,0.2c0.1,0,0.2,0,0.3,0c0.1,0.3,0.1,0.6,0.2,1c-0.2,0-0.3,0-0.5,0c-0.2,0-0.4,0-0.6,0c-1.2-0.1-2.3-0.4-3.5-0.6
	C-260.4,271.9-260.5,271.7-260.5,271.4z M-260.2,272.9c0-0.2-0.1-0.3-0.1-0.5c1.1,0.2,2.2,0.4,3.4,0.5c0.2,0,0.4,0,0.6,0
	c0.2,0,0.4,0,0.6,0c0.1,0.3,0.2,0.7,0.3,1c-0.7,0-1.5-0.1-2.2-0.2c-0.8-0.1-1.5-0.3-2.3-0.5c-0.1,0-0.1,0-0.2,0
	C-260.2,273.1-260.2,273-260.2,272.9z M-260,273.8c0-0.1-0.1-0.2-0.1-0.3c0,0,0,0,0,0c0.8,0.1,1.5,0.3,2.3,0.4s1.5,0.2,2.4,0.2
	c0.1,0.3,0.3,0.7,0.4,1h-0.2c-0.2,0-0.4,0-0.6,0c-0.2,0-0.4,0-0.6-0.1c-0.8-0.1-1.5-0.3-2.2-0.4c-0.4-0.1-0.9-0.2-1.4-0.3
	C-259.9,274.2-259.9,274-260,273.8z M-259.5,275.4c-0.1-0.3-0.2-0.5-0.3-0.8c0.4,0.1,0.8,0.2,1.2,0.3c0.7,0.2,1.5,0.3,2.3,0.4
	c0.2,0,0.4,0,0.6,0c0.2,0,0.4,0,0.6,0c0.1,0,0.2,0,0.2,0c0.1,0.3,0.3,0.7,0.5,1c-0.2,0-0.4,0-0.5,0c-0.7,0-1.5-0.1-2.2-0.3
	c-0.8-0.2-1.5-0.4-2.3-0.6C-259.5,275.4-259.5,275.4-259.5,275.4z M-259.2,276.2c0-0.1-0.1-0.3-0.1-0.4c0.7,0.2,1.4,0.3,2.1,0.5
	c0.7,0.1,1.5,0.3,2.3,0.2c0.2,0,0.4,0,0.6,0c0,0,0.1,0,0.1,0c0.2,0.3,0.4,0.7,0.6,1c-0.2,0-0.3,0-0.5,0c-0.2,0-0.4,0-0.5,0
	c-0.2,0-0.4,0-0.5,0c-0.2,0-0.4,0-0.5-0.1c-1.1-0.2-2.1-0.5-3.1-0.8C-259,276.5-259.1,276.3-259.2,276.2z M-256.2,281.4
	C-256.2,281.4-256.2,281.4-256.2,281.4c-0.1-0.1-0.1-0.1-0.1-0.1C-256.2,281.3-256.2,281.3-256.2,281.4L-256.2,281.4z M-255.8,281.1
	c-0.3-0.1-0.5-0.1-0.8-0.2c0,0-0.1-0.1-0.1-0.1c-0.1-0.1-0.2-0.3-0.3-0.4c0,0,0-0.1-0.1-0.1c-0.1-0.2-0.2-0.3-0.3-0.5
	c0.1,0,0.2,0.1,0.3,0.1c0.7,0.2,1.3,0.3,2,0.4L-255.8,281.1z M-254.7,280c0,0-0.1,0-0.1,0c-0.7-0.1-1.4-0.2-2-0.4
	c-0.2-0.1-0.5-0.2-0.7-0.2c0,0,0,0,0-0.1c-0.2-0.3-0.4-0.6-0.5-0.9c0.5,0.1,1,0.3,1.5,0.4c0.4,0.1,0.7,0.2,1.1,0.2
	c0.1,0,0.2,0,0.3,0c0.1,0,0.2,0,0.3,0c0.1,0,0.2,0,0.3,0c0.1,0,0.2,0,0.3,0c0.3,0,0.5,0,0.8-0.1L-254.7,280z M-253.4,278.7
	c-0.4,0.1-0.7,0.1-1,0.1c-1.4,0-2.6-0.4-3.9-0.8c0,0-0.1-0.1-0.1-0.1c-0.1-0.3-0.3-0.5-0.4-0.8c0.9,0.2,1.9,0.5,2.9,0.6
	c0.2,0,0.4,0,0.5,0.1c0.2,0,0.4,0,0.6,0c0.2,0,0.4,0,0.6,0c0.2,0,0.4,0,0.5-0.1c0,0,0,0,0,0c0.2,0.3,0.3,0.5,0.5,0.8L-253.4,278.7z"
	/>
<path class="st1" d="M-222.7,285.9c-4.3,3.8-9.9,6.1-16,6.1c-6.2,0-11.9-2.4-16.2-6.3l0.6-0.6l0.8-0.8l4.3-4.3l0.1-0.1
	c2.8,2.5,6.5,4,10.5,4c3.9,0,7.4-1.4,10.2-3.7l1.4,1.4l2.8,2.8l0,0L-222.7,285.9z"/>
<path class="st1" d="M-214.7,267.3c0-0.4,0-0.7-0.1-1.1c0-0.4-0.1-0.8-0.1-1.2c0-0.3-0.1-0.7-0.2-1c-0.1-0.4-0.1-0.8-0.2-1.1
	c-0.1-0.3-0.1-0.7-0.2-1c-0.1-0.4-0.2-0.8-0.3-1.1c-0.1-0.3-0.2-0.6-0.3-1c-0.1-0.4-0.3-0.7-0.4-1.1c-0.1-0.3-0.3-0.6-0.4-0.9
	c-0.2-0.3-0.3-0.7-0.5-1c-0.1-0.3-0.3-0.6-0.5-0.9c-0.2-0.3-0.4-0.7-0.6-1c-0.2-0.3-0.4-0.6-0.6-0.8c-0.2-0.3-0.5-0.6-0.7-0.9
	c-0.2-0.3-0.4-0.5-0.7-0.8c-0.1-0.2-0.3-0.3-0.4-0.5l-1.4,1.4c0,0,0,0,0,0l-2.8,2.8c0,0,0,0,0,0l-1.4,1.4c0,0,0,0,0,0
	c0.2,0.3,0.4,0.5,0.6,0.8c0.2,0.3,0.5,0.6,0.7,0.9c0.2,0.3,0.4,0.6,0.5,0.9c0.2,0.3,0.4,0.7,0.5,1c0.1,0.3,0.3,0.6,0.4,0.9
	c0.1,0.3,0.3,0.7,0.4,1.1c0.1,0.3,0.2,0.6,0.3,1c0.1,0.4,0.2,0.8,0.3,1.2c0.1,0.3,0.1,0.7,0.2,1c0,0.4,0.1,0.8,0.1,1.2
	c0,0.2,0,0.4,0,0.5c0,0.2,0,0.4,0,0.6c0,0.4,0,0.9-0.1,1.3c0,0.4-0.1,0.8-0.2,1.2c-0.1,0.5-0.2,1-0.4,1.5c-0.1,0.5-0.3,0.9-0.5,1.3
	c-0.2,0.5-0.5,1.1-0.8,1.6c-0.3,0.5-0.6,1-0.9,1.5c-0.4,0.7-1,1.3-1.5,1.9l1.4,1.4l0,0l2.8,2.8l1,1h0l0.4,0.4c1-1.1,2-2.3,2.8-3.6
	c0.3-0.5,0.6-1,0.9-1.5c0.3-0.5,0.6-1.1,0.8-1.6c0.2-0.4,0.4-0.9,0.6-1.4c0.2-0.5,0.4-1,0.5-1.5c0.1-0.4,0.2-0.8,0.3-1.3
	c0.1-0.5,0.2-0.9,0.3-1.4c0.1-0.4,0.1-0.8,0.2-1.2c0.1-0.4,0.1-0.9,0.1-1.3c0-0.4,0.1-0.8,0.1-1.1c0-0.2,0-0.4,0-0.6
	C-214.6,267.7-214.6,267.5-214.7,267.3z M-221,254.8C-221,254.8-221,254.9-221,254.8l-0.2,0.2L-221,254.8z M-223.8,257.6l0.5-0.5
	l3-1.4c0.2,0.3,0.4,0.7,0.6,1l-3.5,1.6C-223.5,258.1-223.6,257.8-223.8,257.6z M-222.8,259.2l3.5-1.6c0.2,0.3,0.4,0.7,0.5,1
	l-3.5,1.6C-222.4,259.9-222.6,259.5-222.8,259.2z M-221.9,261.2l3.5-1.6c0.2,0.3,0.3,0.7,0.4,1.1l-3.5,1.6
	C-221.6,261.9-221.7,261.5-221.9,261.2z M-221.2,263.2l3.5-1.7c0.1,0.4,0.2,0.7,0.3,1.1l-3.6,1.7C-221,263.9-221,263.6-221.2,263.2z
	 M-220.7,265.3l3.6-1.7c0.1,0.4,0.1,0.8,0.2,1.2l-3.7,1.7C-220.6,266.1-220.7,265.7-220.7,265.3z M-220.5,267.6l3.8-1.8
	c0,0.4,0.1,0.8,0.1,1.2l-3.9,1.8c0-0.3,0-0.6,0-0.9C-220.5,267.9-220.5,267.7-220.5,267.6z M-220.9,281c-0.1,0.2-0.3,0.4-0.4,0.5
	c0,0,0,0-0.1,0.1l-1.1-1.1l2.8-1.3C-220,279.8-220.5,280.4-220.9,281z M-218.9,277.7l-4.3,2l-0.9-0.9l5.9-2.8
	C-218.4,276.6-218.6,277.2-218.9,277.7z M-217.7,274.8l-5.4,2.5c0.3-0.5,0.6-1.1,0.9-1.7l4.9-2.3
	C-217.4,273.8-217.5,274.3-217.7,274.8z M-217,272.1l-4.6,2.1c0.2-0.5,0.3-1,0.5-1.5l4.3-2C-216.9,271.2-216.9,271.6-217,272.1z
	 M-220.8,271.5c0.1-0.5,0.2-1,0.2-1.5l4-1.9c0,0.5,0,0.9-0.1,1.4L-220.8,271.5z"/>
<path class="st2" d="M-216.6,268c0,5.1-1.8,9.8-4.7,13.6l-2.8-2.8c2.3-3,3.6-6.8,3.6-10.8c0-3.9-1.2-7.5-3.3-10.4l2.8-2.8
	C-218.3,258.5-216.6,263-216.6,268z"/>
<g>
	<path class="st1" d="M-222.3,250.3l0,0.1L-222.3,250.3C-222.3,250.4-222.3,250.4-222.3,250.3z M-255.2,250.5L-255.2,250.5
		C-255.2,250.5-255.2,250.5-255.2,250.5L-255.2,250.5z"/>
	<path class="st1" d="M-223.3,249.5c-0.1-0.1-0.3-0.2-0.4-0.4c-0.3-0.3-0.6-0.5-1-0.7c-0.2-0.1-0.3-0.2-0.5-0.3
		c-0.3-0.2-0.6-0.5-1-0.6c-0.2-0.1-0.3-0.2-0.5-0.3c-0.3-0.2-0.7-0.4-1-0.6c-0.1-0.1-0.3-0.2-0.5-0.2c-0.3-0.2-0.7-0.3-1-0.5
		c-0.1-0.1-0.3-0.1-0.5-0.2c-0.3-0.1-0.7-0.3-1-0.4c-0.2,0-0.3-0.1-0.5-0.2c-0.3-0.1-0.7-0.2-1.1-0.3c-0.2-0.1-0.3-0.1-0.5-0.1
		c-0.4-0.1-0.7-0.2-1.1-0.3c-0.2,0-0.3-0.1-0.5-0.1c-0.4-0.1-0.7-0.1-1.1-0.2c-0.2,0-0.3,0-0.5-0.1c-0.4,0-0.8-0.1-1.1-0.1
		c-0.2,0-0.3,0-0.5,0c-0.4,0-0.8,0-1.1,0h-0.1c-0.1,0-0.3,0-0.4,0c-0.4,0-0.8,0-1.2,0c-0.2,0-0.4,0-0.5,0c-0.4,0-0.8,0.1-1.2,0.1
		c-0.2,0-0.4,0.1-0.5,0.1c-0.4,0.1-0.8,0.1-1.2,0.2c-0.2,0-0.4,0.1-0.5,0.1c-0.4,0.1-0.8,0.2-1.2,0.3c-0.2,0.1-0.4,0.1-0.6,0.2
		c-0.4,0.1-0.8,0.3-1.3,0.4c-0.2,0.1-0.4,0.1-0.6,0.2c-0.4,0.2-0.9,0.4-1.3,0.6c-0.2,0.1-0.4,0.2-0.6,0.3c-0.4,0.2-0.9,0.5-1.3,0.8
		c-0.2,0.1-0.4,0.3-0.6,0.4c-0.5,0.3-0.9,0.6-1.4,1c-0.2,0.2-0.4,0.3-0.6,0.5c-0.5,0.4-1,0.8-1.5,1.3l0,0.1l1.4,1.4l0,0l0.9,0.9
		l0.4,0.4l0.9,0.9l0.4,0.4l0.3,0.3l0.6,0.6l0.2,0.2h0l0.6,0.6c0.3-0.2,0.5-0.5,0.8-0.7c0.2-0.2,0.4-0.3,0.6-0.5
		c0.4-0.3,0.9-0.6,1.4-0.9c0.2-0.1,0.4-0.2,0.6-0.3c0.4-0.2,0.9-0.4,1.3-0.6c0.2-0.1,0.4-0.2,0.6-0.2c0.4-0.2,0.8-0.3,1.3-0.4
		c0.2,0,0.4-0.1,0.5-0.2c0.4-0.1,0.8-0.2,1.2-0.3c0.2,0,0.4-0.1,0.5-0.1c0.4,0,0.8-0.1,1.2-0.1c0.2,0,0.3,0,0.5,0c0.1,0,0.3,0,0.4,0
		c0.3,0,0.5,0,0.7,0c0.2,0,0.3,0,0.5,0c0.4,0,0.8,0.1,1.1,0.1c0.2,0,0.3,0,0.5,0.1c0.4,0.1,0.7,0.1,1.1,0.2c0.2,0,0.3,0.1,0.5,0.1
		c0.4,0.1,0.7,0.2,1.1,0.4c0.2,0,0.3,0.1,0.5,0.2c0.4,0.1,0.7,0.3,1,0.5c0.1,0.1,0.3,0.1,0.5,0.2c0.3,0.2,0.7,0.4,1,0.6
		c0.2,0.1,0.3,0.2,0.4,0.3c0.3,0.2,0.7,0.5,1,0.7c0.1,0.1,0.3,0.2,0.4,0.3c0.1,0.1,0.2,0.1,0.3,0.2l0.3-0.3l0,0l3-3l0.7-0.7l1.4-1.4
		l0.1-0.1l0-0.1C-222.7,250.1-223,249.8-223.3,249.5z M-252,250.9l0.2-0.7c0.4-0.3,0.9-0.7,1.4-0.9l-0.6,2.5L-252,250.9z
		 M-250.6,252.3l0.8-3.3c0.4-0.3,0.9-0.5,1.3-0.7l-1.2,5L-250.6,252.3z M-249.3,253.6l1.4-5.7c0.4-0.2,0.8-0.4,1.3-0.5l-1.3,5.3
		C-248.4,253-248.8,253.3-249.3,253.6z M-247.3,252.3l1.2-5.2c0.4-0.1,0.8-0.3,1.2-0.4l-1.2,4.9
		C-246.4,251.9-246.9,252.1-247.3,252.3z M-245.4,251.4l1.1-4.8c0.4-0.1,0.8-0.2,1.2-0.3l-1.1,4.6
		C-244.6,251.1-245,251.2-245.4,251.4z M-243.6,250.8l1.1-4.5c0.4-0.1,0.8-0.1,1.2-0.2l-1,4.3C-242.8,250.5-243.2,250.6-243.6,250.8
		z M-241.8,250.3l1-4.3c0.4,0,0.8-0.1,1.2-0.1l-1,4.2C-241,250.2-241.4,250.3-241.8,250.3z M-240.1,250.1l1-4.2c0.1,0,0.3,0,0.4,0
		c0.3,0,0.5,0,0.8,0l-1,4.1C-239.3,250-239.7,250.1-240.1,250.1z M-238.4,250l1-4.1c0.4,0,0.8,0.1,1.1,0.1l-1,4
		C-237.7,250-238,250-238.4,250z M-236.8,250.1l1-4c0.4,0,0.8,0.1,1.1,0.2l-1,4C-236,250.2-236.4,250.1-236.8,250.1z M-235.2,250.3
		l1-3.9c0.4,0.1,0.7,0.2,1.1,0.3l-1,3.9C-234.4,250.5-234.8,250.4-235.2,250.3z M-233.6,250.7l1-3.9c0.4,0.1,0.7,0.2,1.1,0.3l-1,3.9
		C-232.9,250.9-233.2,250.8-233.6,250.7z M-232,251.2l0.9-3.9c0.4,0.1,0.7,0.3,1.1,0.4l-1,3.9C-231.3,251.5-231.7,251.3-232,251.2z
		 M-230.5,251.9l1-4c0.4,0.2,0.7,0.3,1,0.5l-1,4C-229.8,252.2-230.2,252-230.5,251.9z M-228.1,253.3c-0.3-0.2-0.6-0.4-1-0.6l1-4
		c0.3,0.2,0.7,0.4,1,0.6L-228.1,253.3L-228.1,253.3z M-227.4,252.7l0.8-3.1c0.3,0.2,0.7,0.5,1,0.7l-0.2,0.9L-227.4,252.7z"/>
</g>
<g>
	<polygon points="-226.9,281.7 -227.7,280.9 -227.7,280.9 	"/>
</g>
<path class="st2" d="M-250.5,278.5"/>
<path class="st2" d="M-256.3,284.4"/>
<path class="st3" d="M-223.1,260"/>
<path class="st3" d="M-220.2,254.8"/>
<path class="st3" d="M-222.8,261.5"/>
<path class="st3" d="M-219.6,255.7"/>
<path class="st3" d="M-222.1,262.2"/>
<path class="st3" d="M-218.8,256.2"/>
<path class="st3" d="M-220.4,266.9"/>
<path class="st3" d="M-219.5,269"/>
<path class="st3" d="M-218.8,271.9"/>
</svg>
