<?xml version="1.0" encoding="utf-8"?>
<!-- Generator: Adobe Illustrator 20.1.0, SVG Export Plug-In . SVG Version: 6.00 Build 0)  -->
<svg version="1.1" id="Слой_1" xmlns="http://www.w3.org/2000/svg" xmlns:xlink="http://www.w3.org/1999/xlink" x="0px" y="0px"
	 viewBox="0 0 147.4 77.2" style="enable-background:new 0 0 147.4 77.2;" xml:space="preserve">
<style type="text/css">
	.st0{fill:#FFFFFF;}
	.st1{fill:#FFCF44;}
</style>
<path class="st0" d="M7.4,0l0,65.8c0,0.6,0.1,1.3,0.1,1.9h43.6V0H7.4z M48.4,62.3c0,0.4-0.1,0.7-0.1,1.4H11.8
	c-0.1-0.7-0.2-1.4-0.2-2.1c0-8.6,0.1-17.3,0.1-25.9c0-9.7,0-19.3-0.1-29c0-2.1,0.5-2.8,2.7-2.7c10.7,0.1,21.4,0.1,32.1,0
	c1.2,0,2.1-0.1,2.1,1.7C48.4,24.5,48.4,43.4,48.4,62.3z"/>
<path class="st0" d="M0.1,77.2c-0.5-4,1.6-6.6,5.4-6.6c31.3,0,106,0,137.3,0c3.4,0,4.8,3.2,4.5,6.6C113.3,77.2,34.2,77.2,0.1,77.2z"
	/>
<path class="st0" d="M58.6,18.8c3.7,3.3,7.1,6.3,10.5,9.3c4.5,4,9.2,7.9,13.6,11.9c0.9,0.8,1.6,2.3,1.7,3.5
	c0.2,3.7,0.1,7.5,0.1,11.8c-1.4-1.2-2.5-2-3.6-2.9c-5.2-4.6-10.5-9.2-15.7-13.8c-2-1.8-4-3.6-5.9-5.5c-0.5-0.5-0.7-1.5-0.7-2.2
	C58.6,27,58.6,23,58.6,18.8z"/>
<path class="st0" d="M58.8,9c2.2-0.6,3.6,0.3,5,1.6c4.8,4.4,9.8,8.6,14.7,12.9c1.7,1.5,3.7,2.8,4.8,4.6c1,1.7,1,4,1.5,6
	c-0.3,0.1-0.5,0.2-0.8,0.3c-2.2-1.9-4.5-3.8-6.7-5.7C71.6,23.6,65.8,18.4,60,13.3C58.7,12.1,58.4,10.8,58.8,9z"/>
<path class="st1" d="M16.9,58.8c0-16.7,0-33.3,0-50.1c8.7,0,17.4,0,26.3,0c0,16.8,0,33.4,0,50.1C34.3,58.8,25.7,58.8,16.9,58.8z
	 M21.3,23.7c0,4.7,0,9,0,13.3c0,0.4,0.3,1,0.7,1.3c1,1,2.2,1.8,3.2,2.7c3.7,3.2,7.4,6.4,11.2,9.5c0.5,0.4,1.1,0.7,1.7,1.1
	c0.3-0.7,0.7-1.4,0.7-2.1c0.1-3.2,0.1-6.4,0-9.5c0-0.8-0.4-1.7-0.9-2.3c-1.6-1.7-3.4-3.4-5.2-5c-3.2-2.9-6.4-5.7-9.6-8.6
	C22.7,23.9,22.1,23.9,21.3,23.7z M22.1,12.6c-0.1,2.5-1,4.2,1,5.9c4.7,4,9.2,8.2,13.9,12.3c0.4,0.3,1.3,0,1.9-0.1
	c-0.3-1.8,0.1-4.2-0.9-5.3c-3.3-3.7-7-7-10.8-10.2C25.9,14.1,24,13.6,22.1,12.6z"/>
<path class="st1" d="M100.4,58.8c0-16.7,0-33.3,0-50.1c9,0,17.6,0,26.3,0c0,16.8,0,33.4,0,50.1C117.9,58.8,109.3,58.8,100.4,58.8z
	 M120.5,24.3c-3.2,2.8-6.5,5.7-9.6,8.6c-1.8,1.6-3.5,3.2-5.2,5c-0.5,0.6-0.9,1.5-0.9,2.3c-0.1,3.2-0.1,6.4,0,9.5
	c0,0.7,0.5,1.4,0.7,2.1c0.6-0.4,1.2-0.7,1.7-1.1c3.7-3.2,7.4-6.4,11.2-9.5c1.1-0.9,2.2-1.8,3.2-2.7c0.3-0.3,0.7-0.9,0.7-1.3
	c0.1-4.3,0-8.7,0-13.3C121.5,23.9,120.9,23.9,120.5,24.3z M116.5,15.2c-3.7,3.2-7.5,6.5-10.8,10.2c-1,1.1-0.7,3.5-0.9,5.3
	c0.7,0,1.6,0.4,1.9,0.1c4.7-4.1,9.1-8.3,13.9-12.3c2-1.7,1.1-3.4,1-5.9C119.6,13.6,117.8,14.1,116.5,15.2z"/>
<path class="st0" d="M51.1,0v67.8h43.7V0H51.1z M90.2,61.9c0,1.3-0.5,1.9-1.8,1.9c-11.3,0-22.6,0-33.9,0c-1.8,0-1.6-1.1-1.6-2.2
	c0-9.3,0-18.6,0-27.9c0,0,0,0,0,0c0-9.4,0-18.8,0-28.2c0-1.2,0.5-1.6,1.6-1.5c11.4,0,22.7,0,34.1,0c1.3,0,1.8,0.5,1.8,1.8
	C90.2,24.5,90.2,43.2,90.2,61.9z"/>
<path class="st0" d="M93.1,0v67.8h43.7V0H93.1z M132.2,61.9c0,1.3-0.5,1.9-1.8,1.9c-11.3,0-22.6,0-33.9,0c-1.8,0-1.6-1.1-1.6-2.2
	c0-9.3,0-18.6,0-27.9c0,0,0,0,0,0c0-9.4,0-18.8,0-28.2c0-1.2,0.5-1.6,1.6-1.5c11.4,0,22.8,0,34.1,0c1.3,0,1.8,0.5,1.8,1.8
	C132.2,24.5,132.2,43.2,132.2,61.9z"/>
</svg>
