<?xml version="1.0" encoding="utf-8"?>
<!-- Generator: Adobe Illustrator 20.1.0, SVG Export Plug-In . SVG Version: 6.00 Build 0)  -->
<svg version="1.1" id="Слой_1" xmlns="http://www.w3.org/2000/svg" xmlns:xlink="http://www.w3.org/1999/xlink" x="0px" y="0px"
	 viewBox="0 0 105.6 122.2" style="enable-background:new 0 0 105.6 122.2;" xml:space="preserve">
<style type="text/css">
	.st0{fill:#FFCF44;}
	.st1{fill:#FFFFFF;}
</style>
<path class="st0" d="M61.2,58.8c0-16.7,0-33.3,0-50.1c8.7,0,17.4,0,26.3,0c0,16.8,0,33.4,0,50.1C78.7,58.8,70.1,58.8,61.2,58.8z
	 M65.6,23.7c0,4.7,0,9,0,13.3c0,0.4,0.3,1,0.7,1.3c1,1,2.2,1.8,3.2,2.7c3.7,3.2,7.4,6.4,11.2,9.5c0.5,0.4,1.1,0.7,1.7,1.1
	c0.3-0.7,0.7-1.4,0.7-2.1c0.1-3.2,0.1-6.4,0-9.5c0-0.8-0.4-1.7-0.9-2.3c-1.6-1.7-3.4-3.4-5.2-5c-3.2-2.9-6.4-5.7-9.6-8.6
	C67.1,24,66.4,23.9,65.6,23.7z M66.4,12.6c-0.1,2.5-1,4.2,1,5.9c4.7,4,9.2,8.2,13.9,12.3c0.4,0.3,1.3,0,1.9-0.1
	c-0.3-1.8,0.1-4.2-0.9-5.3c-3.3-3.7-7-7-10.8-10.2C70.2,14.1,68.3,13.6,66.4,12.6z"/>
<path class="st1" d="M51.5,0c29.1,0,17.2,0,46.4,0c0,22.6,0,45.2,0,67.7c-29.2,0-17.2,0-46.3,0c0-0.7-0.1-1.3-0.1-1.9 M56,33.6
	C56,33.6,56,33.6,56,33.6c0,9.3,0,18.6,0,27.9c0,1.1-0.2,2.2,1.6,2.2c11.3-0.1,22.6-0.1,33.9,0c1.3,0,1.8-0.5,1.8-1.9
	c0-18.7,0-37.4,0.1-56.1c0-1.3-0.5-1.9-1.8-1.9c-11.4,0-22.8,0-34.1,0c-1.1,0-1.6,0.4-1.6,1.6C56,14.8,56,24.2,56,33.6z"/>
<path class="st1" d="M53.4,77.4c-0.5-4,1.6-6.6,5.4-6.6c31.3,0,10.9,0,42.2,0c3.4,0,4.8,3.2,4.5,6.6C71.5,77.4,87.5,77.4,53.4,77.4z
	"/>
<path class="st1" d="M0,0v122.2h56.6V0H0z M49.3,114.6c0,1.1-0.9,2-2,2H10.2c-1.1,0-2-0.9-2-2V78.4c0-1.1,0.9-2,2-2h37.1
	c1.1,0,2,0.9,2,2V114.6z M49.3,59.4h-4.9v1.7h4.9v4.4c0,1.1-0.9,2-2,2H10.2c-1.1,0-2-0.9-2-2V6.5c0-1.1,0.9-2,2-2h37.1
	c1.1,0,2,0.9,2,2V59.4z"/>
<path class="st1" d="M43.5,112.9H14.1c-1.1,0-2-0.9-2-2V82.1c0-1.1,0.9-2,2-2h29.5c1.1,0,2,0.9,2,2v28.7
	C45.5,112,44.6,112.9,43.5,112.9z"/>
</svg>
