<?xml version="1.0" encoding="utf-8"?>
<!-- Generator: Adobe Illustrator 20.1.0, SVG Export Plug-In . SVG Version: 6.00 Build 0)  -->
<svg version="1.1" id="Слой_1" xmlns="http://www.w3.org/2000/svg" xmlns:xlink="http://www.w3.org/1999/xlink" x="0px" y="0px"
	 viewBox="0 0 48 36.2" style="enable-background:new 0 0 48 36.2;" xml:space="preserve">
<style type="text/css">
	.st0{fill:#FFD034;}
	.st1{fill:#FFFFFF;}
</style>
<path class="st0" d="M14.1,10.4c0.9,0,1.7,0.6,1.7,1.3c0,0.7-0.8,1.4-1.6,1.5c-0.8,0-1.7-0.8-1.7-1.5C12.5,11,13.2,10.4,14.1,10.4z"
	/>
<path class="st0" d="M14.1,5.3c0.8,0,1.6,0.6,1.7,1.3c0,0.7-0.9,1.5-1.6,1.5c-0.8,0-1.7-0.8-1.7-1.5C12.5,6,13.3,5.3,14.1,5.3z"/>
<path class="st0" d="M14.1,15c0.9,0,1.7,0.6,1.7,1.3c0.1,0.7-0.8,1.5-1.7,1.4c-0.8,0-1.7-0.7-1.7-1.4C12.5,15.7,13.2,15.1,14.1,15z"
	/>
<path class="st0" d="M19.4,9c0.9,0,1.7,0.6,1.7,1.3c0.1,0.7-0.8,1.5-1.7,1.4c-0.8,0-1.7-0.7-1.7-1.4C17.8,9.7,18.6,9,19.4,9z"/>
<path class="st0" d="M15.8,19.6c0.9,0,1.7,0.6,1.7,1.3c0.1,0.7-0.8,1.5-1.7,1.4c-0.8,0-1.7-0.7-1.7-1.4
	C14.1,20.3,14.9,19.6,15.8,19.6z"/>
<path class="st0" d="M19.8,15c0.9,0,1.7,0.6,1.7,1.3c0.1,0.7-0.8,1.5-1.7,1.4c-0.8,0-1.7-0.7-1.7-1.4C18.1,15.7,18.9,15.1,19.8,15z"
	/>
<path class="st0" d="M19.8,22.4c0.9,0,1.7,0.6,1.7,1.3c0.1,0.7-0.8,1.5-1.7,1.4c-0.8,0-1.7-0.7-1.7-1.4
	C18.1,23.1,18.9,22.4,19.8,22.4z"/>
<path class="st0" d="M14.1,24.6c0.9,0,1.7,0.6,1.7,1.3c0.1,0.7-0.8,1.5-1.7,1.4c-0.8,0-1.7-0.7-1.7-1.4
	C12.5,25.3,13.2,24.6,14.1,24.6z"/>
<path class="st0" d="M19.8,3c0.9,0,1.7,0.6,1.7,1.3c0.1,0.7-0.8,1.5-1.7,1.4c-0.8,0-1.7-0.7-1.7-1.4C18.1,3.7,18.9,3,19.8,3z"/>
<path class="st0" d="M8.9,6.4C7.9,6.3,7.3,5.9,7.3,5c0-0.7,0.8-1.4,1.7-1.4c0.9,0,1.5,0.6,1.5,1.4C10.5,5.9,9.9,6.4,8.9,6.4z"/>
<path class="st0" d="M8.9,13.9c-1.1,0-1.6-0.5-1.6-1.4c0-0.7,0.8-1.3,1.6-1.3c0.9,0,1.6,0.6,1.6,1.4C10.5,13.4,9.9,13.9,8.9,13.9z"
	/>
<path class="st0" d="M9.6,20.1c-1,0-1.5-0.5-1.5-1.4c0-0.8,0.6-1.4,1.5-1.4c0.9,0,1.5,0.5,1.5,1.4C11,19.6,10.5,20.1,9.6,20.1z"/>
<path class="st0" d="M8.8,25.1c-1,0-1.5-0.5-1.5-1.4c0-0.8,0.6-1.4,1.5-1.4c0.9,0,1.5,0.5,1.5,1.4C10.3,24.6,9.8,25.1,8.8,25.1z"/>
<path class="st0" d="M33.3,20.7c0.9,0,1.7-0.6,1.7-1.3c0-0.7-0.8-1.4-1.6-1.5c-0.8,0-1.7,0.8-1.7,1.5C31.6,20.1,32.4,20.7,33.3,20.7
	z"/>
<path class="st0" d="M33.3,25.8c0.8,0,1.6-0.6,1.7-1.3c0-0.7-0.9-1.5-1.6-1.5c-0.8,0-1.7,0.8-1.7,1.5C31.6,25.1,32.4,25.8,33.3,25.8
	z"/>
<path class="st0" d="M33.3,16c0.9,0,1.7-0.6,1.7-1.3c0.1-0.7-0.8-1.5-1.7-1.4c-0.8,0-1.7,0.7-1.7,1.4C31.6,15.3,32.4,16,33.3,16z"/>
<path class="st0" d="M38.6,22.1c0.9,0,1.7-0.6,1.7-1.3c0.1-0.7-0.8-1.5-1.7-1.4c-0.8,0-1.7,0.7-1.7,1.4
	C36.9,21.4,37.7,22.1,38.6,22.1z"/>
<path class="st0" d="M34.9,11.5c0.9,0,1.7-0.6,1.7-1.3c0.1-0.7-0.8-1.5-1.7-1.4c-0.8,0-1.7,0.7-1.7,1.4
	C33.3,10.8,34.1,11.5,34.9,11.5z"/>
<path class="st0" d="M38.9,16c0.9,0,1.7-0.6,1.7-1.3c0.1-0.7-0.8-1.5-1.7-1.4c-0.8,0-1.7,0.7-1.7,1.4C37.3,15.3,38.1,16,38.9,16z"/>
<path class="st0" d="M38.9,8.7c0.9,0,1.7-0.6,1.7-1.3c0.1-0.7-0.8-1.5-1.7-1.4c-0.8,0-1.7,0.7-1.7,1.4C37.3,8,38.1,8.7,38.9,8.7z"/>
<path class="st0" d="M33.3,6.5c0.9,0,1.7-0.6,1.7-1.3c0.1-0.7-0.8-1.5-1.7-1.4c-0.8,0-1.7,0.7-1.7,1.4C31.6,5.8,32.4,6.5,33.3,6.5z"
	/>
<path class="st0" d="M38.9,28.1c0.9,0,1.7-0.6,1.7-1.3c0.1-0.7-0.8-1.5-1.7-1.4c-0.8,0-1.7,0.7-1.7,1.4
	C37.3,27.4,38.1,28.1,38.9,28.1z"/>
<path class="st0" d="M28.1,24.7c-1.1,0-1.6,0.5-1.6,1.4c0,0.7,0.8,1.4,1.7,1.4c0.9,0,1.5-0.6,1.5-1.4C29.7,25.2,29.1,24.7,28.1,24.7
	z"/>
<path class="st0" d="M28.1,17.2c-1.1,0-1.6,0.5-1.6,1.4c0,0.7,0.8,1.3,1.6,1.3c0.9,0,1.6-0.6,1.6-1.4C29.7,17.7,29.1,17.2,28.1,17.2
	z"/>
<path class="st0" d="M28.7,11c-1,0-1.5,0.5-1.5,1.4c0,0.8,0.6,1.4,1.5,1.4c0.9,0,1.5-0.5,1.5-1.4C30.2,11.5,29.7,11,28.7,11z"/>
<path class="st0" d="M28,5.9c-1,0-1.5,0.5-1.5,1.4c0,0.8,0.6,1.4,1.5,1.4c0.9,0,1.5-0.5,1.5-1.4C29.5,6.4,28.9,5.9,28,5.9z"/>
<path class="st1" d="M3.5,0c13.7,0,27.3,0,41,0c0,10.6,0,21.2,0,31.8c-13.7,0-27.3,0-40.9,0c0-0.3,0-0.6,0-0.9 M24.8,15.8
	C24.8,15.8,24.8,15.8,24.8,15.8c0,4.4,0,8.7,0,13.1c0,0.5-0.1,1,0.7,1c5.3,0,10.6,0,15.9,0c0.6,0,0.9-0.2,0.9-0.9
	c0-8.8,0-17.5,0-26.3c0-0.6-0.2-0.9-0.8-0.9c-5.3,0-10.7,0-16,0c-0.5,0-0.7,0.2-0.7,0.7C24.8,7,24.8,11.4,24.8,15.8z M22.6,29.8
	c0-0.3,0.1-0.5,0.1-0.6c0-8.9,0-17.7,0-26.6c0-0.8-0.4-0.8-1-0.8c-5,0-10,0-15.1,0c-1,0-1.3,0.3-1.3,1.3c0.1,4.5,0.1,9.1,0.1,13.6
	c0,4.1,0,8.1,0,12.2c0,0.3,0.1,0.7,0.1,1C11.3,29.8,16.9,29.8,22.6,29.8z"/>
<path class="st1" d="M0,36.2c-0.2-1.9,0.8-3.1,2.5-3.1c14.7,0,28.6,0,43.3,0c1.6,0,2.2,1.5,2.1,3.1C32,36.2,16,36.2,0,36.2z"/>
</svg>
