<?xml version="1.0" encoding="utf-8"?>
<!-- Generator: Adobe Illustrator 16.0.0, SVG Export Plug-In . SVG Version: 6.00 Build 0)  -->
<!DOCTYPE svg PUBLIC "-//W3C//DTD SVG 1.1//EN" "http://www.w3.org/Graphics/SVG/1.1/DTD/svg11.dtd">
<svg version="1.1" id="Layer_1" xmlns="http://www.w3.org/2000/svg" xmlns:xlink="http://www.w3.org/1999/xlink" x="0px" y="0px"
	 width="90.875px" height="99.731px" viewBox="0 0 90.875 99.731" enable-background="new 0 0 90.875 99.731" xml:space="preserve">
<g>
	<defs>
		<rect id="SVGID_1_" width="90.875" height="99.731"/>
	</defs>
	<clipPath id="SVGID_2_">
		<use xlink:href="#SVGID_1_"  overflow="visible"/>
	</clipPath>
	<path clip-path="url(#SVGID_2_)" fill="#FFFFFF" d="M39.345,62.05H25.932c-2.407,0-4.36-1.951-4.36-4.36
		c0-2.406,1.953-4.358,4.36-4.358h13.413c2.407,0,4.36,1.952,4.36,4.358C43.705,60.099,41.752,62.05,39.345,62.05"/>
	<path clip-path="url(#SVGID_2_)" fill="#FFFFFF" d="M39.345,72.765H23.916c-2.408,0-4.36-1.951-4.36-4.362
		c0-2.402,1.952-4.356,4.36-4.356h15.429c2.407,0,4.36,1.954,4.36,4.356C43.705,70.814,41.752,72.765,39.345,72.765"/>
	<path clip-path="url(#SVGID_2_)" fill="#FFFFFF" d="M39.345,83.479h-9.386c-2.407,0-4.36-1.951-4.36-4.36
		c0-2.404,1.953-4.358,4.36-4.358h9.386c2.407,0,4.36,1.954,4.36,4.358C43.705,81.527,41.752,83.479,39.345,83.479"/>
	<path clip-path="url(#SVGID_2_)" fill="#FFFFFF" d="M68.675,52.38l-9.381-10.579c-0.45-0.506-1.011-0.897-1.641-1.145
		c-13.612-5.341-13.608-5.336-15.386-4.122l-11.231,7.249c-1.989,1.284-2.56,3.937-1.278,5.926c1.285,1.988,3.938,2.557,5.925,1.275
		l6.766-4.368c1.243,6.722,4.248,17.44,11.077,21.116c8.463,4.554,13.741,2.379,13.741,2.379v2.433c0,0-5.515,1.099-10.559-0.647
		c-6.288-2.172-10.925-7.063-10.925-7.063v18.712h12.319c0,0,3.604-0.233,6.291-1.708c2.405-1.321,3.805-4.251,3.805-4.251h22.676
		V52.381L68.675,52.38L68.675,52.38z"/>
	<polygon clip-path="url(#SVGID_2_)" fill="#FFFFFF" points="77.889,21.141 79.535,20.889 69.727,31.65 74.345,36.019 
		90.613,17.976 74.345,0 69.727,4.366 79.535,15.129 77.889,14.811 50.985,14.811 50.985,21.142 77.889,21.142 	"/>
	<path clip-path="url(#SVGID_2_)" fill="#FFD034" d="M39.289,32.613c-0.296-8.064-6.931-14.538-15.065-14.538H8.72V2.1H0v97.063
		h8.72V26.793h15.504c3.372,0,6.112,2.641,6.331,5.959v8.4l8.774-5.668v-2.872L39.289,32.613L39.289,32.613z"/>
	<path clip-path="url(#SVGID_2_)" fill="#FFD034" d="M30.607,85.605v9.766c0,2.407,1.951,4.36,4.358,4.36
		c2.408,0,4.358-1.953,4.358-4.36v-9.766H30.607z"/>
</g>
</svg>
