<svg version="1.1" id="svg-config-item" xmlns="http://www.w3.org/2000/svg" xmlns:xlink="http://www.w3.org/1999/xlink" x="0px" y="0px"
	  viewBox="0 0 85.328 87.758" enable-background="new 0 0 85.328 87.758" xml:space="preserve">
<g>
	<clipPath id="SVGID_2_">
		<use xlink:href="#SVGID_1_"  overflow="visible"/>
	</clipPath>
	<path clip-path="url(#SVGID_2_)" fill="#FFFFFF" d="M85.16,87.669h-8.604c-1.149-1.794-2.195-3.573-3.408-5.23
		c-0.345-0.472-1.166-0.811-1.782-0.832c-2.659-0.092-5.371-0.347-7.967,0.065c-1.664,0.264-3.152,1.603-4.734,2.431
		c-0.657,0.344-1.354,0.868-2.034,0.872c-9.096,0.058-18.19,0.101-27.284-0.037c-1.226-0.019-2.619-0.829-3.612-1.66
		c-1.63-1.365-3.345-1.926-5.422-1.74c-1.173,0.105-2.408,0.226-3.539-0.017c-3.834-0.821-5.526,1.546-6.802,4.451
		c-0.547,1.245-1.214,1.84-2.618,1.783c-2.274-0.094-4.555-0.025-7.104-0.025c0-2.767,0.013-5.345-0.002-7.923
		c-0.05-8.799,0.015-17.602-0.245-26.395c-0.074-2.5,1.11-4.01,2.626-5.451c1.651-1.57,3.714-2.743,5.21-4.433
		c1.31-1.48,2.711-1.758,4.468-1.679c1.765,0.079,3.537,0.017,5.55,0.017v12.415h49.299V41.904c2.91,0,5.642-0.224,8.303,0.107
		c1.115,0.138,2.12,1.41,3.109,2.244c1.388,1.171,2.704,2.425,4.069,3.624c1.845,1.617,2.745,3.43,2.688,6.091
		c-0.221,10.273-0.136,20.554-0.164,30.832C85.158,85.677,85.16,86.553,85.16,87.669 M17.949,72.912h49.275
		c0-2.392-0.135-4.675,0.039-6.934c0.164-2.132-0.56-2.734-2.699-2.721c-14.396,0.09-28.791,0.045-43.187,0.045
		c-0.59,0-1.183-0.016-1.771,0.031c-1.076,0.085-1.736,0.469-1.685,1.777C18.019,67.612,17.949,70.119,17.949,72.912"/>
	<path clip-path="url(#SVGID_2_)" fill="#FFFFFF" d="M57.457,0c0.744,0,1.319-0.001,1.893,0c2.836,0.003,2.938,0.081,2.939,2.828
		c0.006,14.704,0.003,29.408-0.005,44.112c-0.002,3.081-0.021,3.083-3.059,3.143c-0.512,0.01-1.023,0.001-1.769,0.001V0z"/>
	<rect x="23.761" y="0.117" clip-path="url(#SVGID_2_)" fill="#FFFFFF" width="4.189" height="49.859"/>
	<path clip-path="url(#SVGID_2_)" fill="#FFFFFF" d="M52.068,50.074c-5.954,0-11.561,0.042-17.165-0.067
		c-0.54-0.01-1.52-0.953-1.522-1.465c-0.019-6.693-1.133-6.458,5.808-6.449c3.472,0.005,6.942,0.012,10.414-0.012
		c1.664-0.012,2.647,0.491,2.494,2.431C51.959,46.262,52.068,48.031,52.068,50.074"/>
	<path clip-path="url(#SVGID_2_)" fill="#FFD034" d="M48.301,16.469c1.941,0.011,3.535,1.303,3.543,2.873
		c0.008,1.451-1.785,3.058-3.464,3.104c-1.688,0.046-3.678-1.663-3.668-3.149C44.721,17.76,46.374,16.458,48.301,16.469"/>
	<path clip-path="url(#SVGID_2_)" fill="#FFD034" d="M48.237,5.595c1.803-0.027,3.493,1.306,3.595,2.838
		c0.098,1.444-1.83,3.262-3.501,3.301c-1.628,0.038-3.646-1.748-3.618-3.203C44.739,7.06,46.467,5.622,48.237,5.595"/>
	<path clip-path="url(#SVGID_2_)" fill="#FFD034" d="M48.203,26.451c1.838-0.036,3.531,1.288,3.643,2.85
		c0.112,1.558-1.68,3.094-3.589,3.076c-1.81-0.017-3.533-1.435-3.541-2.914C44.707,27.944,46.394,26.487,48.203,26.451"/>
	<path clip-path="url(#SVGID_2_)" fill="#FFD034" d="M37.23,7.914c-2.248-0.013-3.477-1.07-3.446-2.963
		c0.026-1.596,1.727-2.969,3.598-2.904c1.846,0.065,3.138,1.28,3.14,2.953C40.525,6.881,39.344,7.926,37.23,7.914"/>
	<path clip-path="url(#SVGID_2_)" fill="#FFD034" d="M37.177,23.945c-2.246-0.026-3.453-1.092-3.402-3.004
		c0.04-1.533,1.628-2.864,3.42-2.867c1.933-0.004,3.33,1.257,3.34,3.013C40.545,22.928,39.32,23.97,37.177,23.945"/>
	<path clip-path="url(#SVGID_2_)" fill="#FFD034" d="M38.538,37.156c-2.064,0.004-3.192-1.071-3.153-3.005
		c0.036-1.802,1.22-2.904,3.132-2.914c1.91-0.011,3.094,1.077,3.14,2.883C41.707,36.077,40.602,37.152,38.538,37.156"/>
</g>
</svg>
