<svg version="1.1" id="svg-config-item" xmlns="http://www.w3.org/2000/svg" xmlns:xlink="http://www.w3.org/1999/xlink" x="0px" y="0px"
	  viewBox="0 0 75.04 69.641" enable-background="new 0 0 75.04 69.641" xml:space="preserve">
<g>
	<clipPath id="SVGID_2_">
		<use xlink:href="#SVGID_1_"  overflow="visible"/>
	</clipPath>
	<path clip-path="url(#SVGID_2_)" fill="#FFFFFF" d="M60.013,69.641H0V13.39h60.013V69.641z M47.513,65.898
		c0.115-0.179,0.229-0.356,0.344-0.534c-0.349-0.406-0.659-0.856-1.054-1.211c-5.472-4.903-10.958-9.789-16.435-14.688
		c-2.769-2.475-5.517-4.975-8.29-7.445c-5.099-4.545-10.202-9.085-15.329-13.598c-0.451-0.397-1.094-0.575-1.647-0.855
		c-0.174,0.593-0.497,1.186-0.498,1.779C4.582,40.729,4.625,52.112,4.575,63.494c-0.008,1.799,0.501,2.446,2.402,2.431
		c10.791-0.08,21.583-0.032,32.374-0.027C42.071,65.898,44.793,65.898,47.513,65.898 M55.182,45.226V17.468H23.81
		C34.451,26.884,44.669,35.924,55.182,45.226 M55.347,57.779c0-1.741-0.106-2.782,0.022-3.792c0.235-1.826-0.35-3.227-1.752-4.397
		c-3.322-2.775-6.644-5.556-9.895-8.414c-2.193-1.928-4.216-4.048-6.402-5.985c-5.58-4.946-11.464-9.582-16.719-14.849
		c-3.061-3.067-6.218-3.413-10.228-2.851c0.334,0.496,0.501,0.895,0.792,1.154c4.017,3.573,8.065,7.111,12.075,10.691
		c3.269,2.918,6.471,5.91,9.749,8.816c4.499,3.986,9.043,7.921,13.564,11.884C49.322,52.464,52.083,54.904,55.347,57.779"/>
	<path clip-path="url(#SVGID_2_)" fill="#FFD034" d="M75.04,56.368h-9.213c0-0.88,0-1.731,0-2.583
		c-0.006-14.41-0.062-28.82,0.034-43.229c0.015-2.266-1.207-2.076-2.658-2.077C47.905,8.462,32.608,8.432,17.311,8.405
		c-0.661-0.001-1.322,0-2.173,0V0H75.04V56.368z"/>
</g>
</svg>
