<svg version="1.1" id="svg-config-item" xmlns="http://www.w3.org/2000/svg" xmlns:xlink="http://www.w3.org/1999/xlink" x="0px" y="0px"
	 viewBox="0 0 83.905 89.434" enable-background="new 0 0 83.905 89.434" xml:space="preserve">
<g>
	<clipPath id="SVGID_2_">
		<use xlink:href="#SVGID_1_"  overflow="visible"/>
	</clipPath>
	<path clip-path="url(#SVGID_2_)" fill="#FFFFFF" d="M0,14.874c2.051,0,3.969-0.077,5.874,0.046c0.578,0.037,1.286,0.5,1.649,0.983
		c1.257,1.669,2.593,2.793,4.94,2.503c2.111-0.261,4.292-0.192,6.421-0.012c2.107,0.179,3.365-0.916,4.657-2.288
		c0.548-0.582,1.417-1.106,2.187-1.183c1.75-0.174,3.528-0.055,5.456-0.055v74.406h-7.028c-1.041-2.478-2.518-3.484-5.106-3.46
		c-2.512,0.024-5.036,0.187-7.532-0.004c-1.982-0.15-2.881,1.045-3.975,2.263c-0.528,0.588-1.344,1.184-2.084,1.262
		C3.712,89.517,1.933,89.393,0,89.393V14.874z M23.205,24.348h-5.469v55.723h5.469V24.348z M12.995,24.344H7.94v55.705h5.055V24.344
		z"/>
	<path clip-path="url(#SVGID_2_)" fill="#FFD034" d="M36.726,32.678V29.04c4.105,0,8.146-0.105,12.176,0.047
		c1.889,0.07,2.767-0.555,3.336-2.345c1.002-3.153,1.397-3.179,4.41-1.87c1.946,0.845,3.993,1.46,5.894,2.142
		c-8.481,16.304-16.974,32.63-25.467,48.956c-0.132-0.039-0.263-0.078-0.394-0.116c0-6.098-0.177-12.203,0.11-18.288
		c0.084-1.776,1.443-3.514,2.297-5.229c1.828-3.672,3.709-7.318,5.567-10.976c1.105-2.176,2.195-4.359,3.313-6.529
		c0.986-1.917,0.868-2.139-1.325-2.149C43.404,32.667,40.167,32.678,36.726,32.678"/>
	<path clip-path="url(#SVGID_2_)" fill="#FFFFFF" d="M52.021,0c-0.485,2.409-0.896,4.448-1.234,6.128
		c5.349,2.051,10.528,3.713,15.403,6.017c3.396,1.606,6.524,3.903,9.495,6.245c2.579,2.034,4.754,4.579,7.134,6.87
		c1.558,1.501,1.524,2.603-0.658,3.378c-0.495,0.176-0.896,0.613-1.327,0.921C72.716,19.155,62.162,13.191,49.473,10.61
		c-0.571,2.331-1,4.082-1.508,6.157c-3.149-3.373-6.206-6.645-9.668-10.354C42.962,4.233,47.414,2.153,52.021,0"/>
</g>
</svg>
