<?xml version="1.0" encoding="utf-8"?>
<!-- Generator: Adobe Illustrator 16.0.0, SVG Export Plug-In . SVG Version: 6.00 Build 0)  -->
<!DOCTYPE svg PUBLIC "-//W3C//DTD SVG 1.1//EN" "http://www.w3.org/Graphics/SVG/1.1/DTD/svg11.dtd">
<svg version="1.1" id="Layer_1" xmlns="http://www.w3.org/2000/svg" xmlns:xlink="http://www.w3.org/1999/xlink" x="0px" y="0px"
	 width="62.221px" height="77.149px" viewBox="0 0 62.221 77.149" enable-background="new 0 0 62.221 77.149" xml:space="preserve">
<g>
	<defs>
		<rect id="SVGID_1_" y="0" width="62.221" height="77.149"/>
	</defs>
	<clipPath id="SVGID_2_">
		<use xlink:href="#SVGID_1_"  overflow="visible"/>
	</clipPath>
	<path clip-path="url(#SVGID_2_)" fill="#FFFFFF" d="M8.233,0h46.4v67.744H8.321c-0.037-0.663-0.106-1.294-0.104-1.925
		 M12.708,33.608h0.022c0,9.313,0.002,18.626-0.001,27.94c-0.001,1.125-0.175,2.233,1.587,2.225
		c11.309-0.051,22.619-0.052,33.928-0.041c1.319,0.001,1.836-0.528,1.836-1.851c0.007-18.7,0.03-37.401,0.086-56.102
		c0.005-1.328-0.456-1.856-1.788-1.855c-11.379,0.014-22.756,0-34.133-0.022c-1.093-0.002-1.566,0.355-1.56,1.559
		C12.728,14.843,12.708,24.226,12.708,33.608"/>
	<path clip-path="url(#SVGID_2_)" fill="#FFFFFF" d="M0.072,77.146c-0.497-4.008,1.611-6.592,5.423-6.595
		c31.273-0.023,20.885,0.021,52.16,0.004c3.352-0.002,4.755,3.216,4.546,6.595C28.119,77.149,34.16,77.146,0.072,77.146"/>
	
		<line clip-path="url(#SVGID_2_)" fill="none" stroke="#FFD034" stroke-width="0.2" x1="50.104" y1="6.762" x2="12.731" y2="6.762"/>
	
		<line clip-path="url(#SVGID_2_)" fill="none" stroke="#FFD034" stroke-width="0.2" x1="50.104" y1="9.125" x2="12.731" y2="9.125"/>
	
		<line clip-path="url(#SVGID_2_)" fill="none" stroke="#FFD034" stroke-width="0.2" x1="47.628" y1="3.693" x2="47.628" y2="63.773"/>
	
		<line clip-path="url(#SVGID_2_)" fill="none" stroke="#FFD034" stroke-width="0.2" x1="44.749" y1="3.693" x2="44.749" y2="63.773"/>
	
		<line clip-path="url(#SVGID_2_)" fill="none" stroke="#FFD034" stroke-width="0.2" x1="50.104" y1="11.488" x2="12.731" y2="11.488"/>
	
		<line clip-path="url(#SVGID_2_)" fill="none" stroke="#FFD034" stroke-width="0.2" x1="50.104" y1="13.851" x2="12.731" y2="13.851"/>
	
		<line clip-path="url(#SVGID_2_)" fill="none" stroke="#FFD034" stroke-width="0.2" x1="50.104" y1="16.214" x2="12.731" y2="16.214"/>
	
		<line clip-path="url(#SVGID_2_)" fill="none" stroke="#FFD034" stroke-width="0.2" x1="50.104" y1="18.577" x2="12.731" y2="18.577"/>
	
		<line clip-path="url(#SVGID_2_)" fill="none" stroke="#FFD034" stroke-width="0.2" x1="50.104" y1="20.94" x2="12.731" y2="20.94"/>
	
		<line clip-path="url(#SVGID_2_)" fill="none" stroke="#FFD034" stroke-width="0.2" x1="50.104" y1="23.303" x2="12.731" y2="23.303"/>
	
		<line clip-path="url(#SVGID_2_)" fill="none" stroke="#FFD034" stroke-width="0.2" x1="50.104" y1="25.666" x2="12.731" y2="25.666"/>
	
		<line clip-path="url(#SVGID_2_)" fill="none" stroke="#FFD034" stroke-width="0.2" x1="50.104" y1="28.028" x2="12.731" y2="28.028"/>
	
		<line clip-path="url(#SVGID_2_)" fill="none" stroke="#FFD034" stroke-width="0.2" x1="50.104" y1="30.391" x2="12.731" y2="30.391"/>
	
		<line clip-path="url(#SVGID_2_)" fill="none" stroke="#FFD034" stroke-width="0.2" x1="50.104" y1="32.754" x2="12.731" y2="32.754"/>
	
		<line clip-path="url(#SVGID_2_)" fill="none" stroke="#FFD034" stroke-width="0.2" x1="50.104" y1="35.117" x2="12.731" y2="35.117"/>
	
		<line clip-path="url(#SVGID_2_)" fill="none" stroke="#FFD034" stroke-width="0.2" x1="50.104" y1="37.48" x2="12.731" y2="37.48"/>
	
		<line clip-path="url(#SVGID_2_)" fill="none" stroke="#FFD034" stroke-width="0.2" x1="50.104" y1="39.843" x2="12.731" y2="39.843"/>
	
		<line clip-path="url(#SVGID_2_)" fill="none" stroke="#FFD034" stroke-width="0.2" x1="50.104" y1="42.206" x2="12.731" y2="42.206"/>
	
		<line clip-path="url(#SVGID_2_)" fill="none" stroke="#FFD034" stroke-width="0.2" x1="50.104" y1="44.569" x2="12.731" y2="44.569"/>
	
		<line clip-path="url(#SVGID_2_)" fill="none" stroke="#FFD034" stroke-width="0.2" x1="50.104" y1="46.931" x2="12.731" y2="46.931"/>
	
		<line clip-path="url(#SVGID_2_)" fill="none" stroke="#FFD034" stroke-width="0.2" x1="50.104" y1="49.295" x2="12.731" y2="49.295"/>
	
		<line clip-path="url(#SVGID_2_)" fill="none" stroke="#FFD034" stroke-width="0.2" x1="50.104" y1="51.658" x2="12.731" y2="51.658"/>
	
		<line clip-path="url(#SVGID_2_)" fill="none" stroke="#FFD034" stroke-width="0.2" x1="50.104" y1="54.02" x2="12.731" y2="54.02"/>
	
		<line clip-path="url(#SVGID_2_)" fill="none" stroke="#FFD034" stroke-width="0.2" x1="50.104" y1="56.383" x2="12.731" y2="56.383"/>
	
		<line clip-path="url(#SVGID_2_)" fill="none" stroke="#FFD034" stroke-width="0.2" x1="50.104" y1="58.746" x2="12.731" y2="58.746"/>
	
		<line clip-path="url(#SVGID_2_)" fill="none" stroke="#FFD034" stroke-width="0.2" x1="50.104" y1="61.109" x2="12.731" y2="61.109"/>
	
		<line clip-path="url(#SVGID_2_)" fill="none" stroke="#FFD034" stroke-width="0.2" x1="41.871" y1="3.693" x2="41.871" y2="63.773"/>
	
		<line clip-path="url(#SVGID_2_)" fill="none" stroke="#FFD034" stroke-width="0.2" x1="38.992" y1="3.693" x2="38.992" y2="63.773"/>
	
		<line clip-path="url(#SVGID_2_)" fill="none" stroke="#FFD034" stroke-width="0.2" x1="36.113" y1="3.693" x2="36.113" y2="63.773"/>
	
		<line clip-path="url(#SVGID_2_)" fill="none" stroke="#FFD034" stroke-width="0.2" x1="33.234" y1="3.693" x2="33.234" y2="63.773"/>
	
		<line clip-path="url(#SVGID_2_)" fill="none" stroke="#FFD034" stroke-width="0.2" x1="30.355" y1="3.693" x2="30.355" y2="63.773"/>
	
		<line clip-path="url(#SVGID_2_)" fill="none" stroke="#FFD034" stroke-width="0.2" x1="27.478" y1="3.693" x2="27.478" y2="63.773"/>
	
		<line clip-path="url(#SVGID_2_)" fill="none" stroke="#FFD034" stroke-width="0.2" x1="24.598" y1="3.693" x2="24.598" y2="63.773"/>
	
		<line clip-path="url(#SVGID_2_)" fill="none" stroke="#FFD034" stroke-width="0.2" x1="21.719" y1="3.693" x2="21.719" y2="63.773"/>
	<line clip-path="url(#SVGID_2_)" fill="none" stroke="#FFD034" stroke-width="0.2" x1="18.84" y1="3.693" x2="18.84" y2="63.773"/>
	
		<line clip-path="url(#SVGID_2_)" fill="none" stroke="#FFD034" stroke-width="0.2" x1="15.962" y1="3.693" x2="15.962" y2="63.773"/>
</g>
</svg>
