<?xml version="1.0" encoding="utf-8"?>
<!-- Generator: Adobe Illustrator 16.0.0, SVG Export Plug-In . SVG Version: 6.00 Build 0)  -->
<!DOCTYPE svg PUBLIC "-//W3C//DTD SVG 1.1//EN" "http://www.w3.org/Graphics/SVG/1.1/DTD/svg11.dtd">
<svg version="1.1" id="Layer_1" xmlns="http://www.w3.org/2000/svg" xmlns:xlink="http://www.w3.org/1999/xlink" x="0px" y="0px"
	 width="89.302px" height="81.56px" viewBox="0 0 89.302 81.56" enable-background="new 0 0 89.302 81.56" xml:space="preserve">
<g>
	<defs>
		<rect id="SVGID_1_" y="0" width="89.301" height="81.56"/>
	</defs>
	<clipPath id="SVGID_2_">
		<use xlink:href="#SVGID_1_"  overflow="visible"/>
	</clipPath>
	<path clip-path="url(#SVGID_2_)" fill="#FFFFFF" d="M13.435,45.405c0,1.538,0.003,3.007,0,4.477
		c-0.012,5.971-0.013,5.969,6.061,5.969c13.521,0.002,27.041,0.006,40.562,0.009c0.792,0,1.585,0,2.477,0v25.7H0.021
		c0-1.255,0-2.416,0-3.577C0.017,69.634,0.019,61.285,0,52.937c-0.002-1.145-0.038-2.162,1.397-2.623
		c0.622-0.199,1.148-0.885,1.581-1.454C5.597,45.42,9.021,44.36,13.435,45.405 M29.651,59.56c-1.328,0-2.342,0.058-3.347-0.01
		c-3.511-0.238-6.432,0.174-9.142,3.213c-3.641,4.082-8.216,7.319-12.189,11.128c-0.646,0.619-0.258,2.318-0.348,3.518
		c2.019-0.032,4.607,0.724,5.951-0.247c3.988-2.879,7.48-6.444,11.18-9.727c2.378-2.111,4.792-4.18,7.152-6.31
		C29.222,60.842,29.308,60.308,29.651,59.56 M45.9,60.296c-0.122-0.24-0.243-0.481-0.364-0.722c-2.65,0-5.302-0.048-7.949,0.038
		c-0.565,0.019-1.206,0.416-1.656,0.814c-4.612,4.076-9.197,8.18-13.777,12.292c-1.635,1.468-3.234,2.977-4.85,4.468
		c2.917,0.469,5.556,0.518,8.19,0.431c0.58-0.019,1.245-0.403,1.701-0.811c5.581-4.984,11.126-10.01,16.695-15.008
		C44.51,61.242,45.228,60.794,45.9,60.296 M33.294,77.292c5.95,1.125,10.65,0.393,14.313-4.135c1.362-1.685,3.403-2.806,5.053-4.276
		c1.817-1.621,3.598-3.293,5.28-5.053c1.128-1.18,0.8-4.138-0.384-4.138c-1.895,0-4.284-0.075-5.595,0.972
		c-4.768,3.809-9.174,8.069-13.716,12.16C36.686,74.228,35.129,75.636,33.294,77.292 M13.933,59.729
		c-1.533-0.072-2.596-0.155-3.66-0.167c-7.121-0.084-5.921-0.297-6.003,6.423c-0.005,0.454,0.277,0.913,0.425,1.37
		c0.522-0.176,1.168-0.213,1.546-0.55C8.676,64.634,11.052,62.396,13.933,59.729 M58.361,70.119
		c-0.199-0.11-0.398-0.221-0.598-0.332c-2.74,2.44-5.481,4.882-8.621,7.677h9.219V70.119z"/>
	<path clip-path="url(#SVGID_2_)" fill="#FFFFFF" d="M21.488,0.121h4.489c0,3.134,0.006,6.146-0.002,9.157
		c-0.029,11.684-0.012,23.369-0.14,35.052c-0.024,2.161,0.63,2.841,2.767,2.735c3.319-0.164,6.653-0.043,9.981-0.046
		c2.995-0.003,2.993-0.005,2.984-2.923c-0.045-13.681-0.089-27.361-0.133-41.042c-0.003-0.943-0.001-1.886-0.001-2.934h4.288v50.794
		H21.488V0.121z"/>
	<path clip-path="url(#SVGID_2_)" fill="#FFFFFF" d="M48.943,51.109V37.823c0.8-0.038,1.515-0.101,2.23-0.101
		c10.705-0.006,21.41-0.007,32.116,0c3.521,0.002,6,2.433,6.007,5.876c0.009,3.895,0.002,7.787,0.002,11.79h-4.383v-4.278H48.943z
		 M72.814,41.754c-1.781,0-3.266,0.144-4.709-0.034c-2.307-0.283-3.128,0.643-2.771,2.848c0.15,0.928-0.456,2.301,1.193,2.372
		c2.038,0.09,4.083,0.022,6.286,0.022c0-0.949,0-1.604,0-2.257C72.814,43.828,72.814,42.95,72.814,41.754 M60.751,41.758
		c-1.556,0-2.863-0.002-4.172,0c-3.147,0.003-4.089,1.229-3.171,4.246c0.116,0.379,0.64,0.885,0.993,0.899
		c2.094,0.084,4.193,0.041,6.35,0.041V41.758z M84.562,46.978c0.745-5.247,0.745-5.247-4.133-5.228
		c-0.517,0.002-1.032,0.003-1.549,0.007c-2.134,0.014-1.438,1.654-1.493,2.75c-0.055,1.093-0.418,2.525,1.539,2.479
		C80.761,46.944,82.597,46.978,84.562,46.978"/>
	<path clip-path="url(#SVGID_2_)" fill="#FFFFFF" d="M36.255,41.895h-4.336c-0.203-1.657-0.588-3.38-0.599-5.106
		c-0.072-11.225-0.068-22.45-0.078-33.676c-0.002-3.161,0.014-3.165,3.119-3.096c0.583,0.013,1.164,0.066,1.894,0.109V41.895z"/>
	<polygon clip-path="url(#SVGID_2_)" fill="#FFD034" points="13.436,49.256 13.436,45.881 20.076,46.987 20.076,52.44 
		13.436,54.567 	"/>
</g>
</svg>
