<svg version="1.1" id="svg-config-item" xmlns="http://www.w3.org/2000/svg" xmlns:xlink="http://www.w3.org/1999/xlink" x="0px" y="0px"
	viewBox="0 0 87.71 87.8" enable-background="new 0 0 87.71 87.8" xml:space="preserve">
<g>
	<clipPath id="SVGID_2_">
		<use xlink:href="#SVGID_1_"  overflow="visible"/>
	</clipPath>
	<path clip-path="url(#SVGID_2_)" fill="#FFFFFF" d="M77.146,25.561c-0.03-4.84-5.11-25.55-33.351-25.55
		c-34.13-0.62-33.47,27.16-33.47,30.91c-0.01,14.86-0.03,29.72-0.04,44.58c0,0.84,0.08,1.689,0.13,2.57h66.72
		c0.08-0.41,0.16-0.631,0.16-0.841C77.255,60.01,77.245,42.78,77.146,25.561 M73.165,34.25c-0.07,12.64-0.09,25.27-0.03,37.91
		c0,1.54-0.64,1.89-1.96,1.899c-18.1,0.021-38.04,0.07-56.14,0.12c-0.24-3.92-0.2-37.42-0.24-40.44v-4.12
		c0.22-2.19-1.89-26,26.74-26h4.53c26.47,0.27,27.045,20.288,27.045,26.068L73.165,34.25z"/>
	<path clip-path="url(#SVGID_2_)" fill="#FFFFFF" d="M87.563,87.8H0.297c-0.884-3.299,0.191-4.822,3.4-4.823
		c26.698-0.012,53.396-0.015,80.095-0.013C86.921,82.965,88.165,84.557,87.563,87.8"/>
	<rect x="41.445" y="3.62" clip-path="url(#SVGID_2_)" fill="#FFD034" width="4.615" height="70.531"/>
	<rect x="14.828" y="51.87" clip-path="url(#SVGID_2_)" fill="#FFD034" width="58.315" height="4.001"/>
	<rect x="14.595" y="29.708" clip-path="url(#SVGID_2_)" fill="#FFD034" width="59.123" height="4.001"/>
</g>
</svg>
