<?xml version="1.0" encoding="utf-8"?>
<!-- Generator: Adobe Illustrator 16.0.0, SVG Export Plug-In . SVG Version: 6.00 Build 0)  -->
<!DOCTYPE svg PUBLIC "-//W3C//DTD SVG 1.1//EN" "http://www.w3.org/Graphics/SVG/1.1/DTD/svg11.dtd">
<svg version="1.1" id="Layer_1" xmlns="http://www.w3.org/2000/svg" xmlns:xlink="http://www.w3.org/1999/xlink" x="0px" y="0px"
	 width="113.042px" height="79.413px" viewBox="0 0 113.042 79.413" enable-background="new 0 0 113.042 79.413"
	 xml:space="preserve">
<g>
	<defs>
		<rect id="SVGID_1_" y="0" width="113.042" height="79.413"/>
	</defs>
	<clipPath id="SVGID_2_">
		<use xlink:href="#SVGID_1_"  overflow="visible"/>
	</clipPath>
	<path clip-path="url(#SVGID_2_)" fill="#FFFFFF" d="M12.695,2.066h87.389V69.81H12.783c-0.038-0.663-0.106-1.294-0.105-1.925
		 M58.159,35.673h0.023c0,9.313,0.001,18.627-0.002,27.941c-0.001,1.125-0.175,2.231,1.587,2.224
		c11.309-0.051,22.618-0.052,33.928-0.041c1.319,0.001,1.836-0.529,1.836-1.85c0.006-18.701,0.03-37.402,0.086-56.104
		c0.004-1.328-0.457-1.856-1.789-1.854C82.45,6.003,71.072,5.989,59.695,5.968c-1.093-0.002-1.565,0.355-1.561,1.558
		C58.18,16.908,58.159,26.292,58.159,35.673 M53.557,65.714c0.058-0.631,0.12-0.995,0.121-1.359
		c0.01-18.913-0.008-37.827,0.058-56.74c0.006-1.751-0.883-1.652-2.078-1.649c-10.71,0.019-21.42,0.067-32.128-0.043
		c-2.165-0.023-2.725,0.629-2.696,2.738c0.133,9.657,0.122,19.317,0.125,28.976c0.003,8.646-0.047,17.29-0.059,25.936
		c-0.001,0.707,0.111,1.413,0.172,2.142H53.557z"/>
	<path clip-path="url(#SVGID_2_)" fill="#FFFFFF" d="M5.386,79.413c-0.497-4.008,0.104-4.727,3.916-4.73
		c31.275-0.022,62.549-0.046,93.823-0.062c3.353-0.002,4.735,1.413,4.525,4.792H5.386z"/>
	<path clip-path="url(#SVGID_2_)" fill="#FFFFFF" d="M63.934,20.845c3.709,3.272,7.105,6.29,10.526,9.28
		c4.538,3.969,9.152,7.855,13.598,11.925c0.896,0.821,1.606,2.284,1.677,3.493c0.214,3.738,0.078,7.498,0.078,11.783
		c-1.441-1.176-2.534-2.012-3.566-2.918c-5.237-4.593-10.469-9.194-15.684-13.813c-2.011-1.78-4.032-3.555-5.921-5.458
		c-0.485-0.488-0.665-1.454-0.678-2.205C63.898,29.02,63.934,25.106,63.934,20.845"/>
	<path clip-path="url(#SVGID_2_)" fill="#FFFFFF" d="M64.145,11.099c2.163-0.604,3.57,0.331,5.015,1.637
		c4.838,4.371,9.783,8.623,14.669,12.941c1.68,1.485,3.71,2.784,4.834,4.624c1.027,1.679,1.044,3.975,1.506,5.999
		c-0.266,0.097-0.531,0.194-0.797,0.291c-2.247-1.903-4.537-3.756-6.73-5.718c-5.775-5.167-11.479-10.416-17.281-15.552
		C64.001,14.12,63.688,12.836,64.145,11.099"/>
	<path clip-path="url(#SVGID_2_)" fill="#FFFFFF" d="M22.235,10.749H48.58v50.087H22.235V10.749z M26.611,25.726
		c0,4.658-0.02,8.989,0.03,13.319c0.006,0.443,0.339,0.984,0.684,1.303c1.039,0.961,2.167,1.825,3.244,2.745
		c3.722,3.18,7.431,6.376,11.164,9.544c0.508,0.432,1.122,0.737,1.687,1.102c0.251-0.706,0.701-1.408,0.719-2.12
		c0.085-3.174,0.105-6.353,0.009-9.525c-0.023-0.77-0.396-1.693-0.922-2.25c-1.634-1.731-3.386-3.357-5.153-4.957
		c-3.185-2.887-6.4-5.741-9.644-8.561C28.058,26.002,27.425,25.981,26.611,25.726 M27.366,14.65
		c-0.092,2.549-1.002,4.247,0.996,5.916c4.743,3.958,9.226,8.227,13.884,12.289c0.354,0.308,1.269-0.028,1.923-0.065
		c-0.271-1.807,0.092-4.184-0.928-5.317c-3.297-3.662-7.017-6.964-10.757-10.193C31.175,16.149,29.336,15.633,27.366,14.65"/>
	<polygon clip-path="url(#SVGID_2_)" fill="#FFD034" points="0,71.333 11.667,69.81 11.667,2.066 0,0 	"/>
	<polygon clip-path="url(#SVGID_2_)" fill="#FFD034" points="113.042,0.542 101.375,2.064 101.375,69.809 113.042,71.875 	"/>
</g>
</svg>
