<svg version="1.1" id="svg-config-item" xmlns="http://www.w3.org/2000/svg" xmlns:xlink="http://www.w3.org/1999/xlink" x="0px" y="0px"
	 viewBox="0 0 102.357 77.149" enable-background="new 0 0 102.357 77.149"
	 xml:space="preserve">
<g>
	<clipPath id="SVGID_2_">
		<use xlink:href="#SVGID_1_"  overflow="visible"/>
	</clipPath>
	<path clip-path="url(#SVGID_2_)" fill="#FFFFFF" d="M7.381,0H94.77v67.744H7.469c-0.038-0.663-0.106-1.294-0.105-1.925
		 M52.845,33.607h0.023c0,9.314,0.001,18.627-0.002,27.941c-0.001,1.125-0.175,2.231,1.587,2.224
		c11.309-0.051,22.619-0.052,33.928-0.041c1.319,0.001,1.836-0.529,1.836-1.85c0.006-18.701,0.03-37.402,0.086-56.104
		c0.004-1.328-0.457-1.856-1.789-1.854C77.136,3.938,65.758,3.923,54.381,3.902C53.288,3.9,52.815,4.257,52.82,5.46
		C52.865,14.842,52.845,24.226,52.845,33.607 M48.243,63.648c0.058-0.631,0.12-0.995,0.121-1.359
		c0.01-18.912-0.008-37.827,0.058-56.74c0.006-1.751-0.883-1.652-2.078-1.649c-10.71,0.019-21.42,0.067-32.128-0.043
		c-2.165-0.023-2.725,0.629-2.696,2.738c0.133,9.657,0.122,19.317,0.125,28.976c0.003,8.646-0.047,17.29-0.059,25.936
		c-0.001,0.707,0.111,1.414,0.172,2.142H48.243z"/>
	<path clip-path="url(#SVGID_2_)" fill="#FFD034" d="M0.072,77.149c-0.497-4.008,1.611-6.592,5.423-6.595
		c31.274-0.023,61.021,0.017,92.296,0c3.352-0.002,4.756,3.216,4.546,6.595H0.072z"/>
	<path clip-path="url(#SVGID_2_)" fill="#FFFFFF" d="M58.619,18.779c3.709,3.272,7.105,6.29,10.526,9.28
		c4.538,3.969,9.152,7.855,13.598,11.925c0.896,0.821,1.606,2.284,1.677,3.493c0.214,3.739,0.078,7.498,0.078,11.784
		c-1.441-1.177-2.534-2.013-3.566-2.918c-5.237-4.594-10.469-9.195-15.684-13.814c-2.011-1.78-4.032-3.555-5.921-5.458
		c-0.485-0.488-0.665-1.454-0.679-2.205C58.584,26.954,58.619,23.041,58.619,18.779"/>
	<path clip-path="url(#SVGID_2_)" fill="#FFFFFF" d="M58.83,9.033c2.163-0.604,3.569,0.331,5.015,1.637
		c4.838,4.371,9.783,8.623,14.669,12.941c1.68,1.485,3.71,2.784,4.834,4.624c1.027,1.679,1.044,3.975,1.506,5.999
		c-0.266,0.097-0.531,0.194-0.797,0.291c-2.247-1.903-4.537-3.756-6.73-5.718c-5.775-5.167-11.479-10.416-17.281-15.552
		C58.687,12.054,58.374,10.77,58.83,9.033"/>
	<path clip-path="url(#SVGID_2_)" fill="#FFFFFF" d="M16.921,8.683h26.345v50.087H16.921V8.683z M21.297,23.66
		c0,4.658-0.02,8.989,0.03,13.319c0.006,0.443,0.339,0.984,0.684,1.303c1.039,0.961,2.167,1.825,3.244,2.745
		c3.722,3.18,7.431,6.376,11.164,9.544c0.508,0.432,1.122,0.738,1.687,1.102c0.251-0.706,0.701-1.407,0.719-2.12
		c0.085-3.174,0.105-6.353,0.009-9.525c-0.023-0.77-0.396-1.693-0.922-2.25c-1.634-1.731-3.386-3.357-5.153-4.957
		c-3.185-2.887-6.4-5.741-9.644-8.561C22.744,23.936,22.111,23.915,21.297,23.66 M22.052,12.584
		c-0.092,2.549-1.002,4.247,0.996,5.916c4.743,3.958,9.226,8.227,13.884,12.289c0.354,0.308,1.269-0.028,1.923-0.065
		c-0.271-1.807,0.092-4.184-0.928-5.317c-3.297-3.662-7.017-6.964-10.757-10.193C25.861,14.083,24.022,13.567,22.052,12.584"/>
</g>
</svg>
