<svg version="1.1" id="svg-config-item" xmlns="http://www.w3.org/2000/svg" xmlns:xlink="http://www.w3.org/1999/xlink" x="0px" y="0px"
	 viewBox="0 0 76.791 89.408" enable-background="new 0 0 76.791 89.408" xml:space="preserve">
<g>
	<clipPath id="SVGID_2_">
		<use xlink:href="#SVGID_1_"  overflow="visible"/>
	</clipPath>
	<path clip-path="url(#SVGID_2_)" fill="#FFD034" d="M8.888,52.654c-2.52,0-4.648,0.021-6.775-0.007
		C0.31,52.622-0.005,51.41,0,49.93c0.018-5.25,0.016-10.5,0.022-15.75c0.004-3.549-0.075-7.102,0.067-10.646
		c0.04-0.98,0.52-2.133,1.181-2.857c1.464-1.601,3.001-3.271,4.838-4.353c1.325-0.781,3.191-0.931,4.799-0.873
		c2.245,0.082,2.943-0.633,2.839-2.899C13.557,8.428,13.692,4.291,13.692,0h4.454v24.924c1.086,0.054,1.951,0.133,2.817,0.135
		c5.25,0.014,10.5,0.011,15.75,0.013c3.125,0.002,3.219,0.004,3.252-3.062c0.074-6.855,0.043-13.712,0.063-20.567
		c0.001-0.433,0.07-0.865,0.119-1.441h4.186c0,4.294,0.094,8.629-0.041,12.956c-0.063,2.013,0.746,2.832,2.574,2.462
		c3.972-0.802,6.347,1.718,8.873,4.008c1.696,1.536,2.186,3.391,2.132,5.687c-0.151,6.428-0.053,12.861-0.053,19.678
		c-0.939,0-1.788-0.001-2.636,0c-14.567,0.018-29.135,0.082-43.702,0.001c-2.137-0.012-2.736,0.725-2.614,2.671
		C8.971,49.13,8.888,50.807,8.888,52.654 M48.383,29.473c-0.067-0.189-0.134-0.379-0.201-0.568c-1.737,0-3.48,0.086-5.211-0.025
		c-1.709-0.11-3.068,0.295-4.378,1.504c-3.356,3.095-6.856,6.033-10.275,9.06c-0.322,0.284-0.483,0.75-0.941,1.492
		c1.87,0,3.332-0.073,4.784,0.018c2.134,0.134,3.899-0.181,5.478-1.979c1.548-1.76,3.659-3.015,5.447-4.578
		C44.899,32.811,46.621,31.119,48.383,29.473 M32.604,29.527c-0.077-0.199-0.155-0.398-0.232-0.597c-2.187,0-4.377-0.071-6.559,0.04
		c-0.734,0.037-1.578,0.375-2.145,0.848c-3.256,2.717-6.462,5.495-9.64,8.303c-0.755,0.668-1.336,1.533-2.4,2.779
		c2.384,0,4.13-0.041,5.872,0.012c1.595,0.049,2.846-0.239,4.069-1.564c1.631-1.768,3.774-3.054,5.597-4.659
		C29.042,33.039,30.797,31.253,32.604,29.527 M51.336,33.868c-1.624-0.062-7.204,4.788-8.029,7.105c2.283,0,4.471,0.098,6.637-0.073
		c0.501-0.039,1.275-0.962,1.329-1.535C51.444,37.545,51.336,35.7,51.336,33.868 M9.274,36.431c2.793-2.27,5.472-4.376,8.06-7.29
		c-9.942-0.38-8.563-1.289-8.391,6.707C8.945,35.909,9.008,35.967,9.274,36.431"/>
	<path clip-path="url(#SVGID_2_)" fill="#FFFFFF" d="M14.152,49.567h49.265v-14.63c1.99,0,3.744-0.033,5.497,0.01
		c1.448,0.035,7.682,5.649,7.841,7.049c0.074,0.657,0.012,1.329,0.012,1.994c0.002,14.419,0.006,28.837,0.003,43.256
		c0,0.511-0.05,1.021-0.095,1.889c-4.745,0-9.457,0.15-14.146-0.11c-1.117-0.062-2.105-1.586-3.249-2.277
		c-1.119-0.678-2.354-1.613-3.553-1.635c-6.799-0.123-13.604-0.079-20.403,0.104c-1.147,0.031-2.414,0.836-3.369,1.602
		c-1.799,1.441-3.438,2.766-6.032,2.57c-3.309-0.247-6.65-0.058-9.978-0.048c-1.24,0.003-2.127-0.234-2.121-1.823
		c0.048-12.421,0.045-24.842,0.065-37.264C13.888,50.122,13.985,49.99,14.152,49.567 M72.185,53.814
		c-0.624-0.063-1.121-0.159-1.618-0.158c-16.473,0.019-32.944,0.068-49.417,0.038c-1.765-0.004-2.07,0.728-2.059,2.255
		c0.056,7.534,0.095,15.07-0.016,22.603c-0.029,1.967,0.537,2.479,2.486,2.473c16.103-0.056,32.205,0.002,48.308,0.019
		c0.78,0.001,1.559-0.078,2.315-0.119V53.814z"/>
	<path clip-path="url(#SVGID_2_)" fill="#FFD034" d="M33.574,15.809c0.53,0.022,0.942,0.469,0.942,0.999v4.618H23.97
		c-0.17-6.538,3.682,0,0,0c-0.036-1.365-0.202-2.778-0.074-4.141c0.062-0.659,0.23-1.174,0.907-1.378"/>
	<path clip-path="url(#SVGID_2_)" fill="#FFFFFF" d="M63.44,70.829c0.04-3.511,0.009-7.022,0.009-10.479H28.317v14.308
		c1.154,0,2.1,0.006,3.046-0.001c9.46-0.063,18.92-0.111,28.38-0.199C64.152,74.417,63.396,74.766,63.44,70.829 M38.526,70.506
		h-6.152v-6h6.152V70.506z M48.383,70.35h-6.151v-6h6.151V70.35z M58.945,70.35h-6.152v-6h6.152V70.35z"/>
</g>
</svg>
