<svg version="1.1" id="svg-features-item" xmlns="http://www.w3.org/2000/svg" xmlns:xlink="http://www.w3.org/1999/xlink" x="0px" y="0px"
	  viewBox="0 0 22 24" enable-background="new 0 0 22 24" xml:space="preserve">
<g>
	<defs>
		<rect id="SVGID_1_" width="22" height="24"/>
	</defs>
	<clipPath id="SVGID_2_">
		<use xlink:href="#SVGID_1_"  overflow="visible"/>
	</clipPath>
	<path clip-path="url(#SVGID_2_)" fill="#1F587D" d="M5,18c1.122,0,2.171-0.185,3.025-0.483c0.031-0.523,0.113-1.032,0.241-1.525
		C7.275,16.324,6.127,16.5,5,16.5c-1.891,0-3.854-0.484-5-1.402v0.652C0,16.993,2.328,18,5,18"/>
	<path clip-path="url(#SVGID_2_)" fill="#1F587D" d="M12.008,11.078c0.581-0.337,1.207-0.6,1.868-0.783
		C12.744,10.072,11.713,9.669,11,9.098V9.75C11,10.249,11.386,10.705,12.008,11.078"/>
	<path clip-path="url(#SVGID_2_)" fill="#1F587D" d="M19.993,11.078C20.614,10.705,21,10.249,21,9.75V9.098
		c-0.714,0.571-1.744,0.974-2.876,1.197C18.785,10.478,19.412,10.741,19.993,11.078"/>
	<path clip-path="url(#SVGID_2_)" fill="#1F587D" d="M16,9.5c2.673,0,5-1.007,5-2.25V6.599C19.854,7.516,17.892,8,16,8
		c-1.891,0-3.854-0.484-5-1.401V7.25C11,8.493,13.328,9.5,16,9.5"/>
	<path clip-path="url(#SVGID_2_)" fill="#1F587D" d="M16,7c2.673,0,5-1.007,5-2.25V4.098C19.854,5.016,17.892,5.5,16,5.5
		c-1.891,0-3.854-0.484-5-1.402V4.75C11,5.993,13.328,7,16,7"/>
	<path clip-path="url(#SVGID_2_)" fill="#1F587D" d="M5,21.5c-1.891,0-3.854-0.484-5-1.402v0.652C0,21.993,2.328,23,5,23
		c1.656,0,3.177-0.388,4.096-0.978c-0.211-0.36-0.394-0.739-0.547-1.134C7.499,21.289,6.236,21.5,5,21.5"/>
	<path clip-path="url(#SVGID_2_)" fill="#1F587D" d="M15.999,12c-3.313,0-6,2.688-6,6c0,3.313,2.687,6,6,6c3.313,0,6-2.687,6-6
		C21.999,14.688,19.313,12,15.999,12 M17.944,17.764h-1.423v2.607h-1.043v-2.607h-1.423v-0.854h3.889V17.764z M17.944,16.482h-1.423
		h-1.043h-1.423v-0.854h3.889V16.482z"/>
	<path clip-path="url(#SVGID_2_)" fill="#1F587D" d="M5,20.5c1.222,0,2.358-0.218,3.246-0.565c-0.111-0.443-0.185-0.9-0.218-1.369
		C7.094,18.849,6.039,19,5,19c-1.891,0-3.854-0.484-5-1.401v0.651C0,19.493,2.328,20.5,5,20.5"/>
	<path clip-path="url(#SVGID_2_)" fill="#1F587D" d="M5,11c-2.672,0-5,1.007-5,2.25s2.328,2.25,5,2.25
		c1.445,0,2.775-0.301,3.705-0.769c0.311-0.689,0.714-1.328,1.198-1.898C9.453,11.79,7.364,11,5,11 M5.957,13.055h-0.85l-0.568,1.56
		H3.916l0.567-1.56h-0.85l0.186-0.51h2.323L5.957,13.055z M6.234,12.29h-0.85H4.761h-0.85l0.185-0.51H6.42L6.234,12.29z"/>
	<path clip-path="url(#SVGID_2_)" fill="#1F587D" d="M16,0c-2.672,0-5,1.007-5,2.25c0,1.243,2.328,2.25,5,2.25
		c2.674,0,5-1.007,5-2.25C21,1.007,18.674,0,16,0 M16.956,2.055h-0.85l-0.568,1.558h-0.623l0.567-1.558h-0.85l0.186-0.51h2.323
		L16.956,2.055z M17.234,1.29h-0.85h-0.623h-0.851l0.186-0.51h2.323L17.234,1.29z"/>
</g>
</svg>
