<svg version="1.1" id="svg-features-item" xmlns="http://www.w3.org/2000/svg" xmlns:xlink="http://www.w3.org/1999/xlink" x="0px" y="0px"
	  viewBox="0 0 116.899 109.433" enable-background="new 0 0 116.899 109.433"
	 xml:space="preserve">
<g>
	<defs>
		<rect id="SVGID_1_" width="116.899" height="109.433"/>
	</defs>
	<clipPath id="SVGID_2_">
		<use xlink:href="#SVGID_1_"  overflow="visible"/>
	</clipPath>
	<path clip-path="url(#SVGID_2_)" fill="#1F587D" d="M32.232,4.195v66.926c0,2.418,1.519,4.379,4.117,4.379l76.557-0.018
		c2.598,0,3.993-1.759,3.993-4.177V4.195c0-2.419-1.572-4.195-4.171-4.195L36.455,0.021C33.857,0.021,32.232,1.775,32.232,4.195
		 M70.359,70.422H37.62V5.077h32.739V70.422z M111.511,70.422H79.018l-0.245-32.454h6.553v-1.715h-6.553l0.245-31.177h32.493V70.422
		z"/>
	<path clip-path="url(#SVGID_2_)" fill="#1F587D" d="M54.02,47.333l-13.5-1.1l-5.7-10.8c-0.3-0.6-0.7-1.1-1.2-1.5
		c-0.2-0.2-0.4-0.3-0.6-0.5c-2.7-2.2-5.5-3.8-7-4.6c-0.2,0.4-1.7,3.9-2.7,5.4c0,0.1-0.1,0-0.1,0c-0.2-0.6-1-2.7-2.1-2.5
		c-0.1,0-0.1-0.1-0.1-0.1c0.9-0.7,3.1-2.5,4-3.5v-2.4c0.4-0.7,0.7-1.4,0.8-2.1c0.3,0,0.7-0.4,1.1-1.9c0.5-1.9,0-2.3-0.5-2.3
		c1.2-5.7-2-5.7-2-5.7c-0.3-1.2-2-2.4-3.5-2.1c-1.6,0.3-4.8,0-4.8,0c0,0.7,0.5,1.2,0.5,1.2c-2.9,1.7-2.2,5.6-1.9,6.7
		c-0.5,0-1,0.4-0.5,2.3c0.4,1.5,0.8,1.9,1.1,1.9c0.1,0.7,0.4,1.4,0.8,2.1v2.4c0.9,1,3.1,2.9,4,3.5c0.1,0.1,0,0.1-0.1,0.1
		c-1.2-0.2-2,1.9-2.2,2.5c0,0.1-0.1,0.1-0.1,0c-1-1.5-2.5-5-2.7-5.4c-1.5,0.8-4.3,2.4-7,4.6c-0.2,0.1-0.4,0.3-0.6,0.4
		c-0.6,0.5-1.1,1.1-1.4,1.8l-3.1,6.8l-2.6,5.5c-0.5,1-0.4,2.1,0.2,3l10.6,15.9l0.1,6.2l1.3,35.2c0,0.6,0.5,1.1,1.2,1.1h4
		c0.6,0,1.2-0.5,1.2-1.1l1.1-35.2h1.5l1.1,35.2c0,0.6,0.5,1.1,1.2,1.1h3.9c0.6,0,1.1-0.5,1.2-1.1l1.4-35.2l1.3-28.7l4.6,6.1
		c0.7,1,1.9,1.5,3.2,1.5l14.9-1.1c0.9-0.1,1.6-0.8,1.7-1.7C55.72,48.333,55.02,47.433,54.02,47.333 M6.72,50.133
		c-0.2-0.3-0.2-0.8,0-1.1l3.5-5.2l0.7,13.5L6.72,50.133z M66.12,29.333c-0.5-0.5-0.7-1.3-0.4-1.9l0.301-0.6
		c0.399-0.9-0.101-2-1.101-2.3l-0.6-0.2c-0.7-0.2-1.2-0.8-1.2-1.6v-0.7c0-0.9-0.8-1.6-1.7-1.6h-0.3l-0.8,0.1h-0.3
		c-0.601,0-1.2-0.3-1.5-0.9l-0.301-0.6c-0.3-0.6-0.899-0.9-1.5-0.9c-0.3,0-0.7,0.1-1,0.3l-0.5,0.4c-0.3,0.2-0.6,0.3-1,0.3
		s-0.7-0.1-1-0.3l-0.6-0.3c-0.3-0.2-0.7-0.3-1-0.3c-0.6,0-1.2,0.3-1.5,0.9l-0.3,0.6c-0.3,0.6-0.9,0.9-1.5,0.9h-0.3l-0.7-0.1h-0.3
		c-0.9,0-1.7,0.7-1.7,1.6v0.7c0,0.7-0.5,1.4-1.2,1.6l-0.6,0.2c-1,0.3-1.5,1.4-1.1,2.3l0.3,0.6c0.3,0.7,0.1,1.5-0.4,1.9l-0.7,0.3
		c-0.8,0.7-0.8,1.9,0,2.6l0.5,0.4c0.5,0.5,0.7,1.3,0.4,1.9l-0.3,0.6c-0.4,0.9,0.1,2,1.1,2.3l0.6,0.2c0.7,0.2,1.2,0.8,1.2,1.6v0.7
		c0,0.9,0.8,1.6,1.7,1.6h0.3l0.7-0.1h0.3c0.6,0,1.2,0.3,1.5,0.9l0.3,0.6c0.3,0.6,0.9,0.9,1.5,0.9c0.3,0,0.7-0.1,1-0.3l0.5-0.4
		c0.3-0.2,0.6-0.3,1-0.3c0.4,0,0.7,0.1,1,0.3l0.7,0.3c0.3,0.2,0.7,0.3,1,0.3c0.6,0,1.2-0.3,1.5-0.9l0.3-0.6c0.3-0.6,0.9-0.9,1.5-0.9
		h0.3l0.7,0.1h0.3c0.9,0,1.7-0.7,1.7-1.6v-0.7c0-0.7,0.5-1.4,1.2-1.6l0.6-0.2c1-0.3,1.5-1.4,1.101-2.3l-0.3-0.6
		c-0.301-0.7-0.101-1.5,0.399-1.9l0.5-0.4c0.8-0.7,0.8-1.9,0-2.6L66.12,29.333z M54.82,33.433l-2.1,2.1l-2.1-2.1l-2-2l2.1-2.1l2,2
		l4.8-4.7l2.1,2.1L54.82,33.433z"/>
</g>
</svg>
