<svg version="1.1" id="svg-features-item" xmlns="http://www.w3.org/2000/svg" xmlns:xlink="http://www.w3.org/1999/xlink" x="0px" y="0px"
	  viewBox="0 0 54.2 71" enable-background="new 0 0 54.2 71" xml:space="preserve">
<g>
	<defs>
		<rect id="SVGID_1_" width="54.2" height="71"/>
	</defs>
	<clipPath id="SVGID_2_">
		<use xlink:href="#SVGID_1_"  overflow="visible"/>
	</clipPath>
	<path clip-path="url(#SVGID_2_)" d="M19,54c-0.2-0.1-0.2-0.3-0.2-0.4c0.2-0.6,0-1.199-0.4-1.699s-1.1-0.801-1.7-0.7
		c-0.2,0-0.4-0.101-0.4-0.3c-0.1-0.601-0.6-1.101-1.2-1.4c-0.6-0.2-1.2-0.1-1.6,0.2c-0.1,0.1-0.3,0.1-0.4,0
		c-0.4-0.4-1-0.601-1.6-0.5c-0.6,0.1-1.1,0.5-1.4,1c-0.1,0.2-0.3,0.2-0.4,0.2c-0.6-0.2-1.2,0-1.7,0.399c-0.5,0.4-0.8,1.101-0.7,1.7
		c0,0.2-0.1,0.4-0.3,0.4C6.4,53,5.9,53.5,5.6,54.1C5.4,54.7,5.5,55.3,5.8,55.7c0.1,0.1,0.1,0.3,0,0.399c-0.4,0.4-0.6,1-0.5,1.601
		c0.1,0.6,0.5,1.1,1,1.399C6.5,59.2,6.5,59.4,6.5,59.5c-0.2,0.6,0,1.2,0.4,1.7S8,62,8.6,61.9C8.8,61.9,9,62,9,62.2
		c0.1,0.6,0.6,1.1,1.2,1.399c0.6,0.2,1.2,0.101,1.6-0.199c0.1-0.101,0.3-0.101,0.4,0c0.4,0.399,1,0.6,1.6,0.5
		c0.6-0.101,1.1-0.5,1.4-1c0.1-0.2,0.3-0.2,0.4-0.2c0.6,0.2,1.2,0,1.7-0.4c0.5-0.399,0.8-1.1,0.7-1.7c0-0.199,0.1-0.399,0.3-0.399
		c0.6-0.101,1.1-0.601,1.4-1.2c0.2-0.6,0.1-1.2-0.2-1.6c-0.1-0.101-0.1-0.301,0-0.4c0.4-0.4,0.6-1,0.5-1.6
		C19.9,54.8,19.5,54.2,19,54"/>
	<path clip-path="url(#SVGID_2_)" d="M52.2,0H2C0.9,0,0,0.9,0,2v67c0,1.1,0.9,2,2,2h50.2c1.1,0,2-0.9,2-2V2
		C54.2,0.9,53.3,0,52.2,0 M50.2,65.5c0,0.8-0.7,1.5-1.5,1.5h-24h0.2c0.2,0,0.3-0.3,0.2-0.4L21,61.5c-0.1-0.1-0.3-0.2-0.5,0
		c-0.2,0.1-0.4,0.3-0.5,0.4c-0.1,0-0.1,0.1-0.1,0.199c-0.2,0.801-0.6,1.5-1.3,2C18,64.6,17.2,64.9,16.5,64.9c-0.1,0-0.2,0-0.2,0.1
		c-0.2,0.2-0.5,0.5-0.6,0.5c-0.1,0.1-0.2,0.3-0.1,0.4l1,1.199h-11c-0.8,0-1.5-0.699-1.5-1.5V51.5l0.2,0.2c0.1,0.1,0.3,0.1,0.4,0
		c0.1-0.101,0.4-0.4,0.6-0.5c0.1,0,0.1-0.101,0.1-0.2c0.2-0.7,0.6-1.4,1.2-1.9c0.7-0.5,1.5-0.8,2.3-0.8c0.1,0,0.2,0,0.2-0.1
		c0.1-0.101,0.3-0.3,0.5-0.4c0.1-0.1,0.2-0.3,0.1-0.5l-4.1-5.1C5.5,42,5.2,42.1,5.1,42.3l-1,2.3V5.5C4.1,4.7,4.8,4,5.6,4h43.1
		c0.8,0,1.5,0.7,1.5,1.5V65.5z"/>
	<path clip-path="url(#SVGID_2_)" d="M13,13.5h28.1c1.101,0,2-0.9,2-2s-0.899-2-2-2H13c-1.1,0-2,0.9-2,2
		S11.9,13.5,13,13.5"/>
	<path clip-path="url(#SVGID_2_)" d="M45.9,18.4H8.3c-0.8,0-1.5,0.7-1.5,1.5c0,0.8,0.7,1.5,1.5,1.5H45.9
		c0.8,0,1.5-0.7,1.5-1.5C47.4,19.1,46.7,18.4,45.9,18.4"/>
	<path clip-path="url(#SVGID_2_)" d="M45.9,26.1H8.3c-0.8,0-1.5,0.7-1.5,1.5c0,0.8,0.7,1.5,1.5,1.5H45.9
		c0.8,0,1.5-0.7,1.5-1.5C47.4,26.8,46.7,26.1,45.9,26.1"/>
	<path clip-path="url(#SVGID_2_)" d="M45.9,33.8H8.3c-0.8,0-1.5,0.7-1.5,1.5s0.7,1.5,1.5,1.5H45.9
		c0.8,0,1.5-0.7,1.5-1.5C47.4,34.4,46.7,33.8,45.9,33.8"/>
	<path clip-path="url(#SVGID_2_)" d="M46.1,54.2l-3-1.2c0.101-1.1,0.101-2.3-0.1-3.4c-0.1-0.699-0.6-1.199-1.3-1.3
		C41.1,48.2,40.6,48.5,40.3,49c0.101-1.8,0.101-3.7,0-5.5c0-0.7-0.5-1.2-1.1-1.4C38.6,41.9,37.9,42.2,37.5,42.8
		c-1.3,2.101-1.8,4.5-2.3,6.7c0,0.2-0.101,0.5-0.101,0.7c-0.199-0.101-0.5-0.101-0.8,0c-0.6,0.1-1.1,0.6-1.2,1.3v0.7
		c-0.1,0.5,0.101,1,0.5,1.3c0.2,0.1,0.301,0.3,0.5,0.3c-0.3,0.7-0.699,1.4-1.1,2c-0.5,0.601-1,0.9-1.4,0.9
		C30.8,56.6,30.1,57.3,30,58.1c-0.1,0.801,0.6,1.5,1.4,1.601c1.399,0.1,2.8-0.601,3.899-2c0.5-0.601,0.9-1.3,1.3-2
		c-0.3,1.6-0.6,3.1-1,4.6C35.4,61,35.8,61.8,36.5,62c0.2,0.1,0.4,0.1,0.6,0.1c0.5,0,1-0.3,1.301-0.699C39.3,59.8,40.2,58.2,41,56.6
		h0.3c0.5-0.1,0.9-0.3,1.101-0.699l2.6,1c0.8,0.3,1.6-0.101,1.9-0.9C47.3,55.3,46.9,54.5,46.1,54.2"/>
</g>
</svg>
