<svg version="1.1" id="svg-features-item" xmlns="http://www.w3.org/2000/svg" xmlns:xlink="http://www.w3.org/1999/xlink" x="0px" y="0px"
	  viewBox="0 0 81.334 87.258" enable-background="new 0 0 81.334 87.258" xml:space="preserve">
<g>
	<defs>
		<rect id="SVGID_1_" width="81.334" height="87.258"/>
	</defs>
	<clipPath id="SVGID_2_">
		<use xlink:href="#SVGID_1_"  overflow="visible"/>
	</clipPath>
	<path clip-path="url(#SVGID_2_)" d="M72,35.401h7.334c1.105,0,2,0.895,2,2v47.857c0,1.105-0.895,2-2,2H72
		c-1.105,0-2-0.895-2-2V37.401C70,36.296,70.895,35.401,72,35.401"/>
	<path clip-path="url(#SVGID_2_)" d="M54.666,54.726H62c1.105,0,2,0.896,2,2v28.532c0,1.105-0.895,2-2,2h-7.334
		c-1.105,0-2-0.895-2-2V56.726C52.666,55.621,53.561,54.726,54.666,54.726"/>
	<path clip-path="url(#SVGID_2_)" d="M37,64.389h7.334c1.105,0,2,0.896,2,2v18.869c0,1.105-0.895,2-2,2H37
		c-1.105,0-2-0.895-2-2V66.389C35,65.284,35.895,64.389,37,64.389"/>
	<path clip-path="url(#SVGID_2_)" d="M19.5,74.052h7.334c1.105,0,2,0.896,2,2v9.206c0,1.105-0.895,2-2,2H19.5
		c-1.105,0-2-0.895-2-2v-9.206C17.5,74.947,18.395,74.052,19.5,74.052"/>
	<path clip-path="url(#SVGID_2_)" d="M1,84.521h9.334c0.552,0,1,0.448,1,1v0.737c0,0.552-0.448,1-1,1H1
		c-0.552,0-1-0.448-1-1v-0.737C0,84.969,0.448,84.521,1,84.521"/>
	<path clip-path="url(#SVGID_2_)" d="M61.615,51.511c-1.938,0.139-3.741-0.414-3.741-0.414s0-1.244-0.831-2.073
		c-0.831-0.83-0.276-7.048-0.416-9.951c-0.139-2.901-7.204-7.462-8.312-9.121c-1.109-1.658-1.524,0,0-6.219
		c1.523-6.219-0.693-10.642-1.664-12.023c-0.969-1.382-2.909-2.902-0.831-2.488c2.079,0.415,2.356,0,2.079-1.244
		s0.416-1.658,0.416-1.658s1.523-0.415,0.416-1.244C47.623,4.246,47.9,1.344,47.9,1.344s0.692-0.691-2.91-1.243
		c-3.602-0.553-5.127,1.243-4.987,3.731c0.139,2.488,1.246,3.731,1.246,3.731s-1.938,1.935-3.74,6.219
		c-1.801,4.284-1.108,20.04-0.832,21.975C37.371,36.724,38.755,37,38.755,37s1.108,8.43,1.248,12.438
		c-5.542,7.188-4.987,12.022-4.987,12.022h0.414c0,0-0.277,0.968,0.416,1.658c0.693,0.69,2.909,0.415,2.909,0.415l0.832-0.829
		c0,0,3.325,1.936,6.234,1.657c2.91-0.274,3.188-2.072,1.662-2.072c-1.522,0-4.156-1.242-4.156-1.242s0-1.245-0.831-2.488
		c0.14-3.317,4.156-9.536,4.156-9.536V38.658l4.157,4.975l0.832,10.366l0.416,0.414c0,0-0.14-0.138-0.416,0.829
		c1.802,0.829,3.741-0.553,4.571-1.243c0.831-0.69,4.019,0.414,5.819-0.828C63.832,51.926,63.556,51.372,61.615,51.511"/>
	<path clip-path="url(#SVGID_2_)" d="M12,13.401c5.514,0,10,4.486,10,10s-4.486,10-10,10s-10-4.486-10-10
		S6.486,13.401,12,13.401 M12,11.401c-6.627,0-12,5.373-12,12s5.373,12,12,12s12-5.373,12-12S18.627,11.401,12,11.401 M17.848,23.86
		c0.202,0.038,0.202,0.333,0.001,0.372c-1.907,0.361-6.045,1.111-6.547,1.111c-0.719,0-1.301-0.582-1.301-1.301
		c0-0.512,0.77-5.447,1.125-7.445c0.034-0.192,0.312-0.181,0.343,0.014l0.985,6.238L17.848,23.86z"/>
</g>
</svg>
