<?xml version="1.0" encoding="utf-8"?>
<!-- Generator: Adobe Illustrator 16.0.0, SVG Export Plug-In . SVG Version: 6.00 Build 0)  -->
<!DOCTYPE svg PUBLIC "-//W3C//DTD SVG 1.1//EN" "http://www.w3.org/Graphics/SVG/1.1/DTD/svg11.dtd">
<svg version="1.1" id="Layer_1" xmlns="http://www.w3.org/2000/svg" xmlns:xlink="http://www.w3.org/1999/xlink" x="0px" y="0px"
	 width="33.082px" height="32.163px" viewBox="0 0 33.082 32.163" enable-background="new 0 0 33.082 32.163" xml:space="preserve">
<g>
	<defs>
		<rect id="SVGID_1_" y="0" width="33.082" height="32.163"/>
	</defs>
	<clipPath id="SVGID_2_">
		<use xlink:href="#SVGID_1_"  overflow="visible"/>
	</clipPath>
	<path clip-path="url(#SVGID_2_)" fill="#1F587D" d="M5,22c2.673,0,5-1.007,5-2.25v-0.65c-1.146,0.917-3.108,1.4-5,1.4
		c-1.891,0-3.854-0.483-5-1.4v0.65C0,20.993,2.328,22,5,22"/>
	<path clip-path="url(#SVGID_2_)" fill="#1F587D" d="M5,19.5c2.673,0,5-1.007,5-2.25v-0.651C8.854,17.516,6.892,18,5,18
		c-1.891,0-3.854-0.483-5-1.401v0.651C0,18.493,2.328,19.5,5,19.5"/>
	<path clip-path="url(#SVGID_2_)" fill="#1F587D" d="M5,12.5c-2.672,0-5,1.007-5,2.25C0,15.993,2.329,17,5,17
		c2.673,0,5-1.007,5-2.25C10,13.507,7.673,12.5,5,12.5 M5.957,14.555h-0.85l-0.568,1.558H3.916l0.567-1.558h-0.85l0.186-0.51h2.323
		L5.957,14.555z M6.234,13.79h-0.85H4.761h-0.85l0.185-0.51H6.42L6.234,13.79z"/>
	<path clip-path="url(#SVGID_2_)" fill="#1F587D" d="M16.458,22c2.673,0,5-1.007,5-2.25v-0.65c-1.146,0.917-3.107,1.4-5,1.4
		c-1.891,0-3.854-0.483-5-1.4v0.65C11.458,20.993,13.786,22,16.458,22"/>
	<path clip-path="url(#SVGID_2_)" fill="#1F587D" d="M16.458,19.5c2.673,0,5-1.007,5-2.25v-0.651c-1.146,0.918-3.107,1.401-5,1.401
		c-1.891,0-3.854-0.483-5-1.401v0.651C11.458,18.493,13.786,19.5,16.458,19.5"/>
	<path clip-path="url(#SVGID_2_)" fill="#1F587D" d="M16.459,12.5c-2.672,0-5,1.007-5,2.25c0,1.243,2.328,2.25,5,2.25
		c2.673,0,5-1.007,5-2.25C21.459,13.507,19.132,12.5,16.459,12.5 M17.415,14.555h-0.851l-0.568,1.558h-0.623l0.567-1.558h-0.85
		l0.186-0.51H17.6L17.415,14.555z M17.692,13.79h-0.85H16.22h-0.85l0.185-0.51h2.324L17.692,13.79z"/>
	<path clip-path="url(#SVGID_2_)" fill="#1F587D" d="M27.917,22c2.673,0,5-1.007,5-2.25v-0.65c-1.146,0.917-3.108,1.4-5,1.4
		s-3.854-0.483-5-1.4v0.65C22.917,20.993,25.245,22,27.917,22"/>
	<path clip-path="url(#SVGID_2_)" fill="#1F587D" d="M27.917,19.5c2.673,0,5-1.007,5-2.25v-0.651c-1.146,0.918-3.108,1.401-5,1.401
		s-3.854-0.483-5-1.401v0.651C22.917,18.493,25.245,19.5,27.917,19.5"/>
	<path clip-path="url(#SVGID_2_)" fill="#1F587D" d="M27.917,12.5c-2.672,0-5,1.007-5,2.25c0,1.243,2.328,2.25,5,2.25
		c2.673,0,5-1.007,5-2.25C32.917,13.507,30.59,12.5,27.917,12.5 M28.873,14.555h-0.85l-0.568,1.558h-0.623l0.567-1.558h-0.851
		l0.187-0.51h2.322L28.873,14.555z M29.151,13.79h-0.851h-0.623h-0.85l0.185-0.51h2.324L29.151,13.79z"/>
	<path clip-path="url(#SVGID_2_)" fill="#1F587D" d="M5.166,9.5c2.673,0,5-1.007,5-2.25V6.599C9.02,7.516,7.058,8,5.166,8
		c-1.891,0-3.854-0.484-5-1.401V7.25C0.166,8.493,2.493,9.5,5.166,9.5"/>
	<path clip-path="url(#SVGID_2_)" fill="#1F587D" d="M5.166,7c2.673,0,5-1.007,5-2.25V4.098C9.02,5.016,7.058,5.5,5.166,5.5
		c-1.891,0-3.854-0.484-5-1.402V4.75C0.166,5.993,2.493,7,5.166,7"/>
	<path clip-path="url(#SVGID_2_)" fill="#1F587D" d="M5.166,0c-2.672,0-5,1.007-5,2.25c0,1.243,2.328,2.25,5,2.25
		c2.673,0,5-1.007,5-2.25C10.166,1.007,7.839,0,5.166,0 M6.122,2.055h-0.85L4.704,3.613H4.081l0.567-1.558h-0.85l0.186-0.51h2.323
		L6.122,2.055z M6.4,1.29H5.55H4.927h-0.85l0.185-0.51h2.324L6.4,1.29z"/>
	<path clip-path="url(#SVGID_2_)" fill="#1F587D" d="M16.624,9.5c2.673,0,5-1.007,5-2.25V6.599C20.478,7.516,18.516,8,16.624,8
		c-1.891,0-3.854-0.484-5-1.401V7.25C11.624,8.493,13.952,9.5,16.624,9.5"/>
	<path clip-path="url(#SVGID_2_)" fill="#1F587D" d="M16.624,7c2.673,0,5-1.007,5-2.25V4.098c-1.146,0.918-3.108,1.402-5,1.402
		c-1.891,0-3.854-0.484-5-1.402V4.75C11.624,5.993,13.952,7,16.624,7"/>
	<path clip-path="url(#SVGID_2_)" fill="#1F587D" d="M16.624,0c-2.672,0-5,1.007-5,2.25c0,1.243,2.328,2.25,5,2.25
		c2.673,0,5-1.007,5-2.25C21.624,1.007,19.297,0,16.624,0 M17.58,2.055h-0.85l-0.568,1.558h-0.623l0.567-1.558h-0.851l0.186-0.51
		h2.323L17.58,2.055z M17.858,1.29h-0.851h-0.623h-0.85l0.185-0.51h2.324L17.858,1.29z"/>
	<path clip-path="url(#SVGID_2_)" fill="#1F587D" d="M28.082,9.5c2.673,0,5-1.007,5-2.25V6.599C31.937,7.516,29.974,8,28.082,8
		c-1.891,0-3.854-0.484-5-1.401V7.25C23.082,8.493,25.41,9.5,28.082,9.5"/>
	<path clip-path="url(#SVGID_2_)" fill="#1F587D" d="M28.082,7c2.673,0,5-1.007,5-2.25V4.098c-1.146,0.918-3.108,1.402-5,1.402
		c-1.891,0-3.854-0.484-5-1.402V4.75C23.082,5.993,25.41,7,28.082,7"/>
	<path clip-path="url(#SVGID_2_)" fill="#1F587D" d="M28.082,0c-2.672,0-5,1.007-5,2.25c0,1.243,2.328,2.25,5,2.25
		c2.674,0,5-1.007,5-2.25C33.082,1.007,30.756,0,28.082,0 M29.038,2.055h-0.85L27.62,3.613h-0.623l0.567-1.558h-0.85l0.186-0.51
		h2.323L29.038,2.055z M29.316,1.29h-0.85h-0.623h-0.851l0.186-0.51h2.324L29.316,1.29z"/>
	<path clip-path="url(#SVGID_2_)" fill="#1F587D" d="M22.156,29.054H0.448c-0.242,0-0.438-0.196-0.438-0.438
		c0-0.242,0.196-0.438,0.438-0.438h21.708c0.241,0,0.437,0.195,0.437,0.438C22.593,28.858,22.397,29.054,22.156,29.054"/>
	<path clip-path="url(#SVGID_2_)" fill="#1F587D" d="M21.232,30.214V29.69l1.356-1.074l-1.355-1.267v-0.331
		c0-0.154,0.167-0.25,0.3-0.173l2.769,1.599c0.134,0.077,0.134,0.27,0,0.347l-2.77,1.598C21.399,30.464,21.232,30.369,21.232,30.214
		"/>
	<path clip-path="url(#SVGID_2_)" fill="#1F587D" d="M29.37,25.662c1.625,0,2.955,1.329,2.955,2.954c0,1.627-1.33,2.955-2.955,2.955
		s-2.955-1.328-2.955-2.955C26.415,26.991,27.745,25.662,29.37,25.662 M29.37,25.07c-1.949,0-3.546,1.597-3.546,3.546
		c0,1.951,1.597,3.547,3.546,3.547c1.95,0,3.546-1.596,3.546-3.547C32.916,26.667,31.32,25.07,29.37,25.07 M31.085,28.764
		c0.059,0,0.059,0.089,0,0.118c-0.562,0.118-1.773,0.325-1.922,0.325c-0.207,0-0.384-0.178-0.384-0.385
		c0-0.147,0.236-1.596,0.325-2.187c0-0.059,0.089-0.059,0.089,0l0.295,1.832L31.085,28.764z"/>
	<path clip-path="url(#SVGID_2_)" fill="#1F587D" d="M15.634,30.007L15.634,30.007c-0.138,0-0.25-0.112-0.25-0.25v-2.281
		c0-0.138,0.112-0.25,0.25-0.25s0.25,0.112,0.25,0.25v2.281C15.884,29.895,15.772,30.007,15.634,30.007"/>
	<path clip-path="url(#SVGID_2_)" fill="#1F587D" d="M8.034,30.007L8.034,30.007c-0.138,0-0.25-0.112-0.25-0.25v-2.281
		c0-0.138,0.112-0.25,0.25-0.25c0.138,0,0.25,0.112,0.25,0.25v2.281C8.284,29.895,8.172,30.007,8.034,30.007"/>
	<path clip-path="url(#SVGID_2_)" fill="#1F587D" d="M2.85,28.617c0,0.768-0.623,1.39-1.39,1.39c-0.768,0-1.391-0.622-1.391-1.39
		c0-0.769,0.623-1.391,1.391-1.391C2.227,27.226,2.85,27.848,2.85,28.617"/>
</g>
</svg>
