<?xml version="1.0" encoding="utf-8"?>
<!-- Generator: Adobe Illustrator 16.0.0, SVG Export Plug-In . SVG Version: 6.00 Build 0)  -->
<!DOCTYPE svg PUBLIC "-//W3C//DTD SVG 1.1//EN" "http://www.w3.org/Graphics/SVG/1.1/DTD/svg11.dtd">
<svg version="1.1" id="Layer_1" xmlns="http://www.w3.org/2000/svg" xmlns:xlink="http://www.w3.org/1999/xlink" x="0px" y="0px"
	 width="2933.5px" height="390.444px" viewBox="0 0 2933.5 390.444" enable-background="new 0 0 2933.5 390.444"
	 xml:space="preserve">
<g>
	<defs>
		<rect id="SVGID_1_" width="2933.5" height="390.444"/>
	</defs>
	<clipPath id="SVGID_2_">
		<use xlink:href="#SVGID_1_"  overflow="visible"/>
	</clipPath>
	<path clip-path="url(#SVGID_2_)" fill="#FFFFFF" d="M1136.622,36.894c-21.659-16.922-50.104-25.387-85.336-25.387
		c-45.255,0-78.832,12.136-100.73,36.407c-21.902,24.271-34.467,56.31-37.699,96.107l94.064,13.392
		c2.098-21.762,6.909-37.009,14.425-45.753c7.515-8.74,17.007-13.113,28.486-13.113c10.666,0,18.625,2.838,23.879,8.51
		c5.25,5.675,7.879,13.626,7.879,23.852c0,10.231-6.545,21.482-19.637,33.756c-24.568,23.435-40.365,39.802-47.396,49.099
		c-7.03,9.303-12.326,19.577-15.878,30.827c-3.558,11.255-5.334,25.902-5.334,43.939v9.247h92.147
		c0.131-13.878,2.254-25.201,6.401-33.937c4.281-9.019,14.583-20.965,30.911-35.849c23.432-21.203,38.948-39.148,46.547-53.842
		c7.594-14.691,11.393-29.942,11.393-45.753C1180.744,90.274,1166.035,59.77,1136.622,36.894"/>
	<path clip-path="url(#SVGID_2_)" fill="#0072BB" d="M1142.239,27.374C1118.989,9.209,1088.388,0,1051.286,0
		c-47.72,0-83.944,13.332-107.667,39.626c-23.573,26.123-37.273,60.886-40.719,103.325l-0.902,11.119l113.745,16.194l1.117-11.583
		c1.807-18.744,5.816-32.205,11.594-38.926c5.69-6.617,12.483-9.7,21.378-9.7c7.876,0,13.767,1.865,17.032,5.39
		c3.224,3.485,4.726,8.399,4.726,15.464c0,6.37-5.678,15.201-16.019,24.897c-25.214,24.051-41.097,40.54-48.56,50.408
		c-7.811,10.336-13.777,21.927-17.73,34.445c-3.939,12.461-5.937,28.567-5.937,47.872v9.247h0.011v3.833H0v5h988.354v-8.833h-0.011
		v-9.247c0-18.632,1.896-34.077,5.636-45.905c3.743-11.854,9.397-22.835,16.804-32.637c7.285-9.634,22.978-25.907,47.978-49.755
		c11.84-11.099,17.828-20.956,17.828-29.325c0-8.643-2.062-15.074-6.303-19.658c-4.27-4.61-11.153-6.949-20.455-6.949
		c-10.177,0-18.333,3.731-24.932,11.406c-6.672,7.761-11.049,22.006-13.01,42.338l-0.558,5.792l-103.905-14.792l0.452-5.56
		c3.331-41.027,16.523-74.576,39.208-99.716c22.759-25.226,57.817-38.016,104.199-38.016c36.083,0,65.739,8.875,88.144,26.38
		c30.729,23.899,46.314,56.289,46.314,96.265c0,16.786-4.07,33.168-12.097,48.694c-7.988,15.447-23.608,33.576-47.753,55.424
		c-15.708,14.317-25.676,25.789-29.613,34.082c-3.726,7.849-5.668,18.341-5.796,31.18h5.006c0.124-11.85,1.855-21.42,5.179-28.422
		c2.484-5.233,9.415-15.091,28.314-32.316c24.638-22.293,40.652-40.939,48.96-57.005c8.493-16.428,12.8-33.801,12.8-51.636
		C1190.744,86.396,1174.422,52.404,1142.239,27.374"/>
	<polygon clip-path="url(#SVGID_2_)" fill="#0072BB" points="1095.833,385.444 1095.833,314.111 997.667,314.111 997.667,319.111 
		1090.833,319.111 1090.833,390.444 2933.5,390.444 2933.5,385.444 	"/>
	<rect x="998.667" y="325.612" clip-path="url(#SVGID_2_)" fill="#FFFFFF" width="84.333" height="64.832"/>
</g>
</svg>
