<svg version="1.1" id="svg-item-production" xmlns="http://www.w3.org/2000/svg" xmlns:xlink="http://www.w3.org/1999/xlink" x="0px" y="0px"
	 viewBox="-898.5 485.5 110 90" enable-background="new -898.5 485.5 110 90" xml:space="preserve">
<path fill="#1F587D" d="M-793.5,485.5h-100c-2.8,0-5,2.2-5,5v80c0,2.8,2.2,5,5,5h100c2.8,0,5-2.2,5-5v-80
	C-788.5,487.7-790.8,485.5-793.5,485.5z M-866,569.5h-25.5v-58h25.5V569.5z M-828,548.2h-31v-36.7h31v27h-4.8v2h4.8V548.2z
	 M-795.5,569.5H-821v-58h25.5V569.5z M-795.5,505.5h-96v-14h96V505.5z"/>
</svg>
