<svg version="1.1" id="svg-callback" xmlns="http://www.w3.org/2000/svg" xmlns:xlink="http://www.w3.org/1999/xlink" x="0px" y="0px"
	 viewBox="0 0 85.2 85" enable-background="new 0 0 85.2 85" xml:space="preserve">
<g>
	<defs>
		<rect id="SVGID_1_" width="85.2" height="85"/>
	</defs>
	<clipPath id="SVGID_2_">
		<use xlink:href="#SVGID_1_"  overflow="visible"/>
	</clipPath>
	<path clip-path="url(#SVGID_2_)" fill="#1F587D" d="M72.5,26.2c4.2,7.4-0.1,22.1-14.5,33.9c-9.7,8-18.3,12-25.5,12
		c-4.2,0-7.9-1.4-11.3-4.2c-3.3-2.7-5-5.3-4.9-7.4c0.1-1.6,1.3-3.2,3.6-4.7l0.6-0.4c2.5-1.6,4.9-3.1,7.1-3.1c1.2,0,3.1,0.4,5.3,3.6
		c1.6,2.3,3.5,4.4,6.5,4.4c3.1,0,7.1-2.3,13.2-7.7c4.1-3.6,8.8-8.4,8.4-13.3c-0.2-2.6-1.8-4.9-4.8-6.9c-1.1-0.7-1.6-1.5-1.8-2.6
		c-0.3-2.1,1.2-5.1,4.2-8.6c2.4-2.8,4.1-4,5.5-4C66.5,17.4,69.2,20.3,72.5,26.2 M29.3,38.6c8.6,0,15.6-5.6,15.6-12.6
		c0-1.4-0.3-2.8-0.8-4.1c-0.1-0.1-0.1-0.3,0-0.6c0.3-0.8,2.7-2,4.4-2.8c-2.7-0.3-7.5-1-8.3-1.6c-2.9-2.2-6.7-3.5-10.8-3.5
		c-8.6,0-15.6,5.6-15.6,12.6S20.8,38.6,29.3,38.6 M42.6,0C19.1,0,0,19,0,42.5S19.1,85,42.6,85s42.6-19,42.6-42.5
		C85.2,19.1,66.1,0,42.6,0 M29.3,12.6c4.2,0,8.2,1.3,11.3,3.7c0.6,0.4,5.3,1.2,9.5,1.6l1.7,0.2l-1.6,0.7c-2.4,1-5.1,2.4-5.4,2.9
		c0.6,1.4,0.9,2.9,0.9,4.4c0,7.4-7.4,13.5-16.4,13.5s-16.4-6-16.4-13.5S20.3,12.6,29.3,12.6 M59.7,62.2
		c-10.3,8.4-19.4,12.6-27.2,12.6c-4.8,0-9.1-1.6-13-4.8c-4.1-3.3-6-6.6-5.8-9.6c0.2-2.6,1.8-4.8,4.9-6.8l0.6-0.4
		c2.7-1.7,5.5-3.5,8.5-3.5c2.8,0,5.3,1.6,7.5,4.7c1.6,2.4,2.8,3.2,4.3,3.2c2.4,0,6-2.2,11.4-7c3.4-3,7.8-7.4,7.5-11.1
		c-0.1-1.8-1.3-3.4-3.6-4.8c-1.7-1.1-2.7-2.6-3-4.4c-0.4-2.9,1.2-6.5,4.8-10.7c2.2-2.5,4.6-4.9,7.6-4.9c3.4,0,6.5,3,10.6,10.2
		c2.4,4.3,2.4,10.5,0,17C73.1,47,68.9,54.6,59.7,62.2"/>
</g>
<g>
	<path fill="#FFFFFF" d="M26.7,29.5c0-1.1,0.2-1.9,0.6-2.4s1.1-1.2,2.1-1.9c0.5-0.3,0.9-0.7,1.2-1.2s0.5-1,0.5-1.7
		c0-0.7-0.2-1.2-0.5-1.6s-0.9-0.6-1.5-0.6c-0.5,0-1,0.2-1.3,0.5s-0.5,0.8-0.6,1.4h-3.9l0-0.1c0-1.6,0.5-2.8,1.6-3.7s2.5-1.2,4.2-1.2
		c1.9,0,3.3,0.5,4.4,1.4s1.6,2.2,1.6,3.8c0,1-0.3,1.9-0.9,2.7s-1.3,1.5-2.2,1.9c-0.5,0.3-0.8,0.7-1,1.1s-0.3,0.9-0.3,1.5H26.7z
		 M30.6,34.4h-3.9v-3.2h3.9V34.4z"/>
</g>
</svg>
