<svg version="1.1" id="svg-search" xmlns="http://www.w3.org/2000/svg" xmlns:xlink="http://www.w3.org/1999/xlink" x="0px" y="0px"
	 viewBox="-932 507.5 54 54" enable-background="new -932 507.5 54 54" xml:space="preserve">
<path fill="#444341" d="M-910,507.5c-12.1,0-22,9.9-22,22s9.9,22,22,22s22-9.9,22-22S-897.9,507.5-910,507.5z M-910,547.5
	c-9.9,0-18-8.1-18-18s8.1-18,18-18s18,8.1,18,18S-900.1,547.5-910,547.5z M-878.6,560.9c0.4-0.4,0.6-0.9,0.6-1.4s-0.2-1-0.6-1.4
	l-15.8-15.9c-0.8-0.8-2-0.8-2.8,0c-0.4,0.4-0.6,0.9-0.6,1.4s0.2,1,0.6,1.4l15.9,15.9c0.3,0.4,0.8,0.6,1.3,0.6
	S-879,561.3-878.6,560.9z"/>
</svg>
