<svg version="1.2" baseProfile="tiny" id="svg-burger-callback"
	 xmlns="http://www.w3.org/2000/svg" xmlns:xlink="http://www.w3.org/1999/xlink" x="0px" y="0px" viewBox="-901.4 485.7 85.2 85"
	 overflow="scroll" xml:space="preserve">
<g>
	<path fill="#1F587D" d="M-828.9,511.9c4.2,7.4-0.1,22.1-14.5,33.9c-9.7,8-18.3,12-25.5,12c-4.2,0-7.9-1.4-11.3-4.2
		c-3.3-2.7-5-5.3-4.9-7.4c0.1-1.6,1.3-3.2,3.6-4.7l0.6-0.4c2.5-1.6,4.9-3.1,7.1-3.1c1.2,0,3.1,0.4,5.3,3.6c1.6,2.3,3.5,4.4,6.5,4.4
		c3.1,0,7.1-2.3,13.2-7.7c4.1-3.6,8.8-8.4,8.4-13.3c-0.2-2.6-1.8-4.9-4.8-6.9c-1.1-0.7-1.6-1.5-1.8-2.6c-0.3-2.1,1.2-5.1,4.2-8.6
		c2.4-2.8,4.1-4,5.5-4C-834.9,503.1-832.2,506-828.9,511.9z M-872.1,524.3c8.6,0,15.6-5.6,15.6-12.6c0-1.4-0.3-2.8-0.8-4.1
		c-0.1-0.1-0.1-0.3,0-0.6c0.3-0.8,2.7-2,4.4-2.8c-2.7-0.3-7.5-1-8.3-1.6c-2.9-2.2-6.7-3.5-10.8-3.5c-8.6,0-15.6,5.6-15.6,12.6
		S-880.6,524.3-872.1,524.3z M-858.8,485.7c-23.5,0-42.6,19-42.6,42.5s19.1,42.5,42.6,42.5s42.6-19,42.6-42.5
		C-816.2,504.8-835.3,485.7-858.8,485.7z M-872.1,498.3c4.2,0,8.2,1.3,11.3,3.7c0.6,0.4,5.3,1.2,9.5,1.6l1.7,0.2l-1.6,0.7
		c-2.4,1-5.1,2.4-5.4,2.9c0.6,1.4,0.9,2.9,0.9,4.4c0,7.4-7.4,13.5-16.4,13.5s-16.4-6-16.4-13.5
		C-888.5,504.3-881.1,498.3-872.1,498.3z M-841.7,547.9c-10.3,8.4-19.4,12.6-27.2,12.6c-4.8,0-9.1-1.6-13-4.8
		c-4.1-3.3-6-6.6-5.8-9.6c0.2-2.6,1.8-4.8,4.9-6.8l0.6-0.4c2.7-1.7,5.5-3.5,8.5-3.5c2.8,0,5.3,1.6,7.5,4.7c1.6,2.4,2.8,3.2,4.3,3.2
		c2.4,0,6-2.2,11.4-7c3.4-3,7.8-7.4,7.5-11.1c-0.1-1.8-1.3-3.4-3.6-4.8c-1.7-1.1-2.7-2.6-3-4.4c-0.4-2.9,1.2-6.5,4.8-10.7
		c2.2-2.5,4.6-4.9,7.6-4.9c3.4,0,6.5,3,10.6,10.2c2.4,4.3,2.4,10.5,0,17C-828.3,532.7-832.5,540.3-841.7,547.9z"/>
</g>
<text transform="matrix(1 0 0 1 -878.3334 520.0832)" fill="#FFFFFF" font-family="'Roboto-Black'" font-size="24px">?</text>
</svg>
