<svg version="1.1" id="svg-item-glazing" xmlns="http://www.w3.org/2000/svg" xmlns:xlink="http://www.w3.org/1999/xlink" x="0px" y="0px"
	 viewBox="0 0 94.4 76.6" enable-background="new 0 0 94.4 76.6" xml:space="preserve">
<g>
	<defs>
		<rect id="SVGID_1_" y="0" width="94.4" height="76.6"/>
	</defs>
	<clipPath id="SVGID_2_">
		<use xlink:href="#SVGID_1_"  overflow="visible"/>
	</clipPath>
	
		<line clip-path="url(#SVGID_2_)" fill="none" stroke="#1F587D" stroke-width="4" stroke-linecap="round" stroke-linejoin="round" stroke-miterlimit="10" x1="34" y1="74.6" x2="2" y2="74.6"/>
	
		<line clip-path="url(#SVGID_2_)" fill="none" stroke="#1F587D" stroke-width="4" stroke-linecap="round" stroke-linejoin="round" stroke-miterlimit="10" x1="92.4" y1="74.6" x2="72.4" y2="74.6"/>
	
		<rect x="8" y="22.3" clip-path="url(#SVGID_2_)" fill="none" stroke="#1F587D" stroke-width="4" stroke-linecap="round" stroke-linejoin="round" stroke-miterlimit="10" width="38" height="52.4"/>
</g>
<line fill="none" stroke="#1F587D" stroke-width="3" stroke-linecap="round" stroke-linejoin="round" stroke-miterlimit="10" x1="8" y1="65.9" x2="46" y2="65.9"/>
<line fill="none" stroke="#1F587D" stroke-width="3" stroke-linecap="round" stroke-linejoin="round" stroke-miterlimit="10" x1="8" y1="57.2" x2="46" y2="57.2"/>
<line fill="none" stroke="#1F587D" stroke-width="3" stroke-linecap="round" stroke-linejoin="round" stroke-miterlimit="10" x1="8" y1="48.5" x2="46" y2="48.5"/>
<line fill="none" stroke="#1F587D" stroke-width="3" stroke-linecap="round" stroke-linejoin="round" stroke-miterlimit="10" x1="8" y1="39.7" x2="46" y2="39.7"/>
<line fill="none" stroke="#1F587D" stroke-width="3" stroke-linecap="round" stroke-linejoin="round" stroke-miterlimit="10" x1="8" y1="31" x2="46" y2="31"/>
<g>
	<defs>
		<rect id="SVGID_3_" y="0" width="94.4" height="76.6"/>
	</defs>
	<clipPath id="SVGID_4_">
		<use xlink:href="#SVGID_3_"  overflow="visible"/>
	</clipPath>
	
		<path clip-path="url(#SVGID_4_)" fill="none" stroke="#1F587D" stroke-width="2" stroke-linecap="round" stroke-linejoin="round" stroke-miterlimit="10" d="
		M39.7,22.3c-0.1,14.4-0.1,28.7,0,43.1"/>
	
		<line clip-path="url(#SVGID_4_)" fill="none" stroke="#1F587D" stroke-width="4" stroke-linecap="round" stroke-linejoin="round" stroke-miterlimit="10" x1="33.3" y1="22.3" x2="33.3" y2="74.6"/>
	
		<path clip-path="url(#SVGID_4_)" fill="none" stroke="#1F587D" stroke-width="2" stroke-linecap="round" stroke-linejoin="round" stroke-miterlimit="10" d="
		M27,22.3c-0.2,14.5-0.2,29,0,43.4"/>
	
		<line clip-path="url(#SVGID_4_)" fill="none" stroke="#1F587D" stroke-width="4" stroke-linecap="round" stroke-linejoin="round" stroke-miterlimit="10" x1="20.7" y1="22.3" x2="20.7" y2="74.6"/>
	
		<path clip-path="url(#SVGID_4_)" fill="none" stroke="#1F587D" stroke-width="2" stroke-linecap="round" stroke-linejoin="round" stroke-miterlimit="10" d="
		M14.3,22.3c-0.3,14.5-0.3,29,0,43.6"/>
	<rect x="13.7" y="16.4" clip-path="url(#SVGID_4_)" fill="#1F587D" width="25.9" height="4"/>
	
		<rect x="13.7" y="16.4" clip-path="url(#SVGID_4_)" fill="none" stroke="#1F587D" stroke-miterlimit="10" width="25.9" height="4"/>
	
		<rect x="46" y="12.3" clip-path="url(#SVGID_4_)" fill="none" stroke="#1F587D" stroke-width="4" stroke-linecap="round" stroke-linejoin="round" stroke-miterlimit="10" width="35" height="62.4"/>
	
		<line clip-path="url(#SVGID_4_)" fill="none" stroke="#1F587D" stroke-width="3" stroke-linecap="round" stroke-linejoin="round" stroke-miterlimit="10" x1="46" y1="64.2" x2="81" y2="64.2"/>
	
		<line clip-path="url(#SVGID_4_)" fill="none" stroke="#1F587D" stroke-width="3" stroke-linecap="round" stroke-linejoin="round" stroke-miterlimit="10" x1="46" y1="53.9" x2="81" y2="53.9"/>
	
		<line clip-path="url(#SVGID_4_)" fill="none" stroke="#1F587D" stroke-width="3" stroke-linecap="round" stroke-linejoin="round" stroke-miterlimit="10" x1="46" y1="43.5" x2="81" y2="43.5"/>
	
		<line clip-path="url(#SVGID_4_)" fill="none" stroke="#1F587D" stroke-width="3" stroke-linecap="round" stroke-linejoin="round" stroke-miterlimit="10" x1="46" y1="33.1" x2="81" y2="33.1"/>
	
		<line clip-path="url(#SVGID_4_)" fill="none" stroke="#1F587D" stroke-width="3" stroke-linecap="round" stroke-linejoin="round" stroke-miterlimit="10" x1="46" y1="22.7" x2="81" y2="22.7"/>
	
		<path clip-path="url(#SVGID_4_)" fill="none" stroke="#1F587D" stroke-width="2" stroke-linecap="round" stroke-linejoin="round" stroke-miterlimit="10" d="
		M75.2,12.3c-0.1,17.1-0.1,34.2,0,51.3"/>
	
		<line clip-path="url(#SVGID_4_)" fill="none" stroke="#1F587D" stroke-width="4" stroke-linecap="round" stroke-linejoin="round" stroke-miterlimit="10" x1="69.3" y1="12.3" x2="69.3" y2="74.6"/>
	
		<path clip-path="url(#SVGID_4_)" fill="none" stroke="#1F587D" stroke-width="2" stroke-linecap="round" stroke-linejoin="round" stroke-miterlimit="10" d="
		M63.5,12.3c-0.2,17.2-0.2,34.5,0,51.7"/>
	
		<line clip-path="url(#SVGID_4_)" fill="none" stroke="#1F587D" stroke-width="4" stroke-linecap="round" stroke-linejoin="round" stroke-miterlimit="10" x1="57.7" y1="12.3" x2="57.7" y2="74.6"/>
	
		<path clip-path="url(#SVGID_4_)" fill="none" stroke="#1F587D" stroke-width="2" stroke-linecap="round" stroke-linejoin="round" stroke-miterlimit="10" d="
		M51.8,12.3c-0.3,17.3-0.3,34.6,0,51.9"/>
	<rect x="47.5" y="6" clip-path="url(#SVGID_4_)" fill="#1F587D" width="18.3" height="5"/>
	<rect x="47.5" y="6" clip-path="url(#SVGID_4_)" fill="none" stroke="#1F587D" stroke-miterlimit="10" width="18.3" height="5"/>
	<rect x="69.7" y="8.4" clip-path="url(#SVGID_4_)" fill="#1F587D" width="2" height="3.6"/>
	<rect x="69.7" y="8.4" clip-path="url(#SVGID_4_)" fill="none" stroke="#1F587D" stroke-miterlimit="10" width="2" height="3.6"/>
	<rect x="73.9" y="8.4" clip-path="url(#SVGID_4_)" fill="#1F587D" width="2" height="3.6"/>
	<rect x="73.9" y="8.4" clip-path="url(#SVGID_4_)" fill="none" stroke="#1F587D" stroke-miterlimit="10" width="2" height="3.6"/>
	<path clip-path="url(#SVGID_4_)" fill="#1F587D" d="M77,2c0-0.8-0.6-1.5-1.5-1.5h-5.3c-0.8,0-1.5,0.7-1.5,1.5v5.7
		c0,0.8,0.6,1.5,1.5,1.5h5.3c0.8,0,1.5-0.6,1.5-1.5V2z"/>
	<path clip-path="url(#SVGID_4_)" fill="none" stroke="#1F587D" stroke-miterlimit="10" d="M77,2c0-0.8-0.6-1.5-1.5-1.5h-5.3
		c-0.8,0-1.5,0.7-1.5,1.5v5.7c0,0.8,0.6,1.5,1.5,1.5h5.3c0.8,0,1.5-0.6,1.5-1.5V2z"/>
</g>
</svg>
